<svg width="80" height="80" viewBox="0 0 80 80" fill="none" xmlns="http://www.w3.org/2000/svg">
<g id="Leftbar/Mining_4">
<g id="Group">
<path id="Rectangle" fill-rule="evenodd" clip-rule="evenodd" d="M46.364 29.9792C45.9734 29.5887 45.3403 29.5887 44.9498 29.9792L39.2929 35.6361C38.9024 36.0266 38.9024 36.6597 39.2929 37.0503L44.9498 42.7071C45.3403 43.0976 45.9734 43.0976 46.364 42.7071L52.0208 37.0503C52.4113 36.6597 52.4113 36.0266 52.0208 35.6361L46.364 29.9792ZM41.4142 36.3432L45.6569 32.1005L49.8995 36.3432L45.6569 40.5858L41.4142 36.3432Z" fill="#3A4D69"/>
<path id="Rectangle Copy" fill-rule="evenodd" clip-rule="evenodd" d="M50.6066 28.565C50.2161 28.1745 49.5829 28.1745 49.1924 28.565L46.364 31.3934C45.9734 31.784 45.9734 32.4171 46.364 32.8077L49.1924 35.6361C49.5829 36.0266 50.2161 36.0266 50.6066 35.6361L53.435 32.8077C53.8255 32.4171 53.8255 31.784 53.435 31.3934L50.6066 28.565ZM48.4853 32.1006L49.8995 30.6863L51.3137 32.1006L49.8995 33.5148L48.4853 32.1006Z" fill="#3A4D69"/>
<path id="Rectangle Copy 2" fill-rule="evenodd" clip-rule="evenodd" d="M42.1213 37.0502C41.7308 36.6597 41.0976 36.6597 40.7071 37.0502L26.565 51.1924C26.1744 51.5829 26.1744 52.2161 26.565 52.6066L29.3934 55.435C29.7839 55.8255 30.4171 55.8255 30.8076 55.435L44.9497 41.2929C45.3403 40.9024 45.3403 40.2692 44.9497 39.8787L42.1213 37.0502ZM28.6863 51.8995L41.4142 39.1716L42.8284 40.5858L30.1005 53.3137L28.6863 51.8995Z" fill="#3A4D69"/>
<path id="Path 17" d="M43.1447 28.3234L34.4354 25.4204C33.3875 25.0711 32.2549 25.6374 31.9056 26.6853C31.666 27.4039 31.8531 28.1963 32.3888 28.7319L37.8787 34.2219C38.2692 34.6124 38.9024 34.6124 39.2929 34.2219C39.6834 33.8313 39.6834 33.1982 39.2929 32.8076L33.803 27.3177L42.5122 30.2208C43.0361 30.3954 43.6025 30.1123 43.7771 29.5883C43.9518 29.0644 43.6686 28.4981 43.1447 28.3234Z" fill="#3A4D69"/>
<path id="Path 17_2" d="M53.9647 39.1434L56.8678 47.8527C57.2171 48.9006 56.6508 50.0332 55.6029 50.3825C54.8842 50.6221 54.0919 50.435 53.5562 49.8993L48.0663 44.4094C47.6757 44.0189 47.6757 43.3857 48.0663 42.9952C48.4568 42.6047 49.09 42.6047 49.4805 42.9952L54.9704 48.4851L52.0673 39.7759C51.8927 39.252 52.1758 38.6856 52.6998 38.511C53.2237 38.3363 53.7901 38.6195 53.9647 39.1434Z" fill="#3A4D69"/>
</g>
</g>
</svg>
