<?xml version="1.0" encoding="UTF-8"?>
<svg width="40px" height="49px" viewBox="0 0 40 49" version="1.1" xmlns="http://www.w3.org/2000/svg" xmlns:xlink="http://www.w3.org/1999/xlink">
    <!-- Generator: Sketch 55 (78076) - https://sketchapp.com -->
    <title>logo_dice</title>
    <desc>Created with Sketch.</desc>
    <g id="Symbols" stroke="none" stroke-width="1" fill="none" fill-rule="evenodd">
        <g id="Leftbar" transform="translate(-30.000000, -30.000000)" fill-rule="nonzero">
            <g id="logo_dice">
                <g transform="translate(30.000000, 30.000000)">
                    <path d="M0.178713408,18.0413109 L16.1908796,26.2472454 C17.288084,26.8054961 17.9790776,27.9323613 17.9790776,29.1634178 L17.9790776,45.1936 C17.9790776,47.0006362 16.5141854,48.4655284 14.7071493,48.4655284 C14.1690381,48.4655284 13.6392336,48.3328091 13.1646714,48.0791284 L4.50233849,43.4486217 C1.84065178,42.0258 0.178713408,39.2529119 0.178713408,36.2348001 L0.178713408,29.6188767 L3.28434272,31.4142771 C4.04291231,31.8528153 4.51010278,32.6625456 4.51010278,33.5387557 L4.51010278,35.7478668 C4.51010278,36.9140508 5.13080885,37.9920857 6.13937259,38.5775646 L13.5245991,42.8647363 L13.5245991,30.1196814 L2.88659794,24.742268 C1.20026488,23.9196308 0.206185567,22.2886584 0.206185567,20.4123711 C0.206185567,19.7250859 0.197028181,18.9347325 0.178713408,18.0413109 Z" id="jb-copy" fill="#FFFFFF"></path>
                    <path d="M37.237957,30.3253131 C38.7421746,30.6186305 39.7731025,32.0619294 39.8265874,34.1261249 L39.8265874,37.2968476 C39.8265874,39.6681057 38.3376112,41.8538315 36.2673477,43.0100639 L27.4503327,47.9343218 C25.8726718,48.8154382 23.8794392,48.2507762 22.9983236,46.6731153 C22.7259814,46.1854802 22.5830031,45.6362461 22.5830031,45.077714 L22.5830031,36.1293459 L22.5830031,29.1091578 C22.5830031,27.9066439 23.2426271,26.8010373 24.300835,26.2298698 L39.7938144,17.9381443 C39.8523381,19.0428152 39.8517605,20.1424716 39.7920815,21.2371134 C39.6066079,24.6391015 39.1752577,27.4226804 37.237957,30.3253131 Z M26.5944543,38.6584189 L26.5944543,43.3905884 L34.0369011,38.8653299 C35.0130621,38.2717914 36.2679478,37.2165686 35.8555767,35.3608985 C35.6275958,34.3349846 34.3449605,34.3310474 33.7386501,34.6695718 L26.5944543,38.6584189 Z M26.5944543,30.1196814 L26.5944543,34.1010783 L32.5773196,30.9278351 C33.9900131,30.1756163 34.9306302,28.5961173 35.3700704,27.0593568 C35.5562842,26.4081509 35.7181196,25.6014483 35.8555767,24.639249 L26.5944543,30.1196814 Z" id="Combined-Shape" fill="#FFFFFF"></path>
                    <path d="M0.87868627,10.0473009 L18.5758388,0.742976972 C19.5381541,0.23703692 20.6884334,0.239871703 21.6482433,0.750548987 L39.1284787,10.051087 C39.9294916,10.4772744 40.2333481,11.4721163 39.8071606,12.2731291 C39.6535336,12.5618695 39.4172191,12.798184 39.1284787,12.9518118 L21.6482433,22.2523498 C20.6884334,22.7630263 19.5381541,22.765861 18.5758388,22.2599218 L0.87868627,12.9959783 C0.07558201,12.5737436 -0.233173509,11.5400311 0.189060375,10.7369268 C0.343831603,10.4425465 0.584305915,10.2020722 0.87868627,10.0473009 Z M6.80460635,12.4425183 C8.74071678,12.4425183 10.3102444,11.7698638 10.3102444,10.9401019 C10.3102444,10.1103409 8.74071678,9.43768644 6.80460635,9.43768644 C4.86849674,9.43768644 3.29896907,10.1103409 3.29896907,10.9401019 C3.29896907,11.7698638 4.86849674,12.4425183 6.80460635,12.4425183 Z M20.0004835,5.43220981 C21.9365931,5.43220981 23.5061207,4.75955451 23.5061207,3.92979349 C23.5061207,3.10003164 21.9365931,2.42737716 20.0004835,2.42737716 C18.064373,2.42737716 16.4948454,3.10003164 16.4948454,3.92979349 C16.4948454,4.75955451 18.064373,5.43220981 20.0004835,5.43220981 Z M20.0004835,12.4425183 C21.9365931,12.4425183 23.5061207,11.7698638 23.5061207,10.9401019 C23.5061207,10.1103409 21.9365931,9.43768644 20.0004835,9.43768644 C18.064373,9.43768644 16.4948454,10.1103409 16.4948454,10.9401019 C16.4948454,11.7698638 18.064373,12.4425183 20.0004835,12.4425183 Z M20.0004835,19.4528284 C21.9365931,19.4528284 23.5061207,18.7801739 23.5061207,17.950412 C23.5061207,17.1206502 21.9365931,16.4479957 20.0004835,16.4479957 C18.064373,16.4479957 16.4948454,17.1206502 16.4948454,17.950412 C16.4948454,18.7801739 18.064373,19.4528284 20.0004835,19.4528284 Z M33.1963589,12.4425183 C35.1324694,12.4425183 36.7019962,11.7698638 36.7019962,10.9401019 C36.7019962,10.1103409 35.1324694,9.43768644 33.1963589,9.43768644 C31.2602485,9.43768644 29.6907216,10.1103409 29.6907216,10.9401019 C29.6907216,11.7698638 31.2602485,12.4425183 33.1963589,12.4425183 Z" id="Combined-Shape" fill="#D9113A"></path>
                </g>
            </g>
        </g>
    </g>
</svg>