<svg width="220" height="230" viewBox="0 0 220 230" fill="none" xmlns="http://www.w3.org/2000/svg">
<g id="Coin_trx_silver Copy 2" filter="url(#filter0_d)">
<g id="Coin_winr_y">
<path id="Oval" fill-rule="evenodd" clip-rule="evenodd" d="M110 220C170.751 220 220 170.751 220 110C220 49.2487 170.751 0 110 0C49.2487 0 0 49.2487 0 110C0 170.751 49.2487 220 110 220Z" fill="#FFD000"/>
<path id="Combined Shape" fill-rule="evenodd" clip-rule="evenodd" d="M146.667 64.1667C146.667 124.918 97.418 174.167 36.6667 174.167C30.9055 174.167 25.2477 173.724 19.7256 172.87C7.29207 155.05 0 133.377 0 110C0 49.2487 49.2487 0 110 0C115.761 0 121.419 0.442902 126.941 1.29651C139.375 19.1164 146.667 40.7899 146.667 64.1667Z" fill="#FFE714"/>
<path id="Oval_2" fill-rule="evenodd" clip-rule="evenodd" d="M110 201.667C160.626 201.667 201.667 160.626 201.667 110C201.667 59.3738 160.626 18.3333 110 18.3333C59.3741 18.3333 18.3335 59.3738 18.3335 110C18.3335 160.626 59.3741 201.667 110 201.667Z" fill="#DF9D07"/>
<path id="Combined Shape_2" fill-rule="evenodd" clip-rule="evenodd" d="M18.4461 114.583C20.8342 66.0865 60.911 27.4999 110 27.4999C159.089 27.4999 199.166 66.0865 201.554 114.583C201.629 113.065 201.667 111.537 201.667 110C201.667 59.3738 160.626 18.3333 110 18.3333C59.3741 18.3333 18.3335 59.3738 18.3335 110C18.3335 111.537 18.3713 113.065 18.4461 114.583Z" fill="#CD8103"/>
<path id="Combined Shape_3" fill-rule="evenodd" clip-rule="evenodd" d="M57.4164 77.0416L106.084 51.4548C108.73 50.0634 111.893 50.0712 114.533 51.4756L162.603 77.0521C164.806 78.2241 165.642 80.9599 164.47 83.1627C164.047 83.9567 163.397 84.6066 162.603 85.029L114.533 110.606C111.893 112.01 108.73 112.018 106.084 110.626L57.4164 85.1505C55.2079 83.9894 54.3588 81.1466 55.5199 78.9381C55.9455 78.1286 56.6068 77.4673 57.4164 77.0416ZM73.7127 83.6285C79.037 83.6285 83.3532 81.7787 83.3532 79.4968C83.3532 77.215 79.037 75.3652 73.7127 75.3652C68.3884 75.3652 64.0722 77.215 64.0722 79.4968C64.0722 81.7787 68.3884 83.6285 73.7127 83.6285ZM119.642 60.2185C119.642 62.5003 115.326 64.3501 110.001 64.3501C104.677 64.3501 100.361 62.5003 100.361 60.2185C100.361 57.9367 104.677 56.0869 110.001 56.0869C115.326 56.0869 119.642 57.9367 119.642 60.2185ZM110.001 83.6285C115.326 83.6285 119.642 81.7787 119.642 79.4968C119.642 77.215 115.326 75.3652 110.001 75.3652C104.677 75.3652 100.361 77.215 100.361 79.4968C100.361 81.7787 104.677 83.6285 110.001 83.6285ZM119.642 98.7752C119.642 101.057 115.326 102.907 110.001 102.907C104.677 102.907 100.361 101.057 100.361 98.7752C100.361 96.4933 104.677 94.6435 110.001 94.6435C115.326 94.6435 119.642 96.4933 119.642 98.7752ZM146.29 83.6285C151.614 83.6285 155.931 81.7787 155.931 79.4968C155.931 77.215 151.614 75.3652 146.29 75.3652C140.966 75.3652 136.65 77.215 136.65 79.4968C136.65 81.7787 140.966 83.6285 146.29 83.6285ZM157.404 132.806C161.541 133.613 164.376 137.582 164.523 143.258V151.978C164.523 158.499 160.428 164.51 154.735 167.689L130.488 181.231C126.15 183.654 120.668 182.101 118.245 177.763C117.496 176.422 117.103 174.911 117.103 173.375V148.767V129.462C117.103 126.155 118.917 123.114 121.827 121.544L164.433 98.7415C164.433 98.7415 164.674 103.298 164.428 107.814C163.918 117.169 162.732 124.824 157.404 132.806ZM128.135 155.722V168.736L148.602 156.291C151.286 154.659 154.737 151.757 153.603 146.654C152.976 143.833 149.449 143.822 147.781 144.753L128.135 155.722ZM128.135 143.189V132.241L153.603 117.169C153.603 117.169 153.036 121.139 152.268 123.825C151.059 128.051 148.473 132.394 144.588 134.463L128.135 143.189ZM55.4914 99.0252L99.5249 121.591C102.542 123.127 104.442 126.226 104.442 129.611V173.694C104.442 178.663 100.414 182.692 95.4446 182.692C93.9648 182.692 92.5079 182.327 91.2028 181.629L67.3814 168.895C60.0618 164.983 55.4914 157.357 55.4914 149.057V130.863L64.0319 135.801C66.118 137.007 67.4028 139.234 67.4028 141.643V147.718C67.4028 150.925 69.1097 153.89 71.8833 155.5L92.1926 167.29V132.241L62.9381 117.453C58.3007 115.191 55.567 110.705 55.567 105.546C55.567 102.711 55.4914 99.0252 55.4914 99.0252Z" fill="#CD8103"/>
<path id="Combined Shape_4" fill-rule="evenodd" clip-rule="evenodd" d="M57.4164 67.8749L106.084 42.288C108.73 40.8967 111.893 40.9045 114.533 42.3088L162.603 67.8853C164.806 69.0573 165.642 71.7931 164.47 73.9959C164.047 74.79 163.397 75.4398 162.603 75.8623L114.533 101.439C111.893 102.843 108.73 102.851 106.084 101.46L57.4164 75.9838C55.2079 74.8226 54.3588 71.9799 55.5199 69.7714C55.9455 68.9618 56.6068 68.3005 57.4164 67.8749ZM73.7127 74.4617C79.037 74.4617 83.3532 72.6119 83.3532 70.3301C83.3532 68.0482 79.037 66.1984 73.7127 66.1984C68.3884 66.1984 64.0722 68.0482 64.0722 70.3301C64.0722 72.6119 68.3884 74.4617 73.7127 74.4617ZM119.642 51.0518C119.642 53.3336 115.326 55.1834 110.001 55.1834C104.677 55.1834 100.361 53.3336 100.361 51.0518C100.361 48.7699 104.677 46.9201 110.001 46.9201C115.326 46.9201 119.642 48.7699 119.642 51.0518ZM110.001 74.4617C115.326 74.4617 119.642 72.6119 119.642 70.3301C119.642 68.0482 115.326 66.1984 110.001 66.1984C104.677 66.1984 100.361 68.0482 100.361 70.3301C100.361 72.6119 104.677 74.4617 110.001 74.4617ZM119.642 89.6084C119.642 91.8903 115.326 93.7401 110.001 93.7401C104.677 93.7401 100.361 91.8903 100.361 89.6084C100.361 87.3266 104.677 85.4768 110.001 85.4768C115.326 85.4768 119.642 87.3266 119.642 89.6084ZM146.29 74.4617C151.614 74.4617 155.931 72.6119 155.931 70.3301C155.931 68.0482 151.614 66.1984 146.29 66.1984C140.966 66.1984 136.65 68.0482 136.65 70.3301C136.65 72.6119 140.966 74.4617 146.29 74.4617ZM157.404 123.639C161.541 124.446 164.376 128.415 164.523 134.092V142.811C164.523 149.332 160.428 155.343 154.735 158.522L130.488 172.064C126.15 174.487 120.668 172.934 118.245 168.596C117.496 167.255 117.103 165.744 117.103 164.209V139.601V120.295C117.103 116.988 118.917 113.948 121.827 112.377L164.433 89.5747C164.433 89.5747 164.674 94.1315 164.428 98.6469C163.918 108.002 162.732 115.657 157.404 123.639ZM128.135 146.555V159.569L148.602 147.124C151.286 145.492 154.737 142.59 153.603 137.487C152.976 134.666 149.449 134.655 147.781 135.586L128.135 146.555ZM128.135 134.023V123.074L153.603 108.003C153.603 108.003 153.036 111.972 152.268 114.658C151.059 118.884 148.473 123.228 144.588 125.296L128.135 134.023ZM55.4914 89.8584L99.5249 112.425C102.542 113.96 104.442 117.059 104.442 120.444V164.527C104.442 169.497 100.414 173.525 95.4446 173.525C93.9648 173.525 92.5079 173.16 91.2028 172.462L67.3814 159.729C60.0618 155.816 55.4914 148.19 55.4914 139.891V121.697L64.0319 126.634C66.118 127.84 67.4028 130.067 67.4028 132.476V138.551C67.4028 141.758 69.1097 144.723 71.8833 146.333L92.1926 158.123V123.074L62.9381 108.286C58.3007 106.024 55.567 101.539 55.567 96.3788C55.567 93.5438 55.4914 89.8584 55.4914 89.8584Z" fill="#FFD000"/>
<path id="Star" fill-rule="evenodd" clip-rule="evenodd" d="M49.3161 52.2228C49.2234 51.8787 48.9546 51.6099 48.6104 51.5172L27.8586 45.9298C27.76 45.9032 27.76 45.7633 27.8586 45.7367L48.6104 40.1493C48.9546 40.0566 49.2234 39.7878 49.3161 39.4437L54.9034 18.6919C54.93 18.5932 55.07 18.5932 55.0966 18.6919L60.6839 39.4437C60.7766 39.7878 61.0454 40.0566 61.3896 40.1493L82.1414 45.7367C82.24 45.7633 82.24 45.9032 82.1414 45.9298L61.3896 51.5172C61.0454 51.6099 60.7766 51.8787 60.6839 52.2228L55.0966 72.9746C55.07 73.0733 54.93 73.0733 54.9034 72.9746L49.3161 52.2228Z" fill="white"/>
<path id="Combined Shape_5" fill-rule="evenodd" clip-rule="evenodd" d="M146.563 59.351L114.533 42.3088C111.893 40.9045 108.73 40.8967 106.084 42.288L57.4164 67.8749C56.6068 68.3005 55.9455 68.9618 55.5199 69.7714C54.3588 71.9799 55.2079 74.8226 57.4164 75.9838L106.084 101.46C108.73 102.851 111.893 102.843 114.533 101.439L144.612 85.4346C145.317 81.8367 145.847 78.1759 146.191 74.4615C140.912 74.4388 136.65 72.5978 136.65 70.3301C136.65 68.0482 140.966 66.1984 146.29 66.1984C146.41 66.1984 146.529 66.1994 146.648 66.2012C146.66 65.5245 146.667 64.8463 146.667 64.1667C146.667 62.5531 146.632 60.9476 146.563 59.351ZM139.683 102.821L121.827 112.377C118.917 113.948 117.103 116.988 117.103 120.295V139.2C121.14 134.875 124.832 130.224 128.135 125.29V123.074L130.43 121.716C134.088 115.768 137.196 109.446 139.683 102.821ZM104.442 150.813V120.444C104.442 117.059 102.542 113.96 99.5249 112.425L55.4914 89.8584C55.4914 89.8584 55.567 93.5438 55.567 96.3788C55.567 101.539 58.3007 106.024 62.9381 108.286L92.1926 123.074V158.123L71.8833 146.333C69.1097 144.723 67.4028 141.758 67.4028 138.551V132.476C67.4028 130.067 66.118 127.84 64.0319 126.634L55.4914 121.697V139.891C55.4914 148.19 60.0618 155.816 67.3814 159.729L78.7751 165.819C88.0371 161.978 96.6607 156.908 104.442 150.813ZM73.7127 74.4617C79.037 74.4617 83.3532 72.6119 83.3532 70.3301C83.3532 68.0482 79.037 66.1984 73.7127 66.1984C68.3884 66.1984 64.0722 68.0482 64.0722 70.3301C64.0722 72.6119 68.3884 74.4617 73.7127 74.4617ZM119.642 51.0518C119.642 53.3336 115.326 55.1834 110.001 55.1834C104.677 55.1834 100.361 53.3336 100.361 51.0518C100.361 48.7699 104.677 46.9201 110.001 46.9201C115.326 46.9201 119.642 48.7699 119.642 51.0518ZM110.001 74.4617C115.326 74.4617 119.642 72.6119 119.642 70.3301C119.642 68.0482 115.326 66.1984 110.001 66.1984C104.677 66.1984 100.361 68.0482 100.361 70.3301C100.361 72.6119 104.677 74.4617 110.001 74.4617ZM119.642 89.6084C119.642 91.8903 115.326 93.7401 110.001 93.7401C104.677 93.7401 100.361 91.8903 100.361 89.6084C100.361 87.3266 104.677 85.4768 110.001 85.4768C115.326 85.4768 119.642 87.3266 119.642 89.6084Z" fill="#FFE714"/>
</g>
</g>
<defs>
<filter id="filter0_d" x="0" y="0" width="220" height="230" filterUnits="userSpaceOnUse" color-interpolation-filters="sRGB">
<feFlood flood-opacity="0" result="BackgroundImageFix"/>
<feColorMatrix in="SourceAlpha" type="matrix" values="0 0 0 0 0 0 0 0 0 0 0 0 0 0 0 0 0 0 127 0"/>
<feOffset dy="10"/>
<feColorMatrix type="matrix" values="0 0 0 0 0.449332 0 0 0 0 0.258509 0 0 0 0 0.0479042 0 0 0 1 0"/>
<feBlend mode="normal" in2="BackgroundImageFix" result="effect1_dropShadow"/>
<feBlend mode="normal" in="SourceGraphic" in2="effect1_dropShadow" result="shape"/>
</filter>
</defs>
</svg>
