<?xml version="1.0" encoding="UTF-8"?>
<svg width="24px" height="24px" viewBox="0 0 24 24" version="1.1" xmlns="http://www.w3.org/2000/svg" xmlns:xlink="http://www.w3.org/1999/xlink">
    <!-- Generator: Sketch 64 (93537) - https://sketch.com -->
    <title>Coin_trx_red</title>
    <desc>Created with Sketch.</desc>
    <g id="Coin_trx_red" stroke="none" stroke-width="1" fill="none" fill-rule="evenodd">
        <g id="Coin_trx_silver">
            <circle id="Oval" fill="#DA0E38" cx="12" cy="12" r="12"></circle>
            <path d="M12,0 C12.6291609,0 13.2470129,0.0484192471 13.850033,0.141734745 C15.2046886,2.0859763 16,4.45011069 16,7 C16,13.627417 10.627417,19 4,19 C3.37083907,19 2.75298706,18.9515808 2.14996697,18.8582653 C0.795309005,16.9140166 0,14.5498855 0,12 C0,5.372583 5.372583,0 12,0 Z" id="Combined-Shape" fill="#FE5074"></path>
            <circle id="Oval" fill="#9D122E" cx="12" cy="12" r="10"></circle>
            <path d="M12,2 C17.5228475,2 22,6.4771525 22,12 C22,12.1680222 21.9958561,12.3350766 21.9876649,12.5010665 C21.7271641,7.20940785 17.355162,3 12,3 C6.64483803,3 2.27283594,7.20940785 2.01228588,12.4999314 C2.0041439,12.3350766 2,12.1680222 2,12 C2,6.4771525 6.4771525,2 12,2 Z" id="Combined-Shape" fill="#72051C"></path>
            <path d="M5.22019202,5.83413645 L16.246506,8.03939926 L19.1764235,10.9693167 L10.83113,20.983669 L5.22019202,5.83413645 Z M17.333192,11.6181365 L12.450192,12.4321365 L11.707192,18.3701365 L17.333192,11.6181365 Z M7.20619202,8.31713645 L10.757192,17.9061365 L11.4716791,12.1954386 L7.20619202,8.31713645 Z M7.60819202,7.33113645 L11.983192,11.3091365 L14.569192,8.72313645 L7.60819202,7.33113645 Z M15.747192,8.95913645 L13.4568044,11.2503024 L17.387192,10.5941365 L15.753494,8.96060074 L15.747192,8.95913645 Z" id="Combined-Shape" fill="#72051C"></path>
            <path d="M5.22019202,4.83413645 L16.246506,7.03939926 L19.1764235,9.96931674 L10.83113,19.983669 L5.22019202,4.83413645 Z M17.333192,10.6181365 L12.450192,11.4321365 L11.707192,17.3701365 L17.333192,10.6181365 Z M7.20619202,7.31713645 L10.757192,16.9061365 L11.4716791,11.1954386 L7.20619202,7.31713645 Z M7.60819202,6.33113645 L11.983192,10.3091365 L14.569192,7.72313645 L7.60819202,6.33113645 Z M15.747192,7.95913645 L13.4568044,10.2503024 L17.387192,9.59413645 L15.753494,7.96060074 L15.747192,7.95913645 Z" id="Combined-Shape" fill="#DA0E38"></path>
            <path d="M5.22019202,4.83413645 L16.2185559,7.03432666 C16.211367,7.4738388 16.1805491,7.90760496 16.1273173,8.33441006 L15.753494,7.96060074 L15.747192,7.95913645 L13.4568044,10.2503024 L15.8369729,9.85413829 C15.7427365,10.2176597 15.6318875,10.5744898 15.5052846,10.9237702 L12.450192,11.4321365 L11.870467,16.079731 C11.516585,16.3728802 11.1455954,16.646101 10.7592183,16.8976732 L11.4716791,11.1954386 L7.20619202,7.31713645 L10.7552253,16.9002719 C10.4717373,17.0846924 10.1799736,17.257462 9.88061299,17.4179018 L5.22019202,4.83413645 Z M7.60819202,6.33113645 L11.983192,10.3091365 L14.569192,7.72313645 L7.60819202,6.33113645 Z" id="Combined-Shape" fill="#FE5074"></path>
        </g>
        <path d="M5.50104964,6.18726365 L4.20055017,6.93600793 C4.15268748,6.96356419 4.09154834,6.94710259 4.06399207,6.8992399 C4.04620948,6.86835319 4.04620948,6.83033655 4.06399207,6.79944983 L4.81273635,5.49895036 C4.99056226,5.19008322 4.99056226,4.80991678 4.81273635,4.50104964 L4.06399207,3.20055017 C4.03643581,3.15268748 4.05289741,3.09154834 4.1007601,3.06399207 C4.13164681,3.04620948 4.16966345,3.04620948 4.20055017,3.06399207 L5.50104964,3.81273635 C5.80991678,3.99056226 6.19008322,3.99056226 6.49895036,3.81273635 L7.79944983,3.06399207 C7.84731252,3.03643581 7.90845166,3.05289741 7.93600793,3.1007601 C7.95379052,3.13164681 7.95379052,3.16966345 7.93600793,3.20055017 L7.18726365,4.50104964 C7.00943774,4.80991678 7.00943774,5.19008322 7.18726365,5.49895036 L7.93600793,6.79944983 C7.96356419,6.84731252 7.94710259,6.90845166 7.8992399,6.93600793 C7.86835319,6.95379052 7.83033655,6.95379052 7.79944983,6.93600793 L6.49895036,6.18726365 C6.19008322,6.00943774 5.80991678,6.00943774 5.50104964,6.18726365 Z" id="Star" fill="#FFFFFF" transform="translate(6.000000, 5.000000) rotate(-315.000000) translate(-6.000000, -5.000000) "></path>
    </g>
</svg>