<?xml version="1.0" encoding="UTF-8"?>
<svg width="24px" height="24px" viewBox="0 0 24 24" version="1.1" xmlns="http://www.w3.org/2000/svg" xmlns:xlink="http://www.w3.org/1999/xlink">
    <!-- Generator: Sketch 64 (93537) - https://sketch.com -->
    <title>Coin_USDT_green</title>
    <desc>Created with Sketch.</desc>
    <g id="Coin_USDT_green" stroke="none" stroke-width="1" fill="none" fill-rule="evenodd">
        <g id="Coin_trx_silver">
            <circle id="Oval" fill="#cccccc" cx="12" cy="12" r="12"></circle>
            <path d="M10.0798133,0.153875936 C11.899327,2.25761982 13,5.00027193 13,8 C13,13.973549 8.63524977,18.9276559 2.92100584,19.8470643 C1.100673,17.7423802 0,14.9997281 0,12 C0,6.08630483 4.27772053,1.17172483 9.90763679,0.181784771 Z" id="Combined-Shape" fill="#cccccc"></path>
            <circle id="Oval" fill="#eaeaea" cx="12" cy="12" r="10"></circle>
            <path d="M12,2 C17.5228475,2 22,6.4771525 22,12 C22,12.1680222 21.9958561,12.3350766 21.9876649,12.5010665 C21.7271641,7.20940785 17.355162,3 12,3 C6.64483803,3 2.27283594,7.20940785 2.01228588,12.4999314 C2.0041439,12.3350766 2,12.1680222 2,12 C2,6.4771525 6.4771525,2 12,2 Z" id="Combined-Shape" fill="#757575"></path>
            <path d="M14.4229743,11.3298184 L14.4229743,9.6141299 L18.3463604,9.6141299 L18.3463604,7 L7.66286618,7 L7.66286618,9.6141299 L11.5867137,9.6141299 L11.5867137,11.3284344 C8.39776584,11.4749069 6,12.1064685 6,12.8630507 C6,13.6196329 8.39891917,14.2511945 11.5867137,14.3985896 L11.5867137,19.8941905 L14.4238969,19.8941905 L14.4238969,14.3981283 C17.6070781,14.2511945 20,13.6200942 20,12.864204 C20,12.1083138 17.6070781,11.4772136 14.4238969,11.3302798 M14.4238969,13.9326457 L14.4238969,13.9312617 C14.3438561,13.9363364 13.9325798,13.9610176 13.0168386,13.9610176 C12.2847069,13.9610176 11.7696313,13.9402577 11.5880977,13.9308004 L11.5880977,13.9331071 C8.77075164,13.8083171 6.66777606,13.317692 6.66777606,12.7306488 C6.66777606,12.1436056 8.7709823,11.6536725 11.5880977,11.5286519 L11.5880977,13.4443273 C11.7726299,13.4570139 12.3003921,13.4881537 13.0288332,13.4881537 C13.9037467,13.4881537 14.3436254,13.4517086 14.4243583,13.4443273 L14.4243583,11.5286519 C17.2361683,11.6539032 19.3342999,12.1449896 19.3342999,12.7299568 C19.3342999,13.314924 17.2352457,13.8062411 14.4243583,13.9314924" id="Shape" fill="#757575" fill-rule="nonzero"></path>
            <path d="M13.4229743,10.3298184 L13.4229743,8.6141299 L17.3463604,8.6141299 L17.3463604,6 L6.66286618,6 L6.66286618,8.6141299 L10.5867137,8.6141299 L10.5867137,10.3284344 C7.39776584,10.4749069 5,11.1064685 5,11.8630507 C5,12.6196329 7.39891917,13.2511945 10.5867137,13.3985896 L10.5867137,18.8941905 L13.4238969,18.8941905 L13.4238969,13.3981283 C16.6070781,13.2511945 19,12.6200942 19,11.864204 C19,11.1083138 16.6070781,10.4772136 13.4238969,10.3302798 M13.4238969,12.9326457 L13.4238969,12.9312617 C13.3438561,12.9363364 12.9325798,12.9610176 12.0168386,12.9610176 C11.2847069,12.9610176 10.7696313,12.9402577 10.5880977,12.9308004 L10.5880977,12.9331071 C7.77075164,12.8083171 5.66777606,12.317692 5.66777606,11.7306488 C5.66777606,11.1436056 7.7709823,10.6536725 10.5880977,10.5286519 L10.5880977,12.4443273 C10.7726299,12.4570139 11.3003921,12.4881537 12.0288332,12.4881537 C12.9037467,12.4881537 13.3436254,12.4517086 13.4243583,12.4443273 L13.4243583,10.5286519 C16.2361683,10.6539032 18.3342999,11.1449896 18.3342999,11.7299568 C18.3342999,12.314924 16.2352457,12.8062411 13.4243583,12.9314924" id="Shape" fill="#757575" fill-rule="nonzero"></path>
            <path d="M12.8338847,5.9988176 C12.9431336,6.64960717 13,7.31816265 13,8 C13,9.58685168 12.6919883,11.1017634 12.1324893,12.4882107 L12.0288332,12.4881537 C11.3003921,12.4881537 10.7726299,12.4570139 10.5880977,12.4443273 L10.5880977,12.4443273 L10.5880977,10.5286519 C7.7709823,10.6536725 5.66777606,11.1436056 5.66777606,11.7306488 C5.66777606,12.317692 7.77075164,12.8083171 10.5880977,12.9331071 L10.5880977,12.9331071 C10.7696313,12.9402577 11.2847069,12.9610176 12.0168386,12.9610176 L11.929658,12.9611595 C11.5642106,13.7649725 11.1126971,14.5213726 10.5868871,15.2185903 L10.5867137,13.3985896 C7.39891917,13.2511945 5,12.6196329 5,11.8630507 C5,11.1064685 7.39776584,10.4749069 10.5867137,10.3284344 L10.5867137,10.3284344 L10.5867137,8.6141299 L6.66286618,8.6141299 L6.66286618,6 Z" id="Combined-Shape" fill="#757575" fill-rule="nonzero"></path>
        </g>
        <path d="M5.50104964,6.18726365 L4.20055017,6.93600793 C4.15268748,6.96356419 4.09154834,6.94710259 4.06399207,6.8992399 C4.04620948,6.86835319 4.04620948,6.83033655 4.06399207,6.79944983 L4.81273635,5.49895036 C4.99056226,5.19008322 4.99056226,4.80991678 4.81273635,4.50104964 L4.06399207,3.20055017 C4.03643581,3.15268748 4.05289741,3.09154834 4.1007601,3.06399207 C4.13164681,3.04620948 4.16966345,3.04620948 4.20055017,3.06399207 L5.50104964,3.81273635 C5.80991678,3.99056226 6.19008322,3.99056226 6.49895036,3.81273635 L7.79944983,3.06399207 C7.84731252,3.03643581 7.90845166,3.05289741 7.93600793,3.1007601 C7.95379052,3.13164681 7.95379052,3.16966345 7.93600793,3.20055017 L7.18726365,4.50104964 C7.00943774,4.80991678 7.00943774,5.19008322 7.18726365,5.49895036 L7.93600793,6.79944983 C7.96356419,6.84731252 7.94710259,6.90845166 7.8992399,6.93600793 C7.86835319,6.95379052 7.83033655,6.95379052 7.79944983,6.93600793 L6.49895036,6.18726365 C6.19008322,6.00943774 5.80991678,6.00943774 5.50104964,6.18726365 Z" id="Star" fill="#FFFFFF" transform="translate(6.000000, 5.000000) rotate(-315.000000) translate(-6.000000, -5.000000) "></path>
    </g>
</svg>