<svg width="60" height="60" viewBox="0 0 60 60" fill="none" xmlns="http://www.w3.org/2000/svg">
<path fill-rule="evenodd" clip-rule="evenodd" d="M30 60C46.5685 60 60 46.5685 60 30C60 13.4315 46.5685 0 30 0C13.4315 0 0 13.4315 0 30C0 46.5685 13.4315 60 30 60Z" fill="#30DEFA"/>
<path fill-rule="evenodd" clip-rule="evenodd" d="M45 22.5C45 39.0685 31.5685 52.5 15 52.5C13.1653 52.5 11.369 52.3353 9.6252 52.0199C3.7057 46.54 0 38.7027 0 30C0 13.4315 13.4315 0 30 0C31.8347 0 33.631 0.164699 35.3748 0.480099C41.2943 5.96 45 13.7973 45 22.5Z" fill="#6CEEFF"/>
<path fill-rule="evenodd" clip-rule="evenodd" d="M30 55C43.8071 55 55 43.8071 55 30C55 16.1929 43.8071 5 30 5C16.1929 5 5 16.1929 5 30C5 43.8071 16.1929 55 30 55Z" fill="#20B5D8"/>
<path fill-rule="evenodd" clip-rule="evenodd" d="M5.0307 31.25C5.682 18.0236 16.612 7.5 30 7.5C43.388 7.5 54.318 18.0236 54.9693 31.25C54.9897 30.8359 55 30.4192 55 30C55 16.1929 43.8071 5 30 5C16.1929 5 5 16.1929 5 30C5 30.4192 5.0103 30.8359 5.0307 31.25Z" fill="#128BCD"/>
<path fill-rule="evenodd" clip-rule="evenodd" d="M35.6814 15.1426L30.4567 12.126C30.1084 11.925 29.6794 11.925 29.3311 12.126L24.1064 15.1426C23.8452 15.2933 23.6843 15.572 23.6843 15.8736V22.0644C23.6843 22.3685 23.8478 22.6491 24.1124 22.799L29.3392 25.7596C29.6833 25.9545 30.1045 25.9545 30.4486 25.7596L35.6754 22.799C35.94 22.6491 36.1035 22.3685 36.1035 22.0644V15.8736C36.1035 15.572 35.9426 15.2933 35.6814 15.1426ZM30.9182 13.8498C30.9182 14.1326 30.4596 14.3619 29.8939 14.3619C29.3282 14.3619 28.8696 14.1326 28.8696 13.8498C28.8696 13.5669 29.3282 13.3376 29.8939 13.3376C30.4596 13.3376 30.9182 13.5669 30.9182 13.8498ZM29.8939 15.8984C30.4596 15.8984 30.9182 15.6691 30.9182 15.3862C30.9182 15.1034 30.4596 14.8741 29.8939 14.8741C29.3282 14.8741 28.8696 15.1034 28.8696 15.3862C28.8696 15.6691 29.3282 15.8984 29.8939 15.8984ZM30.9182 16.9227C30.9182 17.2056 30.4596 17.4349 29.8939 17.4349C29.3282 17.4349 28.8696 17.2056 28.8696 16.9227C28.8696 16.6399 29.3282 16.4106 29.8939 16.4106C30.4596 16.4106 30.9182 16.6399 30.9182 16.9227ZM32.9669 15.8984C33.5326 15.8984 33.9912 15.6691 33.9912 15.3862C33.9912 15.1034 33.5326 14.8741 32.9669 14.8741C32.4011 14.8741 31.9425 15.1034 31.9425 15.3862C31.9425 15.6691 32.4011 15.8984 32.9669 15.8984ZM27.8453 15.3862C27.8453 15.6691 27.3867 15.8984 26.821 15.8984C26.2552 15.8984 25.7966 15.6691 25.7966 15.3862C25.7966 15.1034 26.2552 14.8741 26.821 14.8741C27.3867 14.8741 27.8453 15.1034 27.8453 15.3862ZM32.926 20.5686C32.845 21.25 33.027 21.7621 33.3324 21.7123C33.6379 21.6626 33.946 21.1324 34.0208 20.5281C34.0955 19.9238 33.9136 19.4117 33.6144 19.3843C33.3151 19.3569 33.007 19.8871 32.926 20.5686ZM25.2099 20.2543C24.8957 20.2882 24.6216 19.9049 24.5974 19.3981C24.5733 18.8913 24.7956 18.445 25.0942 18.4014C25.3932 18.3578 25.6683 18.7411 25.708 19.2575C25.7475 19.7741 25.5243 20.2204 25.2099 20.2543ZM25.8146 20.6611C25.8534 21.1784 26.1484 21.5768 26.474 21.5509C26.7998 21.525 27.0216 21.0761 26.9688 20.5485C26.9154 20.0214 26.6189 19.6236 26.3073 19.6597C25.996 19.6958 25.7756 20.1441 25.8146 20.6611ZM27.8107 22.9078C27.475 22.9256 27.162 22.511 27.1108 21.9823C27.059 21.454 27.2781 21.0031 27.6009 20.9748C27.9238 20.9465 28.2388 21.3599 28.3036 21.8986C28.3673 22.438 28.1463 22.89 27.8107 22.9078ZM30.2011 18.4716C30.0547 18.539 29.8863 18.5404 29.7388 18.4753L26.784 17.1725C26.7083 17.1391 26.6196 17.1688 26.5792 17.241C26.5359 17.3183 26.5636 17.4161 26.6409 17.4593L29.3289 18.9627C29.4963 19.0563 29.6045 19.2287 29.616 19.4201L29.8066 22.5957C29.8124 22.691 29.889 22.7667 29.9843 22.7712C30.0874 22.776 30.1749 22.6964 30.1798 22.5933L30.3297 19.4178C30.3387 19.2276 30.4432 19.0549 30.6076 18.9587L33.1695 17.4593C33.2409 17.4175 33.269 17.3283 33.2344 17.2531C33.1973 17.1724 33.1017 17.137 33.0209 17.1742L30.2011 18.4716ZM22.4502 41.2778L27.3575 30.6205C27.3941 30.541 27.45 30.4735 27.5189 30.4233C27.5687 30.3672 27.6318 30.3215 27.7059 30.2912C27.7358 30.279 27.7668 30.2697 27.7985 30.2634C28.5314 30.1179 29.2272 30.0451 29.8859 30.0451C29.9289 30.0451 29.9721 30.0454 30.0155 30.046C30.0588 30.0454 30.102 30.0451 30.1451 30.0451C30.8038 30.0451 31.4996 30.1179 32.2325 30.2634C32.2642 30.2697 32.2952 30.279 32.3251 30.2912C32.3992 30.3215 32.4623 30.3672 32.5121 30.4233C32.5809 30.4735 32.6369 30.541 32.6735 30.6205L37.5808 41.2778L40.7391 26.1338C40.7791 25.9419 40.9262 25.7904 41.1168 25.7447C41.8474 25.5694 42.9355 25.4817 44.3809 25.4817C45.6239 25.4817 46.5365 25.5465 47.1188 25.6761C47.3915 25.7369 47.5636 26.007 47.5033 26.2798L43.0911 46.2525C43.0032 46.6504 42.6854 46.9569 42.2845 47.0303C40.9552 47.2739 39.6259 47.3455 38.2966 47.2452C37.2321 47.1649 36.1676 46.9744 35.1031 46.6736C34.2023 46.419 33.4691 45.7635 33.1156 44.8967L30.0155 37.2955L26.9154 44.8967C26.5619 45.7635 25.8287 46.419 24.9278 46.6736C23.8634 46.9744 22.7989 47.1649 21.7344 47.2452C20.4051 47.3455 19.0758 47.2739 17.7464 47.0303C17.3456 46.9569 17.0278 46.6504 16.9399 46.2525L12.5277 26.2798C12.4674 26.007 12.6394 25.7369 12.9122 25.6762C13.4944 25.5465 14.407 25.4817 15.65 25.4817C17.0955 25.4817 18.1835 25.5694 18.9141 25.7447C19.1047 25.7904 19.2518 25.9419 19.2918 26.1338L22.4502 41.2778Z" fill="#128BCD"/>
<path fill-rule="evenodd" clip-rule="evenodd" d="M35.6814 12.6426L30.4567 9.626C30.1084 9.425 29.6794 9.425 29.3311 9.626L24.1064 12.6426C23.8452 12.7933 23.6843 13.072 23.6843 13.3736V19.5644C23.6843 19.8685 23.8478 20.1491 24.1124 20.299L29.3392 23.2596C29.6833 23.4545 30.1045 23.4545 30.4486 23.2596L35.6754 20.299C35.94 20.1491 36.1035 19.8685 36.1035 19.5644V13.3736C36.1035 13.072 35.9426 12.7933 35.6814 12.6426ZM30.9182 11.3498C30.9182 11.6326 30.4596 11.8619 29.8939 11.8619C29.3282 11.8619 28.8696 11.6326 28.8696 11.3498C28.8696 11.0669 29.3282 10.8376 29.8939 10.8376C30.4596 10.8376 30.9182 11.0669 30.9182 11.3498ZM29.8939 13.3984C30.4596 13.3984 30.9182 13.1691 30.9182 12.8862C30.9182 12.6034 30.4596 12.3741 29.8939 12.3741C29.3282 12.3741 28.8696 12.6034 28.8696 12.8862C28.8696 13.1691 29.3282 13.3984 29.8939 13.3984ZM30.9182 14.4227C30.9182 14.7056 30.4596 14.9349 29.8939 14.9349C29.3282 14.9349 28.8696 14.7056 28.8696 14.4227C28.8696 14.1399 29.3282 13.9106 29.8939 13.9106C30.4596 13.9106 30.9182 14.1399 30.9182 14.4227ZM32.9669 13.3984C33.5326 13.3984 33.9912 13.1691 33.9912 12.8862C33.9912 12.6034 33.5326 12.3741 32.9669 12.3741C32.4011 12.3741 31.9425 12.6034 31.9425 12.8862C31.9425 13.1691 32.4011 13.3984 32.9669 13.3984ZM27.8453 12.8862C27.8453 13.1691 27.3867 13.3984 26.821 13.3984C26.2552 13.3984 25.7966 13.1691 25.7966 12.8862C25.7966 12.6034 26.2552 12.3741 26.821 12.3741C27.3867 12.3741 27.8453 12.6034 27.8453 12.8862ZM32.926 18.0686C32.845 18.75 33.027 19.2621 33.3324 19.2123C33.6379 19.1626 33.946 18.6324 34.0208 18.0281C34.0955 17.4238 33.9136 16.9117 33.6144 16.8843C33.3151 16.8569 33.007 17.3871 32.926 18.0686ZM25.2099 17.7543C24.8957 17.7882 24.6216 17.4049 24.5974 16.8981C24.5733 16.3913 24.7956 15.945 25.0942 15.9014C25.3932 15.8578 25.6683 16.2411 25.708 16.7575C25.7475 17.2741 25.5243 17.7204 25.2099 17.7543ZM25.8146 18.1611C25.8534 18.6784 26.1484 19.0768 26.474 19.0509C26.7998 19.025 27.0216 18.5761 26.9688 18.0485C26.9154 17.5214 26.6189 17.1236 26.3073 17.1597C25.996 17.1958 25.7756 17.6441 25.8146 18.1611ZM27.8107 20.4078C27.475 20.4256 27.162 20.011 27.1108 19.4823C27.059 18.954 27.2781 18.5031 27.6009 18.4748C27.9238 18.4465 28.2388 18.8599 28.3036 19.3986C28.3673 19.938 28.1463 20.39 27.8107 20.4078ZM30.2011 15.9716C30.0547 16.039 29.8863 16.0404 29.7388 15.9753L26.784 14.6725C26.7083 14.6391 26.6196 14.6688 26.5792 14.741C26.5359 14.8183 26.5636 14.9161 26.6409 14.9593L29.3289 16.4627C29.4963 16.5563 29.6045 16.7287 29.616 16.9201L29.8066 20.0957C29.8124 20.191 29.889 20.2667 29.9843 20.2712C30.0874 20.276 30.1749 20.1964 30.1798 20.0933L30.3297 16.9178C30.3387 16.7276 30.4432 16.5549 30.6076 16.4587L33.1695 14.9593C33.2409 14.9175 33.269 14.8283 33.2344 14.7531C33.1973 14.6724 33.1017 14.637 33.0209 14.6742L30.2011 15.9716ZM22.4502 38.7778L27.3575 28.1205C27.3941 28.041 27.45 27.9735 27.5189 27.9233C27.5687 27.8672 27.6318 27.8215 27.7059 27.7912C27.7358 27.779 27.7668 27.7697 27.7985 27.7634C28.5314 27.6179 29.2272 27.5451 29.8859 27.5451C29.9289 27.5451 29.9721 27.5454 30.0155 27.546C30.0588 27.5454 30.102 27.5451 30.1451 27.5451C30.8038 27.5451 31.4996 27.6179 32.2325 27.7634C32.2642 27.7697 32.2952 27.779 32.3251 27.7912C32.3992 27.8215 32.4623 27.8672 32.5121 27.9233C32.5809 27.9735 32.6369 28.041 32.6735 28.1205L37.5808 38.7778L40.7391 23.6338C40.7791 23.4419 40.9262 23.2904 41.1168 23.2447C41.8474 23.0694 42.9355 22.9817 44.3809 22.9817C45.6239 22.9817 46.5365 23.0465 47.1188 23.1761C47.3915 23.2369 47.5636 23.507 47.5033 23.7798L43.0911 43.7525C43.0032 44.1504 42.6854 44.4569 42.2845 44.5303C40.9552 44.7739 39.6259 44.8455 38.2966 44.7452C37.2321 44.6649 36.1676 44.4744 35.1031 44.1736C34.2023 43.919 33.4691 43.2635 33.1156 42.3967L30.0155 34.7955L26.9154 42.3967C26.5619 43.2635 25.8287 43.919 24.9278 44.1736C23.8634 44.4744 22.7989 44.6649 21.7344 44.7452C20.4051 44.8455 19.0758 44.7739 17.7464 44.5303C17.3456 44.4569 17.0278 44.1504 16.9399 43.7525L12.5277 23.7798C12.4674 23.507 12.6394 23.2369 12.9122 23.1762C13.4944 23.0465 14.407 22.9817 15.65 22.9817C17.0955 22.9817 18.1835 23.0694 18.9141 23.2447C19.1047 23.2904 19.2518 23.4419 19.2918 23.6338L22.4502 38.7778Z" fill="#30DEFA"/>
<path fill-rule="evenodd" clip-rule="evenodd" d="M44.9955 22.9875C44.8005 22.9837 44.5957 22.9817 44.3809 22.9817C42.9355 22.9817 41.8474 23.0694 41.1168 23.2447C40.9262 23.2904 40.7791 23.4419 40.7391 23.6338L37.5808 38.7778L32.6735 28.1205C32.6369 28.041 32.5809 27.9735 32.5121 27.9233C32.4623 27.8672 32.3992 27.8215 32.3251 27.7912C32.2952 27.779 32.2642 27.7697 32.2325 27.7634C31.4996 27.6179 30.8038 27.5451 30.1451 27.5451C30.102 27.5451 30.0588 27.5454 30.0155 27.546C29.9721 27.5454 29.9289 27.5451 29.8859 27.5451C29.2272 27.5451 28.5314 27.6179 27.7985 27.7634C27.7668 27.7697 27.7358 27.779 27.7059 27.7912C27.6318 27.8215 27.5687 27.8672 27.5189 27.9233C27.45 27.9735 27.3941 28.041 27.3575 28.1205L22.4502 38.7778L19.2918 23.6338C19.2518 23.4419 19.1047 23.2904 18.9141 23.2447C18.1835 23.0694 17.0955 22.9817 15.65 22.9817C14.407 22.9817 13.4944 23.0465 12.9122 23.1762C12.6394 23.2369 12.4674 23.507 12.5277 23.7798L16.9399 43.7525C17.0278 44.1504 17.3456 44.4569 17.7464 44.5303C19.0758 44.7739 20.4051 44.8455 21.7344 44.7452C22.7989 44.6649 23.8634 44.4744 24.9278 44.1736C25.8287 43.919 26.5619 43.2635 26.9154 42.3967L30.0155 34.7955L33.1156 42.3967C33.4691 43.2635 34.2023 43.919 35.1031 44.1736C35.2695 44.2206 35.4359 44.2649 35.6023 44.3065C41.2791 38.9412 44.8617 31.3833 44.9955 22.9875ZM30.4567 9.626L35.6814 12.6426C35.9426 12.7933 36.1035 13.072 36.1035 13.3736V19.5644C36.1035 19.8685 35.94 20.1491 35.6754 20.299L30.4486 23.2596C30.1045 23.4545 29.6833 23.4545 29.3392 23.2596L24.1124 20.299C23.8478 20.1491 23.6843 19.8685 23.6843 19.5644V13.3736C23.6843 13.072 23.8452 12.7933 24.1064 12.6426L29.3311 9.626C29.6794 9.425 30.1084 9.425 30.4567 9.626ZM29.8939 11.8619C30.4596 11.8619 30.9182 11.6326 30.9182 11.3498C30.9182 11.0669 30.4596 10.8376 29.8939 10.8376C29.3282 10.8376 28.8696 11.0669 28.8696 11.3498C28.8696 11.6326 29.3282 11.8619 29.8939 11.8619ZM30.9182 12.8862C30.9182 13.1691 30.4596 13.3984 29.8939 13.3984C29.3282 13.3984 28.8696 13.1691 28.8696 12.8862C28.8696 12.6034 29.3282 12.3741 29.8939 12.3741C30.4596 12.3741 30.9182 12.6034 30.9182 12.8862ZM29.8939 14.9349C30.4596 14.9349 30.9182 14.7056 30.9182 14.4227C30.9182 14.1399 30.4596 13.9106 29.8939 13.9106C29.3282 13.9106 28.8696 14.1399 28.8696 14.4227C28.8696 14.7056 29.3282 14.9349 29.8939 14.9349ZM33.9912 12.8862C33.9912 13.1691 33.5326 13.3984 32.9669 13.3984C32.4011 13.3984 31.9425 13.1691 31.9425 12.8862C31.9425 12.6034 32.4011 12.3741 32.9669 12.3741C33.5326 12.3741 33.9912 12.6034 33.9912 12.8862ZM26.821 13.3984C27.3867 13.3984 27.8453 13.1691 27.8453 12.8862C27.8453 12.6034 27.3867 12.3741 26.821 12.3741C26.2552 12.3741 25.7966 12.6034 25.7966 12.8862C25.7966 13.1691 26.2552 13.3984 26.821 13.3984ZM33.3324 19.2123C33.027 19.2621 32.845 18.75 32.926 18.0686C33.007 17.3871 33.3151 16.8569 33.6144 16.8843C33.9136 16.9117 34.0955 17.4238 34.0208 18.0281C33.946 18.6324 33.6379 19.1626 33.3324 19.2123ZM24.5974 16.8981C24.6216 17.4049 24.8957 17.7882 25.2099 17.7543C25.5243 17.7204 25.7475 17.2741 25.708 16.7575C25.6683 16.2411 25.3932 15.8578 25.0942 15.9014C24.7956 15.945 24.5733 16.3913 24.5974 16.8981ZM26.474 19.0509C26.1484 19.0768 25.8534 18.6784 25.8146 18.1611C25.7756 17.6441 25.996 17.1958 26.3073 17.1597C26.6189 17.1236 26.9154 17.5214 26.9688 18.0485C27.0216 18.5761 26.7998 19.025 26.474 19.0509ZM27.1108 19.4823C27.162 20.011 27.475 20.4256 27.8107 20.4078C28.1463 20.39 28.3673 19.938 28.3036 19.3986C28.2388 18.8599 27.9238 18.4465 27.6009 18.4748C27.2781 18.5031 27.059 18.954 27.1108 19.4823ZM29.7388 15.9753C29.8863 16.0404 30.0547 16.039 30.2011 15.9716L33.0209 14.6742C33.1017 14.637 33.1973 14.6724 33.2344 14.7531C33.269 14.8283 33.2409 14.9175 33.1695 14.9593L30.6076 16.4587C30.4432 16.5549 30.3387 16.7276 30.3297 16.9178L30.1798 20.0933C30.1749 20.1964 30.0874 20.276 29.9843 20.2712C29.889 20.2667 29.8124 20.191 29.8066 20.0957L29.616 16.9201C29.6045 16.7287 29.4963 16.5563 29.3289 16.4627L26.6409 14.9593C26.5636 14.9161 26.5359 14.8183 26.5792 14.741C26.6196 14.6688 26.7083 14.6391 26.784 14.6725L29.7388 15.9753Z" fill="#6CEEFF"/>
<path fill-rule="evenodd" clip-rule="evenodd" d="M13.5587 13.6469C13.466 13.3028 13.1972 13.034 12.8531 12.9413L7.85859 11.5966C7.75999 11.57 7.75999 11.43 7.85859 11.4034L12.8531 10.0587C13.1972 9.966 13.466 9.6972 13.5587 9.3531L14.9034 4.3586C14.93 4.26 15.07 4.26 15.0966 4.3586L16.4413 9.3531C16.534 9.6972 16.8028 9.966 17.1469 10.0587L22.1414 11.4034C22.24 11.43 22.24 11.57 22.1414 11.5966L17.1469 12.9413C16.8028 13.034 16.534 13.3028 16.4413 13.6469L15.0966 18.6414C15.07 18.74 14.93 18.74 14.9034 18.6414L13.5587 13.6469Z" fill="white"/>
</svg>
