<?xml version="1.0" encoding="UTF-8"?>
<svg width="80px" height="80px" viewBox="0 0 80 80" version="1.1" xmlns="http://www.w3.org/2000/svg" xmlns:xlink="http://www.w3.org/1999/xlink">
    <!-- Generator: Sketch 55 (78076) - https://sketchapp.com -->
    <title>Leftbar/Profit_3</title>
    <desc>Created with Sketch.</desc>
    <g id="Leftbar/Profit_3" stroke="none" stroke-width="1" fill="none" fill-rule="evenodd">
        <path d="M36.0073319,53.3035181 C35.5133534,53.0565289 35.313129,52.4558558 35.5601183,51.9618773 C35.8071075,51.4678988 36.4077806,51.2676745 36.9017591,51.5146637 C37.5258326,51.8267005 38.5656297,52 40,52 C46.627417,52 52,46.627417 52,40 C52,33.372583 46.627417,28 40,28 C33.372583,28 28,33.372583 28,40 C28,41.2271046 28.1838866,42.4282793 28.5413216,43.5751935 C28.7056456,44.1024658 28.4114179,44.6631154 27.8841456,44.8274394 C27.3568734,44.9917634 26.7962238,44.6975357 26.6318997,44.1702635 C26.2145956,42.831245 26,41.4294744 26,40 C26,32.2680135 32.2680135,26 40,26 C47.7319865,26 54,32.2680135 54,40 C54,47.7319865 47.7319865,54 40,54 C38.2828552,54 36.9590159,53.7793601 36.0073319,53.3035181 Z M32.3413405,51.4595239 C31.0535893,50.5713794 29.9229158,49.4999881 28.9944586,48.2868726 C28.658795,47.8482971 28.7422217,47.2206524 29.1807972,46.8849889 C29.6193727,46.5493254 30.2470174,46.632752 30.5826809,47.0713275 C31.3828379,48.1168068 32.3604522,49.043164 33.4768413,49.8131224 C33.9314825,50.1266823 34.0458516,50.7494324 33.7322917,51.2040736 C33.4187318,51.6587148 32.7959817,51.7730838 32.3413405,51.4595239 Z M39.1853578,41.1194782 C39.1535781,41.1048448 39.1265834,41.0824633 39.1064766,41.0549287 C39.0840688,41.0349981 39.0657588,41.009765 39.0536692,40.9801219 C39.0487906,40.9681597 39.0450672,40.9557583 39.0425501,40.943087 C38.984313,40.6499171 38.9551944,40.3715919 38.9551944,40.1081112 C38.9551944,40.0908965 38.9553187,40.0736185 38.9555673,40.0562771 C38.9553187,40.0389356 38.9551944,40.0216576 38.9551944,40.0044429 C38.9551944,39.7409622 38.984313,39.462637 39.0425501,39.1694671 C39.0450672,39.1567959 39.0487906,39.1443944 39.0536692,39.1324322 C39.0657588,39.1027891 39.0840688,39.077556 39.1064766,39.0576254 C39.1265834,39.0300908 39.1535781,39.0077093 39.1853578,38.9930759 L43.4483002,37.0301511 L37.3906799,35.7668145 C37.3139401,35.7508101 37.2533194,35.6919716 37.235033,35.6157434 C37.1649244,35.3234914 37.1298701,34.8882748 37.1298701,34.3100934 C37.1298701,33.8128994 37.1557919,33.447854 37.2076324,33.2149564 C37.2319174,33.105861 37.3399613,33.0370385 37.4490957,33.0611477 L45.4381536,34.8260309 C45.5973276,34.8611944 45.7199308,34.9883202 45.7493078,35.148663 C45.8467267,35.6803851 45.8753783,36.2121072 45.8352627,36.7438293 C45.8031384,37.1696278 45.726916,37.5954263 45.6065954,38.0212249 C45.5047771,38.3815516 45.2425799,38.6748469 44.8958697,38.8162485 L41.85538,40.0562771 L44.8958697,41.2963056 C45.2425799,41.4377072 45.5047771,41.7310025 45.6065954,42.0913293 C45.726916,42.5171278 45.8031384,42.9429263 45.8352627,43.3687248 C45.8753783,43.9004469 45.8467267,44.432169 45.7493078,44.9638911 C45.7199308,45.1242339 45.5973276,45.2513597 45.4381536,45.2865232 L37.4490957,47.0514064 C37.3399613,47.0755156 37.2319174,47.0066931 37.2076354,46.897597 C37.1557919,46.6647002 37.1298701,46.2996547 37.1298701,45.8024607 C37.1298701,45.2242793 37.1649244,44.7890627 37.235033,44.4968107 C37.2533194,44.4205825 37.3139401,44.361744 37.3906799,44.3457396 L43.4483002,43.082403 L39.1853578,41.1194782 Z M31.7875903,39.8797985 L32.9941938,37.7899 C33.0545113,37.6854269 33.1659828,37.6210688 33.2866179,37.6210688 L35.7629516,37.6210688 C35.8845798,37.6210688 35.9968094,37.6864816 36.0567548,37.7923114 L37.2409965,39.8830138 C37.3189682,40.0206678 37.3189682,40.1891455 37.2409965,40.3267996 L36.0567548,42.4175019 C35.9968094,42.5233318 35.8845798,42.5887446 35.7629516,42.5887446 L33.2866179,42.5887446 C33.1659828,42.5887446 33.0545113,42.5243865 32.9941938,42.4199134 L31.7875903,40.3300149 C31.7071669,40.1907175 31.7071669,40.0190959 31.7875903,39.8797985 Z M32.6819415,40.1049067 C32.6819415,39.8786207 32.590221,39.6951797 32.477078,39.6951797 C32.363935,39.6951797 32.2722145,39.8786207 32.2722145,40.1049067 C32.2722145,40.3311927 32.363935,40.5146337 32.477078,40.5146337 C32.590221,40.5146337 32.6819415,40.3311927 32.6819415,40.1049067 Z M33.296532,40.1049067 C33.296532,39.8786207 33.2048115,39.6951797 33.0916685,39.6951797 C32.9785255,39.6951797 32.886805,39.8786207 32.886805,40.1049067 C32.886805,40.3311927 32.9785255,40.5146337 33.0916685,40.5146337 C33.2048115,40.5146337 33.296532,40.3311927 33.296532,40.1049067 Z M33.9111225,40.1049067 C33.9111225,39.8786207 33.819402,39.6951797 33.706259,39.6951797 C33.593116,39.6951797 33.5013955,39.8786207 33.5013955,40.1049067 C33.5013955,40.3311927 33.593116,40.5146337 33.706259,40.5146337 C33.819402,40.5146337 33.9111225,40.3311927 33.9111225,40.1049067 Z M33.296532,38.8757257 C33.296532,38.6494397 33.2048115,38.4659987 33.0916685,38.4659987 C32.9785255,38.4659987 32.886805,38.6494397 32.886805,38.8757257 C32.886805,39.1020117 32.9785255,39.2854527 33.0916685,39.2854527 C33.2048115,39.2854527 33.296532,39.1020117 33.296532,38.8757257 Z M33.296532,41.3340877 C33.296532,41.1078017 33.2048115,40.9243607 33.0916685,40.9243607 C32.9785255,40.9243607 32.886805,41.1078017 32.886805,41.3340877 C32.886805,41.5603736 32.9785255,41.7438147 33.0916685,41.7438147 C33.2048115,41.7438147 33.296532,41.5603736 33.296532,41.3340877 Z M35.1645957,38.8920704 C35.4371647,38.924452 35.6419937,38.8516642 35.6220939,38.7294942 C35.6021941,38.6073243 35.3901145,38.4840493 35.1484009,38.4541519 C34.9066872,38.4242545 34.7018583,38.4970423 34.6909027,38.6167281 C34.6799471,38.7364139 34.8920267,38.8596889 35.1645957,38.8920704 Z M34.6964187,42.2235081 C34.8991351,42.2138477 35.0524486,42.1041988 35.0388801,41.9785207 C35.025341,41.8527542 34.8467996,41.763456 34.640153,41.77925 C34.4335984,41.7951563 34.2803108,41.9051826 34.2977289,42.0247803 C34.3151868,42.1442476 34.4937022,42.2331684 34.6964187,42.2235081 Z M35.2016171,41.7366158 C35.4085128,41.7211276 35.5678838,41.6031028 35.5575152,41.4728534 C35.5471646,41.3425546 35.3675989,41.2538343 35.1565864,41.2749534 C34.9457495,41.2963117 34.7866234,41.4149106 34.8010404,41.5395419 C34.8154921,41.6640707 34.994813,41.7522167 35.2016171,41.7366158 Z M35.7301023,41.2181539 C35.9415892,41.1976883 36.1074008,41.0724504 36.1002956,40.9382083 C36.0931904,40.8039663 35.9123563,40.715537 35.6966152,40.7410451 C35.4811226,40.7669376 35.3157653,40.8929625 35.3270753,41.0221233 C35.3384094,41.1512187 35.5187895,41.2388607 35.7301023,41.2181539 Z M34.3258297,39.9820218 C34.3527845,40.0406032 34.353322,40.1079315 34.3273058,40.1669357 L33.8061612,41.348881 C33.7928088,41.379164 33.8046733,41.4146347 33.8335588,41.4307896 C33.8644952,41.4480916 33.9036001,41.4370387 33.9209021,41.4061023 L34.5222337,40.3309048 C34.5596777,40.2639538 34.6286381,40.2206792 34.7052106,40.2160815 L35.9754595,40.1398112 C36.0135734,40.1375227 36.0438334,40.1068729 36.0456339,40.0687329 C36.0475803,40.0275027 36.0157346,39.9925012 35.9745044,39.9905548 L34.7043089,39.9305912 C34.6282237,39.9269993 34.5591156,39.885175 34.5206421,39.8194358 L33.9209021,38.7946673 C33.9041769,38.7660893 33.8685024,38.754857 33.8384215,38.7686981 C33.8061183,38.7835616 33.7919807,38.8217977 33.8068442,38.8541009 L34.3258297,39.9820218 Z" id="Combined-Shape" fill="#3A4D69" fill-rule="nonzero" transform="translate(40.000000, 40.000000) rotate(-270.000000) translate(-40.000000, -40.000000) "></path>
        <g transform="translate(30.500000, 31.363636) rotate(-270.000000) translate(-30.500000, -31.363636) translate(28.500000, 29.363636)"></g>
    </g>
</svg>