<?xml version="1.0" encoding="UTF-8"?>
<svg width="26px" height="26px" viewBox="0 0 26 26" version="1.1" xmlns="http://www.w3.org/2000/svg" xmlns:xlink="http://www.w3.org/1999/xlink">
    <!-- Generator: Sketch 55 (78076) - https://sketchapp.com -->
    <title>Leftbar/Rate_4</title>
    <desc>Created with Sketch.</desc>
    <g id="Symbols" stroke="none" stroke-width="1" fill="none" fill-rule="evenodd" stroke-linecap="round" stroke-linejoin="round">
        <g id="Leftbar/Rate_4" transform="translate(-27.000000, -27.000000)" stroke="#3A4D69" stroke-width="2">
            <path d="M42.9801918,50.9309651 L39.9998452,49.0698207 L35.1666004,51.7144482 C34.0010594,52.3522024 32.5594606,51.8858082 31.9466994,50.6727278 C31.7026947,50.1896727 31.6184947,49.6363717 31.7071346,49.098482 L32.6302022,43.4970712 L28.7200251,39.53013 C27.7770826,38.5734988 27.7577883,37.0024119 28.6769301,36.0210092 C29.0429371,35.6302094 29.5225164,35.3758849 30.0414234,35.2974078 L32.4166118,34.9381956 L35.4451554,34.480173 L37.8617777,29.383841 C38.4445483,28.1548563 39.8742225,27.6502653 41.0550446,28.2568056 C41.5252541,28.4983331 41.9058504,28.8944529 42.1379127,29.383841 L44.554535,34.480173 L49.9582669,35.2974078 C51.2613814,35.4944847 52.164263,36.7537172 51.9749094,38.1099824 C51.8995078,38.6500543 51.6551499,39.1491944 51.2796653,39.53013 L47.3694882,43.4970712 L48.2925558,49.098482 C48.5151543,50.449267 47.6434915,51.7321065 46.3456425,51.9637842"></path>
        </g>
    </g>
</svg>