<?xml version="1.0" encoding="UTF-8"?>
<svg width="29px" height="28px" viewBox="0 0 29 28" version="1.1" xmlns="http://www.w3.org/2000/svg" xmlns:xlink="http://www.w3.org/1999/xlink">
    <!-- Generator: Sketch 55 (78076) - https://sketchapp.com -->
    <title>Leftbar/Tickets_2</title>
    <desc>Created with Sketch.</desc>
    <g id="Symbols" stroke="none" stroke-width="1" fill="none" fill-rule="evenodd">
        <g id="Leftbar/Tickets_2" transform="translate(-26.000000, -24.000000)" fill="#3A4D69" fill-rule="nonzero">
            <g transform="translate(26.000000, 24.000000)" id="Combined-Shape">
                <path d="M0,14 C0,13.4477153 0.44771525,13 1,13 C1.55228475,13 2,13.4477153 2,14 L2,20.1449393 C3.12888977,20.4809134 4.01908664,21.3711102 4.35506066,22.5 L5.14493934,22.5 C5.22259166,22.2390843 5.32985012,21.9909193 5.46281902,21.7594009 L4.30240802,20.5989899 C3.91188373,20.2084656 3.91188373,19.5753006 4.30240802,19.1847763 C4.88819446,18.5989899 4.88819446,17.6492424 4.30240802,17.063456 C3.91188373,16.6729317 3.91188373,16.0397667 4.30240802,15.6492424 L15,4.95165043 L15,4.35506066 C13.8711102,4.01908664 12.9809134,3.12888977 12.6449393,2 L11.8550607,2 C11.4247861,3.44574447 10.0855103,4.5 8.5,4.5 C6.91448968,4.5 5.57521393,3.44574447 5.14493934,2 L4.35506066,2 C4.01908664,3.12888977 3.12888977,4.01908664 2,4.35506066 L2,6 C2,6.55228475 1.55228475,7 1,7 C0.44771525,7 1.39177858e-15,6.55228475 3.24488772e-30,6 L2.1431319e-15,3.5 C2.27840265e-15,2.94771525 0.44771525,2.5 1,2.5 C1.82842712,2.5 2.5,1.82842712 2.5,1 C2.5,0.44771525 2.94771525,-1.05437483e-15 3.5,-9.1910408e-16 L6,-3.0678068e-16 C6.55228475,-1.7150993e-16 7,0.44771525 7,1 C7,1.82842712 7.67157288,2.5 8.5,2.5 C9.32842712,2.5 10,1.82842712 10,1 C10,0.44771525 10.4477153,7.82595369e-16 11,9.17866119e-16 L13.5,1.53018952e-15 C14.0522847,1.66546027e-15 14.5,0.44771525 14.5,1 C14.5,1.82842712 15.1715729,2.5 16,2.5 C16.4092688,2.5 16.7611133,2.74586295 16.9158915,3.09794705 C17.2937187,2.89777059 17.7728627,2.95674615 18.0909903,3.27487373 C18.6767767,3.86066017 19.6265242,3.86066017 20.2123106,3.27487373 C20.6028349,2.88434944 21.2359999,2.88434944 21.6265242,3.27487373 L23.3942911,5.04264069 C23.7848154,5.43316498 23.7848154,6.06632996 23.3942911,6.45685425 C22.8085047,7.04264069 22.8085047,7.99238816 23.3942911,8.57817459 C23.9800776,9.16396103 24.929825,9.16396103 25.5156115,8.57817459 C25.9061358,8.1876503 26.5393007,8.1876503 26.929825,8.57817459 L28.697592,10.3459415 C29.0881163,10.7364658 29.0881163,11.3696308 28.697592,11.7601551 C28.1118055,12.3459415 28.1118055,13.295689 28.697592,13.8814755 C29.0881163,14.2719997 29.0881163,14.9051647 28.697592,15.295689 L16.3232233,27.6700577 C15.932699,28.060582 15.299534,28.060582 14.9090097,27.6700577 C14.3232233,27.0842712 13.3734758,27.0842712 12.7876894,27.6700577 C12.3971651,28.060582 11.7640001,28.060582 11.3734758,27.6700577 L9.60570888,25.9022907 C9.21518459,25.5117664 9.21518459,24.8786015 9.60570888,24.4880772 C9.82882594,24.2649601 9.96696113,23.9890421 10.0201145,23.7005453 C10.0069248,23.6357543 10,23.5686858 10,23.5 C10,22.6715729 9.32842712,22 8.5,22 C7.67157288,22 7,22.6715729 7,23.5 C7,24.0522847 6.55228475,24.5 6,24.5 L3.5,24.5 C2.94771525,24.5 2.5,24.0522847 2.5,23.5 C2.5,22.6715729 1.82842712,22 1,22 C0.44771525,22 -2.27840265e-15,21.5522847 -2.1431319e-15,21 L-4.2862638e-16,14 Z M20.8169298,5.36527936 C19.7811147,5.92595546 18.5221862,5.92595546 17.4863711,5.36527936 L6.32124078,16.5304097 C6.88191688,17.5662248 6.88191688,18.8251533 6.32124078,19.8609684 L6.87976935,20.4194969 C8.20631515,19.7014513 9.89879735,19.902991 11.0199224,21.0241161 C12.1410475,22.1452412 12.3425873,23.8377234 11.6245416,25.1642692 L12.1830702,25.7227978 C13.2188853,25.1621217 14.4778138,25.1621217 15.5136289,25.7227978 L26.6787592,14.5576675 C26.1180831,13.5218524 26.1180831,12.2629239 26.6787592,11.2271088 L26.1202307,10.6685802 C24.7936848,11.3866259 23.1012027,11.1850861 21.9800776,10.063961 C20.8589525,8.94283593 20.6574127,7.25035374 21.3754584,5.92380793 L20.8169298,5.36527936 Z M3.5,8 C3.22385763,8 3,7.77614237 3,7.5 C3,7.22385763 3.22385763,7 3.5,7 C3.77614237,7 4,7.22385763 4,7.5 C4,7.77614237 3.77614237,8 3.5,8 Z M6.5,8 C6.22385763,8 6,7.77614237 6,7.5 C6,7.22385763 6.22385763,7 6.5,7 C6.77614237,7 7,7.22385763 7,7.5 C7,7.77614237 6.77614237,8 6.5,8 Z M10.5,8 C10.2238576,8 10,7.77614237 10,7.5 C10,7.22385763 10.2238576,7 10.5,7 C10.7761424,7 11,7.22385763 11,7.5 C11,7.77614237 10.7761424,8 10.5,8 Z M1,8 C1.55228475,8 2,8.44771525 2,9 L2,11 C2,11.5522847 1.55228475,12 1,12 C0.44771525,12 6.76353751e-17,11.5522847 0,11 L0,9 C-6.76353751e-17,8.44771525 0.44771525,8 1,8 Z M16.5,10 C16.2238576,10 16,9.77614237 16,9.5 C16,9.22385763 16.2238576,9 16.5,9 C16.7761424,9 17,9.22385763 17,9.5 C17,9.77614237 16.7761424,10 16.5,10 Z M18.5,12 C18.2238576,12 18,11.7761424 18,11.5 C18,11.2238576 18.2238576,11 18.5,11 C18.7761424,11 19,11.2238576 19,11.5 C19,11.7761424 18.7761424,12 18.5,12 Z M20.5,14 C20.2238576,14 20,13.7761424 20,13.5 C20,13.2238576 20.2238576,13 20.5,13 C20.7761424,13 21,13.2238576 21,13.5 C21,13.7761424 20.7761424,14 20.5,14 Z M22.5,16 C22.2238576,16 22,15.7761424 22,15.5 C22,15.2238576 22.2238576,15 22.5,15 C22.7761424,15 23,15.2238576 23,15.5 C23,15.7761424 22.7761424,16 22.5,16 Z"></path>
            </g>
        </g>
    </g>
</svg>