<svg width="220" height="230" viewBox="0 0 220 230" fill="none" xmlns="http://www.w3.org/2000/svg">
<g id="Coin_trx_silver Copy" filter="url(#filter0_d)">
<g id="Coin_winr_y">
<path id="Oval" fill-rule="evenodd" clip-rule="evenodd" d="M110 220C170.751 220 220 170.751 220 110C220 49.2487 170.751 0 110 0C49.2487 0 0 49.2487 0 110C0 170.751 49.2487 220 110 220Z" fill="#FFD000"/>
<path id="Combined Shape" fill-rule="evenodd" clip-rule="evenodd" d="M165 82.5C165 143.251 115.751 192.5 55 192.5C48.2726 192.5 41.6863 191.896 35.2923 190.74C13.5874 170.646 0 141.91 0 110C0 49.2487 49.2487 0 110 0C116.727 0 123.314 0.603914 129.708 1.76049C151.413 21.8535 165 50.59 165 82.5Z" fill="#FFE714"/>
<path id="Oval_2" fill-rule="evenodd" clip-rule="evenodd" d="M110 201.667C160.626 201.667 201.667 160.626 201.667 110C201.667 59.3738 160.626 18.3333 110 18.3333C59.3741 18.3333 18.3335 59.3738 18.3335 110C18.3335 160.626 59.3741 201.667 110 201.667Z" fill="#DF9D07"/>
<path id="Combined Shape_2" fill-rule="evenodd" clip-rule="evenodd" d="M18.4461 114.583C20.8342 66.0865 60.911 27.4999 110 27.4999C159.089 27.4999 199.166 66.0865 201.554 114.583C201.629 113.065 201.667 111.537 201.667 110C201.667 59.3738 160.626 18.3333 110 18.3333C59.3741 18.3333 18.3335 59.3738 18.3335 110C18.3335 111.537 18.3713 113.065 18.4461 114.583Z" fill="#CD8103"/>
<path id="Combined Shape_3" fill-rule="evenodd" clip-rule="evenodd" d="M130.834 55.5226L111.677 44.4621C110.4 43.7249 108.827 43.7249 107.55 44.4621L88.3925 55.5226C87.4349 56.0755 86.8449 57.0974 86.8449 58.2032V80.9029C86.8449 82.0178 87.4445 83.0466 88.4147 83.5961L107.579 94.4516C108.841 95.1664 110.386 95.1664 111.647 94.4516L130.812 83.5961C131.782 83.0466 132.382 82.0178 132.382 80.9029V58.2032C132.382 57.0974 131.792 56.0755 130.834 55.5226ZM113.369 50.7824C113.369 51.8195 111.688 52.6603 109.613 52.6603C107.539 52.6603 105.858 51.8195 105.858 50.7824C105.858 49.7453 107.539 48.9045 109.613 48.9045C111.688 48.9045 113.369 49.7453 113.369 50.7824ZM109.613 58.2941C111.688 58.2941 113.369 57.4533 113.369 56.4161C113.369 55.379 111.688 54.5382 109.613 54.5382C107.539 54.5382 105.858 55.379 105.858 56.4161C105.858 57.4533 107.539 58.2941 109.613 58.2941ZM113.369 62.0499C113.369 63.087 111.688 63.9278 109.613 63.9278C107.539 63.9278 105.858 63.087 105.858 62.0499C105.858 61.0127 107.539 60.172 109.613 60.172C111.688 60.172 113.369 61.0127 113.369 62.0499ZM120.881 58.2941C122.955 58.2941 124.637 57.4533 124.637 56.4161C124.637 55.379 122.955 54.5382 120.881 54.5382C118.807 54.5382 117.125 55.379 117.125 56.4161C117.125 57.4533 118.807 58.2941 120.881 58.2941ZM102.102 56.4161C102.102 57.4533 100.42 58.2941 98.346 58.2941C96.2717 58.2941 94.5901 57.4533 94.5901 56.4161C94.5901 55.379 96.2717 54.5382 98.346 54.5382C100.42 54.5382 102.102 55.379 102.102 56.4161ZM120.731 75.418C120.434 77.9165 121.102 79.7941 122.221 79.6117C123.341 79.4293 124.471 77.4852 124.745 75.2695C125.019 73.0538 124.352 71.1762 123.255 71.0758C122.158 70.9754 121.028 72.9194 120.731 75.418ZM92.4386 74.2656C91.2866 74.39 90.2815 72.9846 90.1929 71.1264C90.1044 69.2681 90.9195 67.6317 92.0146 67.4717C93.1109 67.312 94.1195 68.7172 94.2653 70.6106C94.4101 72.5048 93.5915 74.1415 92.4386 74.2656ZM94.6561 75.7573C94.7981 77.6539 95.88 79.1148 97.0739 79.0197C98.2684 78.9249 99.0816 77.2788 98.888 75.3446C98.6922 73.4119 97.6051 71.9532 96.4626 72.0854C95.3211 72.2179 94.5131 73.8616 94.6561 75.7573ZM101.975 83.9952C100.744 84.0604 99.5963 82.5404 99.4087 80.6018C99.2189 78.6648 100.022 77.0113 101.206 76.9074C102.39 76.8037 103.545 78.3195 103.782 80.2948C104.016 82.2724 103.205 83.9301 101.975 83.9952ZM110.74 67.7293C110.203 67.9764 109.586 67.9813 109.045 67.7428L98.2104 62.9657C97.9328 62.8433 97.6076 62.952 97.4595 63.2168C97.3009 63.5004 97.4023 63.8588 97.6858 64.0174L107.542 69.5297C108.156 69.8729 108.552 70.505 108.594 71.2069L109.294 82.8509C109.314 83.2003 109.595 83.4776 109.945 83.4942C110.323 83.512 110.644 83.2201 110.662 82.8421L111.211 71.1987C111.244 70.5012 111.628 69.8677 112.23 69.5151L121.624 64.0174C121.886 63.8641 121.989 63.5371 121.862 63.2614C121.726 62.9653 121.375 62.8357 121.079 62.9719L110.74 67.7293ZM82.3197 151.352L100.313 112.275C100.447 111.984 100.652 111.736 100.905 111.552C101.088 111.346 101.319 111.179 101.591 111.068C101.7 111.023 101.814 110.989 101.93 110.966C104.618 110.432 107.169 110.165 109.584 110.165C109.742 110.165 109.9 110.166 110.059 110.169C110.218 110.166 110.377 110.165 110.534 110.165C112.95 110.165 115.501 110.432 118.188 110.966C118.304 110.989 118.418 111.023 118.528 111.068C118.8 111.179 119.031 111.346 119.214 111.552C119.466 111.736 119.671 111.984 119.805 112.275L137.799 151.352L149.379 95.8237C149.526 95.1203 150.065 94.5646 150.764 94.397C153.443 93.7543 157.433 93.433 162.733 93.433C167.29 93.433 170.636 93.6706 172.771 94.1458C173.771 94.3684 174.402 95.3588 174.181 96.3592L158.003 169.592C157.681 171.051 156.515 172.175 155.046 172.445C150.172 173.338 145.297 173.6 140.423 173.232C136.52 172.938 132.617 172.239 128.714 171.136C125.411 170.203 122.722 167.799 121.426 164.621L110.059 136.75L98.6923 164.621C97.3961 167.799 94.7076 170.203 91.4046 171.136C87.5014 172.239 83.5983 172.938 79.6951 173.232C74.821 173.6 69.9469 173.338 65.0727 172.445C63.6029 172.175 62.4376 171.051 62.1153 169.592L45.9372 96.3592C45.7162 95.3588 46.3471 94.3684 47.3471 94.1458C49.482 93.6706 52.8282 93.433 57.3859 93.433C62.6858 93.433 66.6753 93.7543 69.3543 94.397C70.0531 94.5646 70.5924 95.1203 70.7391 95.8237L82.3197 151.352Z" fill="#CD8103"/>
<path id="Combined Shape_4" fill-rule="evenodd" clip-rule="evenodd" d="M130.834 46.3561L111.677 35.2956C110.4 34.5584 108.827 34.5584 107.55 35.2956L88.3925 46.3561C87.4349 46.909 86.8449 47.9309 86.8449 49.0367V71.7364C86.8449 72.8513 87.4445 73.8801 88.4147 74.4296L107.579 85.2851C108.841 85.9999 110.386 85.9999 111.647 85.2851L130.812 74.4296C131.782 73.8801 132.382 72.8513 132.382 71.7364V49.0367C132.382 47.9309 131.792 46.909 130.834 46.3561ZM113.369 41.6159C113.369 42.653 111.688 43.4938 109.613 43.4938C107.539 43.4938 105.858 42.653 105.858 41.6159C105.858 40.5787 107.539 39.738 109.613 39.738C111.688 39.738 113.369 40.5787 113.369 41.6159ZM109.613 49.1276C111.688 49.1276 113.369 48.2868 113.369 47.2496C113.369 46.2125 111.688 45.3717 109.613 45.3717C107.539 45.3717 105.858 46.2125 105.858 47.2496C105.858 48.2868 107.539 49.1276 109.613 49.1276ZM113.369 52.8834C113.369 53.9205 111.688 54.7613 109.613 54.7613C107.539 54.7613 105.858 53.9205 105.858 52.8834C105.858 51.8462 107.539 51.0055 109.613 51.0055C111.688 51.0055 113.369 51.8462 113.369 52.8834ZM120.881 49.1276C122.955 49.1276 124.637 48.2868 124.637 47.2496C124.637 46.2125 122.955 45.3717 120.881 45.3717C118.807 45.3717 117.125 46.2125 117.125 47.2496C117.125 48.2868 118.807 49.1276 120.881 49.1276ZM102.102 47.2496C102.102 48.2868 100.42 49.1276 98.346 49.1276C96.2717 49.1276 94.5901 48.2868 94.5901 47.2496C94.5901 46.2125 96.2717 45.3717 98.346 45.3717C100.42 45.3717 102.102 46.2125 102.102 47.2496ZM120.731 66.2515C120.434 68.75 121.102 70.6276 122.221 70.4452C123.341 70.2628 124.471 68.3187 124.745 66.103C125.019 63.8873 124.352 62.0097 123.255 61.9093C122.158 61.8089 121.028 63.7529 120.731 66.2515ZM92.4386 65.0991C91.2866 65.2235 90.2815 63.8181 90.1929 61.9598C90.1044 60.1016 90.9195 58.4652 92.0146 58.3052C93.1109 58.1455 94.1195 59.5507 94.2653 61.4441C94.4101 63.3383 93.5915 64.975 92.4386 65.0991ZM94.6561 66.5908C94.7981 68.4874 95.88 69.9483 97.0739 69.8532C98.2684 69.7584 99.0816 68.1123 98.888 66.1781C98.6922 64.2454 97.6051 62.7867 96.4626 62.9189C95.3211 63.0514 94.5131 64.6951 94.6561 66.5908ZM101.975 74.8287C100.744 74.8938 99.5963 73.3739 99.4087 71.4353C99.2189 69.4982 100.022 67.8448 101.206 67.7409C102.39 67.6372 103.545 69.153 103.782 71.1283C104.016 73.1059 103.205 74.7636 101.975 74.8287ZM110.74 58.5628C110.203 58.8099 109.586 58.8148 109.045 58.5763L98.2104 53.7992C97.9328 53.6768 97.6076 53.7855 97.4595 54.0503C97.3009 54.3339 97.4023 54.6923 97.6858 54.8509L107.542 60.3631C108.156 60.7064 108.552 61.3385 108.594 62.0404L109.294 73.6844C109.314 74.0338 109.595 74.3111 109.945 74.3277C110.323 74.3455 110.644 74.0536 110.662 73.6756L111.211 62.0322C111.244 61.3347 111.628 60.7012 112.23 60.3486L121.624 54.8509C121.886 54.6976 121.989 54.3706 121.862 54.0949C121.726 53.7988 121.375 53.6692 121.079 53.8054L110.74 58.5628ZM82.3197 142.185L100.313 103.108C100.447 102.817 100.652 102.57 100.905 102.385C101.088 102.18 101.319 102.012 101.591 101.901C101.7 101.857 101.814 101.822 101.93 101.799C104.618 101.266 107.169 100.999 109.584 100.999C109.742 100.999 109.9 101 110.059 101.002C110.218 101 110.377 100.999 110.534 100.999C112.95 100.999 115.501 101.266 118.188 101.799C118.304 101.822 118.418 101.857 118.528 101.901C118.8 102.012 119.031 102.18 119.214 102.385C119.466 102.57 119.671 102.817 119.805 103.108L137.799 142.185L149.379 86.6572C149.526 85.9538 150.065 85.3981 150.764 85.2305C153.443 84.5878 157.433 84.2665 162.733 84.2665C167.29 84.2665 170.636 84.5041 172.771 84.9793C173.771 85.2019 174.402 86.1923 174.181 87.1927L158.003 160.426C157.681 161.885 156.515 163.009 155.046 163.278C150.172 164.171 145.297 164.434 140.423 164.066C136.52 163.771 132.617 163.073 128.714 161.97C125.411 161.036 122.722 158.633 121.426 155.455L110.059 127.584L98.6923 155.455C97.3961 158.633 94.7076 161.036 91.4046 161.97C87.5014 163.073 83.5983 163.771 79.6951 164.066C74.821 164.434 69.9469 164.171 65.0727 163.278C63.6029 163.009 62.4376 161.885 62.1153 160.426L45.9372 87.1927C45.7162 86.1923 46.3471 85.2019 47.3471 84.9793C49.482 84.5041 52.8282 84.2665 57.3859 84.2665C62.6858 84.2665 66.6753 84.5878 69.3543 85.2305C70.0531 85.3981 70.5924 85.9538 70.7391 86.6572L82.3197 142.185Z" fill="#FFD000"/>
<path id="Combined Shape_5" fill-rule="evenodd" clip-rule="evenodd" d="M164.986 84.2878C164.271 84.2736 163.52 84.2665 162.733 84.2665C157.433 84.2665 153.443 84.5878 150.764 85.2305C150.065 85.3981 149.526 85.9538 149.379 86.6572L137.799 142.185L119.805 103.108C119.671 102.817 119.466 102.57 119.214 102.385C119.031 102.18 118.8 102.012 118.528 101.901C118.418 101.857 118.304 101.822 118.188 101.799C115.501 101.266 112.95 100.999 110.534 100.999C110.377 100.999 110.218 101 110.059 101.002C109.9 101 109.742 100.999 109.584 100.999C107.169 100.999 104.618 101.266 101.93 101.799C101.814 101.822 101.7 101.857 101.591 101.901C101.319 102.012 101.088 102.18 100.905 102.385C100.652 102.57 100.447 102.817 100.313 103.108L82.3197 142.185L70.7391 86.6572C70.5924 85.9538 70.0531 85.3981 69.3543 85.2305C66.6753 84.5878 62.6858 84.2665 57.3859 84.2665C52.8282 84.2665 49.482 84.5041 47.3471 84.9793C46.3471 85.2019 45.7162 86.1923 45.9372 87.1927L62.1153 160.426C62.4376 161.885 63.6029 163.009 65.0727 163.278C69.9469 164.171 74.821 164.434 79.6951 164.066C83.5983 163.771 87.5014 163.073 91.4046 161.97C94.7076 161.036 97.3961 158.633 98.6923 155.455L110.059 127.584L121.426 155.455C122.722 158.633 125.411 161.036 128.714 161.97C129.324 162.142 129.934 162.305 130.544 162.457C151.359 142.784 164.495 115.072 164.986 84.2878ZM111.677 35.2956L130.834 46.3561C131.792 46.909 132.382 47.9309 132.382 49.0367V71.7364C132.382 72.8513 131.782 73.8801 130.812 74.4296L111.647 85.2851C110.386 85.9999 108.841 85.9999 107.579 85.2851L88.4147 74.4296C87.4445 73.8801 86.8449 72.8513 86.8449 71.7364V49.0367C86.8449 47.9309 87.4349 46.909 88.3925 46.3561L107.55 35.2956C108.827 34.5584 110.4 34.5584 111.677 35.2956ZM109.613 43.4938C111.688 43.4938 113.369 42.653 113.369 41.6159C113.369 40.5787 111.688 39.738 109.613 39.738C107.539 39.738 105.858 40.5787 105.858 41.6159C105.858 42.653 107.539 43.4938 109.613 43.4938ZM113.369 47.2496C113.369 48.2868 111.688 49.1276 109.613 49.1276C107.539 49.1276 105.858 48.2868 105.858 47.2496C105.858 46.2125 107.539 45.3717 109.613 45.3717C111.688 45.3717 113.369 46.2125 113.369 47.2496ZM109.613 54.7613C111.688 54.7613 113.369 53.9205 113.369 52.8834C113.369 51.8462 111.688 51.0055 109.613 51.0055C107.539 51.0055 105.858 51.8462 105.858 52.8834C105.858 53.9205 107.539 54.7613 109.613 54.7613ZM124.637 47.2496C124.637 48.2868 122.955 49.1276 120.881 49.1276C118.807 49.1276 117.125 48.2868 117.125 47.2496C117.125 46.2125 118.807 45.3717 120.881 45.3717C122.955 45.3717 124.637 46.2125 124.637 47.2496ZM98.346 49.1276C100.42 49.1276 102.102 48.2868 102.102 47.2496C102.102 46.2125 100.42 45.3717 98.346 45.3717C96.2717 45.3717 94.5901 46.2125 94.5901 47.2496C94.5901 48.2868 96.2717 49.1276 98.346 49.1276ZM122.221 70.4452C121.102 70.6276 120.434 68.75 120.731 66.2515C121.028 63.7529 122.158 61.8089 123.255 61.9093C124.352 62.0097 125.019 63.8873 124.745 66.103C124.471 68.3187 123.341 70.2628 122.221 70.4452ZM90.1929 61.9598C90.2815 63.8181 91.2866 65.2235 92.4386 65.0991C93.5915 64.975 94.4101 63.3383 94.2653 61.4441C94.1195 59.5507 93.1109 58.1455 92.0146 58.3052C90.9195 58.4652 90.1044 60.1016 90.1929 61.9598ZM97.0739 69.8532C95.88 69.9483 94.7981 68.4874 94.6561 66.5908C94.5131 64.6951 95.3211 63.0514 96.4626 62.9189C97.6051 62.7867 98.6922 64.2454 98.888 66.1781C99.0816 68.1123 98.2684 69.7584 97.0739 69.8532ZM99.4087 71.4353C99.5963 73.3739 100.744 74.8938 101.975 74.8287C103.205 74.7636 104.016 73.1059 103.782 71.1283C103.545 69.153 102.39 67.6372 101.206 67.7409C100.022 67.8448 99.2189 69.4982 99.4087 71.4353ZM109.045 58.5763C109.586 58.8148 110.203 58.8099 110.74 58.5628L121.079 53.8054C121.375 53.6692 121.726 53.7988 121.862 54.0949C121.989 54.3706 121.886 54.6976 121.624 54.8509L112.23 60.3486C111.628 60.7012 111.244 61.3347 111.211 62.0322L110.662 73.6756C110.644 74.0536 110.323 74.3455 109.945 74.3277C109.595 74.3111 109.314 74.0338 109.294 73.6844L108.594 62.0404C108.552 61.3385 108.156 60.7064 107.542 60.3631L97.6858 54.8509C97.4023 54.6923 97.3009 54.3339 97.4595 54.0503C97.6076 53.7855 97.9328 53.6768 98.2104 53.7992L109.045 58.5763Z" fill="#FFE714"/>
</g>
<path id="Star" fill-rule="evenodd" clip-rule="evenodd" d="M49.3161 52.2228C49.2234 51.8787 48.9546 51.6099 48.6104 51.5172L27.8586 45.9298C27.76 45.9032 27.76 45.7633 27.8586 45.7367L48.6104 40.1493C48.9546 40.0566 49.2234 39.7878 49.3161 39.4437L54.9034 18.6919C54.93 18.5932 55.07 18.5932 55.0966 18.6919L60.6839 39.4437C60.7766 39.7878 61.0454 40.0566 61.3896 40.1493L82.1414 45.7367C82.24 45.7633 82.24 45.9032 82.1414 45.9298L61.3896 51.5172C61.0454 51.6099 60.7766 51.8787 60.6839 52.2228L55.0966 72.9746C55.07 73.0733 54.93 73.0733 54.9034 72.9746L49.3161 52.2228Z" fill="white"/>
</g>
<defs>
<filter id="filter0_d" x="0" y="0" width="220" height="230" filterUnits="userSpaceOnUse" color-interpolation-filters="sRGB">
<feFlood flood-opacity="0" result="BackgroundImageFix"/>
<feColorMatrix in="SourceAlpha" type="matrix" values="0 0 0 0 0 0 0 0 0 0 0 0 0 0 0 0 0 0 127 0"/>
<feOffset dy="10"/>
<feColorMatrix type="matrix" values="0 0 0 0 0.449332 0 0 0 0 0.258509 0 0 0 0 0.0479042 0 0 0 1 0"/>
<feBlend mode="normal" in2="BackgroundImageFix" result="effect1_dropShadow"/>
<feBlend mode="normal" in="SourceGraphic" in2="effect1_dropShadow" result="shape"/>
</filter>
</defs>
</svg>
