<svg width="260" height="180" viewBox="0 0 260 180" fill="none" xmlns="http://www.w3.org/2000/svg">
<g style="mix-blend-mode:luminosity" opacity="0.5">
<path d="M0 10C0 4.47716 4.47715 0 10 0H250C255.523 0 260 4.47715 260 10V180H0V10Z" fill="#3AD1EE"/>
<mask id="mask0" mask-type="alpha" maskUnits="userSpaceOnUse" x="0" y="0" width="260" height="180">
<path d="M0 10C0 4.47716 4.47715 0 10 0H250C255.523 0 260 4.47715 260 10V180H0V10Z" fill="white"/>
</mask>
<g mask="url(#mask0)">
<path d="M0 10C0 4.47716 4.47715 0 10 0H250C255.523 0 260 4.47715 260 10V180H0V10Z" fill="#FFE714"/>
<mask id="mask1" mask-type="alpha" maskUnits="userSpaceOnUse" x="0" y="0" width="260" height="180">
<path d="M0 10C0 4.47716 4.47715 0 10 0H250C255.523 0 260 4.47715 260 10V180H0V10Z" fill="white"/>
</mask>
<g mask="url(#mask1)">
<path fill-rule="evenodd" clip-rule="evenodd" d="M140 101L163 -89H117L140 101ZM140 101L293.045 -13.9186L316.045 25.9186L140 101ZM140 101L215.081 -75.0448L254.919 -52.0448L140 101ZM140 101L330 124V78L140 101ZM140 101L293.045 215.919L316.045 176.081L140 101ZM140 101L-13.0448 215.919L-36.0448 176.081L140 101ZM140 101L254.919 254.045L215.081 277.045L140 101ZM140 101L117 291H163L140 101ZM140 101L64.9186 277.045L25.0814 254.045L140 101ZM140 101L-36.0448 25.9186L-46 -45.5L140 101ZM140 101L-50 124V78L140 101ZM64.9186 -75.0448L25.0814 -52.0448L140 101L64.9186 -75.0448Z" fill="url(#paint0_radial)"/>
</g>
<rect x="-38.2917" y="129.897" width="130" height="200" rx="5" transform="rotate(-30 -38.2917 129.897)" fill="#D9113A" stroke="white" stroke-width="10"/>
<mask id="mask2" mask-type="alpha" maskUnits="userSpaceOnUse" x="-42" y="61" width="220" height="246">
<rect x="-38.2917" y="129.897" width="130" height="200" rx="5" transform="rotate(-30 -38.2917 129.897)" fill="white" stroke="white" stroke-width="10"/>
</mask>
<g mask="url(#mask2)">
<path fill-rule="evenodd" clip-rule="evenodd" d="M59 165L82 -25H36L59 165ZM59 165L212.045 50.0814L235.045 89.9186L59 165ZM59 165L134.081 -11.0448L173.919 11.9552L59 165ZM59 165L249 188V142L59 165ZM59 165L212.045 279.919L235.045 240.081L59 165ZM59 165L-94.0448 279.919L-117.045 240.081L59 165ZM59 165L173.919 318.045L134.081 341.045L59 165ZM59 165L36 355H82L59 165ZM59 165L-16.0814 341.045L-55.9186 318.045L59 165ZM59 165L-117.045 89.9186L-94.0448 50.0814L59 165ZM59 165L-131 188V142L59 165ZM-16.0814 -11.0448L-55.9186 11.9552L59 165L-16.0814 -11.0448Z" fill="url(#paint1_radial)"/>
</g>
<rect x="-38.2917" y="129.897" width="130" height="200" rx="5" transform="rotate(-30 -38.2917 129.897)" stroke="white" stroke-width="10"/>
<mask id="mask3" mask-type="alpha" maskUnits="userSpaceOnUse" x="-42" y="61" width="220" height="246">
<rect x="-38.2917" y="129.897" width="130" height="200" rx="5" transform="rotate(-30 -38.2917 129.897)" fill="white" stroke="white" stroke-width="10"/>
</mask>
<g mask="url(#mask3)">
</g>
<path d="M21.5263 163.049L49.5582 161.645C51.4759 161.544 53.2883 162.527 54.2485 164.19L66.7515 185.846C68.1609 188.287 67.3245 191.409 64.8833 192.818C64.1563 193.238 63.3371 193.472 62.4981 193.499L47.1842 194C42.4786 194.154 38.0707 191.704 35.7167 187.627L30.5564 178.689L36.1523 178.692C37.5192 178.693 38.7819 179.423 39.4653 180.606L41.1883 183.591C42.0979 185.166 43.7773 186.138 45.5964 186.143L58.9173 186.174L48.9766 168.956L30.4111 169.989C27.4913 170.193 24.8762 168.765 23.4128 166.23C22.6087 164.838 21.5263 163.049 21.5263 163.049Z" fill="white"/>
<path fill-rule="evenodd" clip-rule="evenodd" d="M81.1724 150.739C83.4332 149.962 85.9517 151.107 87.634 153.854L90.107 158.138C91.9565 161.341 91.6498 165.455 89.7548 168.632L81.6843 182.161C80.2402 184.582 77.107 185.374 74.6862 183.93C73.9379 183.484 73.3164 182.853 72.8807 182.099L65.9013 170.01L60.4258 160.526C59.4879 158.901 59.5166 156.893 60.5007 155.296L74.9636 132.011C74.9636 132.011 76.3746 134.181 77.5343 136.469C79.9372 141.209 81.5256 145.306 81.1724 150.739ZM73.2931 170.298L76.9841 176.691L83.5088 164.772C84.3646 163.209 85.2369 160.805 83.2324 158.62C82.1243 157.411 80.3884 158.406 79.8334 159.337L73.2931 170.298ZM69.7386 164.141L66.6332 158.762L74.8699 144.135C74.8699 144.135 75.7171 146.246 76.1016 147.783C76.7066 150.202 76.6678 153.07 75.3461 155.188L69.7386 164.141Z" fill="white"/>
<path fill-rule="evenodd" clip-rule="evenodd" d="M32.8877 125.33L16.2369 151.703C15.9599 152.142 15.8226 152.654 15.8431 153.173C15.8991 154.587 17.1225 155.743 18.5368 155.687L49.6702 154.398C51.3648 154.331 52.9166 153.43 53.8149 151.992L70.1756 125.793C70.4458 125.361 70.5808 124.857 70.5631 124.347C70.5141 122.933 69.3277 121.826 67.9131 121.875L37.0442 122.944C35.3492 123.003 33.7931 123.896 32.8877 125.33ZM29.6747 145.553C30.3219 146.674 28.7262 148.807 26.1107 150.317C23.4951 151.827 20.8501 152.142 20.2029 151.022C19.5557 149.901 21.1514 147.768 23.767 146.258C26.3826 144.747 29.0275 144.432 29.6747 145.553ZM38.4697 130.554C41.0853 129.044 42.681 126.911 42.0338 125.79C41.3866 124.669 38.7416 124.985 36.126 126.495C33.5105 128.005 31.9148 130.138 32.562 131.259C33.2092 132.38 35.8541 132.064 38.4697 130.554ZM47.5016 135.261C48.1488 136.382 46.5531 138.514 43.9375 140.025C41.322 141.535 38.677 141.85 38.0298 140.729C37.3826 139.608 38.9783 137.475 41.5939 135.965C44.2094 134.455 46.8544 134.14 47.5016 135.261ZM49.4053 149.495C52.0209 147.985 53.6166 145.852 52.9694 144.731C52.3222 143.61 49.6772 143.926 47.0617 145.436C44.4461 146.946 42.8504 149.079 43.4976 150.2C44.1448 151.321 46.7898 151.005 49.4053 149.495ZM65.3285 124.968C65.9757 126.089 64.38 128.222 61.7644 129.732C59.1488 131.242 56.5038 131.558 55.8566 130.437C55.2095 129.316 56.8052 127.183 59.4207 125.673C62.0363 124.163 64.6813 123.847 65.3285 124.968Z" fill="white"/>
<rect x="181" y="-111" width="114" height="174" rx="7" fill="#D9113A" stroke="white" stroke-width="6"/>
<mask id="mask4" mask-type="alpha" maskUnits="userSpaceOnUse" x="178" y="-114" width="120" height="180">
<rect x="181" y="-111" width="114" height="174" rx="7" fill="white" stroke="white" stroke-width="6"/>
</mask>
<g mask="url(#mask4)">
<path fill-rule="evenodd" clip-rule="evenodd" d="M238 -24L261 -214H215L238 -24ZM238 -24L391.045 -138.919L414.045 -99.0814L238 -24ZM238 -24L313.081 -200.045L352.919 -177.045L238 -24ZM238 -24L428 -1V-47L238 -24ZM238 -24L391.045 90.9186L414.045 51.0814L238 -24ZM238 -24L84.9552 90.9186L61.9552 51.0814L238 -24ZM238 -24L352.919 129.045L313.081 152.045L238 -24ZM238 -24L215 166H261L238 -24ZM238 -24L162.919 152.045L123.081 129.045L238 -24ZM238 -24L61.9552 -99.0814L84.9552 -138.919L238 -24ZM238 -24L48 -1V-47L238 -24ZM162.919 -200.045L123.081 -177.045L238 -24L162.919 -200.045Z" fill="url(#paint2_radial)"/>
</g>
<rect x="181" y="-111" width="114" height="174" rx="7" stroke="white" stroke-width="6"/>
<mask id="mask5" mask-type="alpha" maskUnits="userSpaceOnUse" x="178" y="-114" width="120" height="180">
<rect x="181" y="-111" width="114" height="174" rx="7" fill="white" stroke="white" stroke-width="6"/>
</mask>
<g mask="url(#mask5)">
</g>
<path d="M212.235 -33.3239L233.248 -22.555C234.688 -21.8224 235.594 -20.3436 235.594 -18.7281V2.30875C235.594 4.68017 233.672 6.60258 231.301 6.60258C230.594 6.60258 229.899 6.42841 229.276 6.0955L217.909 0.0187683C214.416 -1.84844 212.235 -5.48737 212.235 -9.44811V-18.1304L216.31 -15.7742C217.306 -15.1987 217.919 -14.1361 217.919 -12.9862V-10.0871C217.919 -8.55672 218.733 -7.14198 220.057 -6.37365L229.749 -0.747478V-17.4731L215.788 -24.5301C213.575 -25.6096 212.271 -27.75 212.271 -30.2123C212.271 -31.5652 212.235 -33.3239 212.235 -33.3239Z" fill="white"/>
<path fill-rule="evenodd" clip-rule="evenodd" d="M260.868 -17.2033C262.842 -16.8184 264.195 -14.9243 264.265 -12.2154V-8.05437C264.265 -4.9425 262.311 -2.07412 259.595 -0.556767L248.024 5.90546C245.953 7.06178 243.338 6.32076 242.181 4.25035C241.824 3.61042 241.636 2.88964 241.636 2.15667V-9.58651V-18.7993C241.636 -20.3774 242.502 -21.8283 243.891 -22.5778L264.222 -33.4593C264.222 -33.4593 264.338 -31.2848 264.22 -29.13C263.977 -24.6655 263.411 -21.0125 260.868 -17.2033ZM246.901 -6.26754V-0.0573959L256.667 -5.99601C257.949 -6.77492 259.595 -8.15972 259.054 -10.595C258.755 -11.9413 257.072 -11.9465 256.276 -11.5022L246.901 -6.26754ZM246.901 -12.2483V-17.4731L259.054 -24.6653C259.054 -24.6653 258.784 -22.7712 258.417 -21.4893C257.84 -19.4726 256.606 -17.3997 254.752 -16.4126L246.901 -12.2483Z" fill="white"/>
<rect x="171" y="-121" width="114" height="174" rx="7" fill="#D9113A" stroke="white" stroke-width="6"/>
<mask id="mask6" mask-type="alpha" maskUnits="userSpaceOnUse" x="168" y="-124" width="120" height="180">
<rect x="171" y="-121" width="114" height="174" rx="7" fill="white" stroke="white" stroke-width="6"/>
</mask>
<g mask="url(#mask6)">
<path fill-rule="evenodd" clip-rule="evenodd" d="M228 -34L251 -224H205L228 -34ZM228 -34L381.045 -148.919L404.045 -109.081L228 -34ZM228 -34L303.081 -210.045L342.919 -187.045L228 -34ZM228 -34L418 -11V-57L228 -34ZM228 -34L381.045 80.9186L404.045 41.0814L228 -34ZM228 -34L74.9552 80.9186L51.9552 41.0814L228 -34ZM228 -34L342.919 119.045L303.081 142.045L228 -34ZM228 -34L205 156H251L228 -34ZM228 -34L152.919 142.045L113.081 119.045L228 -34ZM228 -34L51.9552 -109.081L74.9552 -148.919L228 -34ZM228 -34L38 -11V-57L228 -34ZM152.919 -210.045L113.081 -187.045L228 -34L152.919 -210.045Z" fill="url(#paint3_radial)"/>
</g>
<rect x="171" y="-121" width="114" height="174" rx="7" stroke="white" stroke-width="6"/>
<mask id="mask7" mask-type="alpha" maskUnits="userSpaceOnUse" x="168" y="-124" width="120" height="180">
<rect x="171" y="-121" width="114" height="174" rx="7" fill="white" stroke="white" stroke-width="6"/>
</mask>
<g mask="url(#mask7)">
</g>
<rect x="161" y="-131" width="114" height="174" rx="7" fill="#D9113A" stroke="white" stroke-width="6"/>
<mask id="mask8" mask-type="alpha" maskUnits="userSpaceOnUse" x="158" y="-134" width="120" height="180">
<rect x="161" y="-131" width="114" height="174" rx="7" fill="white" stroke="white" stroke-width="6"/>
</mask>
<g mask="url(#mask8)">
<path fill-rule="evenodd" clip-rule="evenodd" d="M218 -44L241 -234H195L218 -44ZM218 -44L371.045 -158.919L394.045 -119.081L218 -44ZM218 -44L293.081 -220.045L332.919 -197.045L218 -44ZM218 -44L408 -21V-67L218 -44ZM218 -44L371.045 70.9186L394.045 31.0814L218 -44ZM218 -44L64.9552 70.9186L41.9552 31.0814L218 -44ZM218 -44L332.919 109.045L293.081 132.045L218 -44ZM218 -44L195 146H241L218 -44ZM218 -44L142.919 132.045L103.081 109.045L218 -44ZM218 -44L41.9552 -119.081L64.9552 -158.919L218 -44ZM218 -44L28 -21V-67L218 -44ZM142.919 -220.045L103.081 -197.045L218 -44L142.919 -220.045Z" fill="url(#paint4_radial)"/>
</g>
<rect x="161" y="-131" width="114" height="174" rx="7" stroke="white" stroke-width="6"/>
<mask id="mask9" mask-type="alpha" maskUnits="userSpaceOnUse" x="158" y="-134" width="120" height="180">
<rect x="161" y="-131" width="114" height="174" rx="7" fill="white" stroke="white" stroke-width="6"/>
</mask>
<g mask="url(#mask9)">
</g>
<rect x="151" y="-141" width="114" height="174" rx="7" fill="#D9113A" stroke="white" stroke-width="6"/>
<mask id="mask10" mask-type="alpha" maskUnits="userSpaceOnUse" x="148" y="-144" width="120" height="180">
<rect x="151" y="-141" width="114" height="174" rx="7" fill="white" stroke="white" stroke-width="6"/>
</mask>
<g mask="url(#mask10)">
<path fill-rule="evenodd" clip-rule="evenodd" d="M208 -54L231 -244H185L208 -54ZM208 -54L361.045 -168.919L384.045 -129.081L208 -54ZM208 -54L283.081 -230.045L322.919 -207.045L208 -54ZM208 -54L398 -31V-77L208 -54ZM208 -54L361.045 60.9186L384.045 21.0814L208 -54ZM208 -54L54.9552 60.9186L31.9552 21.0814L208 -54ZM208 -54L322.919 99.0448L283.081 122.045L208 -54ZM208 -54L185 136H231L208 -54ZM208 -54L132.919 122.045L93.0814 99.0448L208 -54ZM208 -54L31.9552 -129.081L54.9552 -168.919L208 -54ZM208 -54L18 -31V-77L208 -54ZM132.919 -230.045L93.0814 -207.045L208 -54L132.919 -230.045Z" fill="url(#paint5_radial)"/>
</g>
<rect x="151" y="-141" width="114" height="174" rx="7" stroke="white" stroke-width="6"/>
<mask id="mask11" mask-type="alpha" maskUnits="userSpaceOnUse" x="148" y="-144" width="120" height="180">
<rect x="151" y="-141" width="114" height="174" rx="7" fill="white" stroke="white" stroke-width="6"/>
</mask>
<g mask="url(#mask11)">
</g>
<path opacity="0.3" fill-rule="evenodd" clip-rule="evenodd" d="M91 83.5L93 175H34.5L91 83.5Z" fill="url(#paint6_linear)"/>
<rect x="97.9076" y="56.5328" width="140" height="210" rx="10" transform="rotate(15 97.9076 56.5328)" fill="white"/>
<rect x="113.384" y="85.3194" width="95.2" height="162.4" rx="4" transform="rotate(15 113.384 85.3194)" fill="#FBF2F6"/>
<rect x="191.022" y="93.0778" width="36.4" height="36.4" rx="13" transform="rotate(15 191.022 93.0778)" fill="white"/>
<path d="M196.515 110.717L201.852 115.545C202.218 115.875 202.369 116.382 202.241 116.857L200.582 123.051C200.395 123.749 199.677 124.163 198.979 123.976C198.771 123.921 198.58 123.814 198.423 123.667L195.555 120.981C194.674 120.156 194.319 118.913 194.632 117.747L195.317 115.19L196.331 116.206C196.578 116.454 196.675 116.815 196.584 117.153L196.356 118.007C196.235 118.457 196.363 118.938 196.692 119.269L199.102 121.69L200.421 116.766L196.868 113.587C196.301 113.094 196.086 112.361 196.28 111.636C196.387 111.238 196.515 110.717 196.515 110.717Z" fill="#000818"/>
<path fill-rule="evenodd" clip-rule="evenodd" d="M209.562 119.3C210.113 119.569 210.362 120.233 210.169 121.036L209.84 122.262C209.595 123.178 208.793 123.868 207.874 124.101L203.957 125.09C203.257 125.267 202.545 124.843 202.368 124.142C202.313 123.925 202.315 123.698 202.372 123.483L203.299 120.025L204.026 117.313C204.15 116.848 204.519 116.489 204.987 116.378L211.832 114.779C211.832 114.779 211.694 115.428 211.49 116.053C211.066 117.348 210.611 118.379 209.562 119.3ZM204.587 121.418L204.097 123.246L207.441 122.268C207.88 122.14 208.474 121.862 208.507 121.102C208.525 120.682 208.03 120.548 207.76 120.616L204.587 121.418ZM205.059 119.657L205.471 118.119L209.617 116.96C209.617 116.96 209.387 117.496 209.178 117.845C208.85 118.393 208.323 118.906 207.699 119.05L205.059 119.657Z" fill="#000818"/>
<path fill-rule="evenodd" clip-rule="evenodd" d="M205.414 105.938L197.613 107.701C197.483 107.73 197.366 107.798 197.275 107.896C197.029 108.163 197.041 108.594 197.308 108.84L203.186 114.252C203.506 114.547 203.951 114.665 204.374 114.567L212.091 112.783C212.219 112.754 212.334 112.687 212.424 112.591C212.671 112.326 212.657 111.91 212.391 111.662L206.6 106.259C206.282 105.963 205.838 105.842 205.414 105.938ZM201.165 109.022C201.079 109.343 200.403 109.44 199.655 109.24C198.907 109.039 198.37 108.617 198.456 108.296C198.542 107.976 199.218 107.878 199.966 108.079C200.714 108.279 201.251 108.702 201.165 109.022ZM205.479 107.897C206.227 108.098 206.903 108.001 206.989 107.68C207.075 107.359 206.538 106.937 205.79 106.736C205.042 106.536 204.366 106.633 204.28 106.954C204.194 107.275 204.731 107.697 205.479 107.897ZM206.263 110.388C206.177 110.709 205.501 110.806 204.753 110.606C204.005 110.406 203.468 109.983 203.554 109.663C203.64 109.342 204.316 109.245 205.064 109.445C205.812 109.646 206.349 110.068 206.263 110.388ZM204.028 113.315C204.776 113.515 205.452 113.418 205.538 113.097C205.623 112.776 205.087 112.354 204.339 112.154C203.591 111.953 202.915 112.051 202.829 112.371C202.743 112.692 203.279 113.114 204.028 113.315ZM211.362 111.755C211.276 112.075 210.6 112.173 209.852 111.972C209.104 111.772 208.567 111.349 208.653 111.029C208.739 110.708 209.415 110.611 210.163 110.811C210.911 111.012 211.448 111.434 211.362 111.755Z" fill="#D9113A"/>
<path fill-rule="evenodd" clip-rule="evenodd" d="M118.355 80.5638L112.837 79.0854L102.829 99.8838L107.4 101.109L109.397 96.6866L112.615 97.549L112.106 102.369L116.569 103.565L118.355 80.5638ZM114.058 85.6737L112.931 94.5319L110.605 93.9086L114.058 85.6737Z" fill="#D9113A"/>
<path fill-rule="evenodd" clip-rule="evenodd" d="M102.524 124.767C102.209 122.014 100.767 119.516 98.5406 117.867L96.3932 116.277L99.0481 115.973C101.801 115.658 104.299 114.216 105.948 111.989L107.538 109.842L107.842 112.497C108.157 115.249 109.599 117.748 111.826 119.397L113.973 120.987L111.318 121.291C108.566 121.605 106.067 123.048 104.418 125.274L102.828 127.422L102.524 124.767Z" fill="#D9113A"/>
<path fill-rule="evenodd" clip-rule="evenodd" d="M128.187 195.737C127.243 187.48 122.915 179.984 116.236 175.038L105.891 167.376L118.681 165.913C126.939 164.969 134.434 160.641 139.381 153.962L147.043 143.617L148.505 156.407C149.45 164.665 153.777 172.16 160.456 177.107L170.802 184.769L158.011 186.231C149.754 187.176 142.258 191.503 137.312 198.182L129.65 208.527L128.187 195.737Z" fill="#D9113A"/>
</g>
</g>
<path fill-rule="evenodd" clip-rule="evenodd" d="M46 0L46 112C46 119.18 40.1797 125 33 125V125C25.8203 125 20 119.18 20 112L20 0L46 0Z" fill="#D9113A"/>
<path d="M36.824 106.648C37.256 107.024 37.6 107.488 37.856 108.04C38.104 108.592 38.228 109.228 38.228 109.948C38.228 110.604 38.12 111.212 37.904 111.772C37.688 112.324 37.384 112.804 36.992 113.212C36.592 113.62 36.116 113.94 35.564 114.172C35.012 114.404 34.404 114.52 33.74 114.52C33.06 114.52 32.444 114.404 31.892 114.172C31.34 113.932 30.872 113.604 30.488 113.188C30.096 112.772 29.796 112.284 29.588 111.724C29.38 111.164 29.276 110.56 29.276 109.912C29.276 109.312 29.384 108.724 29.6 108.148C29.808 107.564 30.116 107.092 30.524 106.732L31.916 108.124C31.652 108.316 31.456 108.568 31.328 108.88C31.2 109.192 31.136 109.512 31.136 109.84C31.136 110.2 31.204 110.532 31.34 110.836C31.468 111.132 31.648 111.388 31.88 111.604C32.112 111.82 32.388 111.988 32.708 112.108C33.02 112.228 33.364 112.288 33.74 112.288C34.124 112.288 34.476 112.228 34.796 112.108C35.116 111.988 35.392 111.824 35.624 111.616C35.848 111.4 36.024 111.144 36.152 110.848C36.28 110.552 36.344 110.228 36.344 109.876C36.344 109.468 36.264 109.112 36.104 108.808C35.944 108.504 35.736 108.26 35.48 108.076L36.824 106.648ZM33.716 97.0532C34.388 97.0532 35.004 97.1692 35.564 97.4012C36.116 97.6332 36.592 97.9572 36.992 98.3732C37.384 98.7812 37.688 99.2692 37.904 99.8372C38.12 100.405 38.228 101.021 38.228 101.685C38.228 102.349 38.12 102.965 37.904 103.533C37.688 104.093 37.384 104.581 36.992 104.997C36.592 105.405 36.116 105.725 35.564 105.957C35.004 106.189 34.388 106.305 33.716 106.305C33.036 106.305 32.424 106.189 31.88 105.957C31.328 105.725 30.86 105.405 30.476 104.997C30.092 104.581 29.796 104.093 29.588 103.533C29.38 102.965 29.276 102.349 29.276 101.685C29.276 101.021 29.38 100.405 29.588 99.8372C29.796 99.2692 30.092 98.7812 30.476 98.3732C30.86 97.9572 31.328 97.6332 31.88 97.4012C32.424 97.1692 33.036 97.0532 33.716 97.0532ZM33.716 99.2492C33.348 99.2492 33.004 99.3092 32.684 99.4292C32.364 99.5492 32.092 99.7172 31.868 99.9332C31.636 100.141 31.456 100.397 31.328 100.701C31.192 100.997 31.124 101.325 31.124 101.685C31.124 102.045 31.192 102.373 31.328 102.669C31.456 102.965 31.636 103.221 31.868 103.437C32.092 103.653 32.364 103.821 32.684 103.941C33.004 104.053 33.348 104.109 33.716 104.109C34.1 104.109 34.456 104.049 34.784 103.929C35.104 103.809 35.38 103.645 35.612 103.437C35.844 103.221 36.028 102.965 36.164 102.669C36.292 102.373 36.356 102.045 36.356 101.685C36.356 101.325 36.292 100.997 36.164 100.701C36.028 100.405 35.844 100.149 35.612 99.9332C35.38 99.7172 35.104 99.5492 34.784 99.4292C34.456 99.3092 34.1 99.2492 33.716 99.2492ZM38 87.9981L31.988 87.9501V87.9861L38 90.1941V91.6341L31.988 93.7821V93.8181L38 93.7701V95.7021H29.504V92.7861L34.952 90.8541V90.8061L29.504 88.9581V85.9941H38V87.9981ZM38 76.5372L31.988 76.4892V76.5252L38 78.7332V80.1732L31.988 82.3212V82.3572L38 82.3092V84.2412H29.504L29.504 81.3252L34.952 79.3932V79.3452L29.504 77.4972V74.5332H38V76.5372ZM38 72.7802H29.504V70.7162H38V72.7802ZM38 63.5599L32.444 66.9799V67.0159L38 66.9679V68.9599H29.504V66.6199L35.048 63.2119V63.1759L29.504 63.2239V61.2319H38V63.5599ZM37.484 51.9315C37.7 52.3475 37.876 52.8355 38.012 53.3955C38.148 53.9475 38.216 54.5515 38.216 55.2075C38.216 55.8875 38.108 56.5155 37.892 57.0915C37.676 57.6595 37.372 58.1515 36.98 58.5675C36.588 58.9755 36.12 59.2955 35.576 59.5275C35.024 59.7595 34.412 59.8755 33.74 59.8755C33.06 59.8755 32.444 59.7595 31.892 59.5275C31.34 59.2875 30.872 58.9595 30.488 58.5435C30.096 58.1275 29.796 57.6395 29.588 57.0795C29.38 56.5195 29.276 55.9155 29.276 55.2675C29.276 54.5955 29.38 53.9715 29.588 53.3955C29.788 52.8195 30.06 52.3515 30.404 51.9915L31.88 53.2875C31.648 53.4875 31.46 53.7515 31.316 54.0795C31.164 54.4075 31.088 54.7795 31.088 55.1955C31.088 55.5555 31.156 55.8875 31.292 56.1915C31.42 56.4955 31.604 56.7595 31.844 56.9835C32.076 57.2075 32.356 57.3835 32.684 57.5115C33.004 57.6315 33.356 57.6915 33.74 57.6915C34.132 57.6915 34.492 57.6355 34.82 57.5235C35.148 57.4115 35.432 57.2475 35.672 57.0315C35.904 56.8075 36.088 56.5355 36.224 56.2155C36.352 55.8875 36.416 55.5155 36.416 55.0995C36.416 54.8595 36.4 54.6315 36.368 54.4155C36.328 54.1995 36.268 53.9995 36.188 53.8155H34.64V55.4355H32.984V51.9315H37.484ZM31.712 42.7688C31.488 42.9448 31.312 43.1768 31.184 43.4648C31.048 43.7448 30.98 44.0168 30.98 44.2808C30.98 44.4168 30.992 44.5568 31.016 44.7008C31.04 44.8368 31.088 44.9608 31.16 45.0728C31.224 45.1848 31.312 45.2808 31.424 45.3608C31.528 45.4328 31.664 45.4688 31.832 45.4688C31.976 45.4688 32.096 45.4408 32.192 45.3848C32.288 45.3208 32.372 45.2328 32.444 45.1208C32.516 45.0008 32.584 44.8608 32.648 44.7008C32.704 44.5408 32.764 44.3608 32.828 44.1608C32.924 43.8728 33.032 43.5728 33.152 43.2608C33.264 42.9488 33.416 42.6648 33.608 42.4088C33.8 42.1528 34.04 41.9408 34.328 41.7728C34.608 41.6048 34.96 41.5208 35.384 41.5208C35.872 41.5208 36.296 41.6128 36.656 41.7968C37.008 41.9728 37.3 42.2128 37.532 42.5168C37.764 42.8208 37.936 43.1688 38.048 43.5608C38.16 43.9528 38.216 44.3568 38.216 44.7728C38.216 45.3808 38.112 45.9688 37.904 46.5368C37.688 47.1048 37.384 47.5768 36.992 47.9528L35.624 46.6088C35.88 46.4008 36.096 46.1288 36.272 45.7928C36.44 45.4488 36.524 45.1088 36.524 44.7728C36.524 44.6208 36.508 44.4728 36.476 44.3288C36.444 44.1848 36.392 44.0608 36.32 43.9568C36.248 43.8448 36.152 43.7568 36.032 43.6928C35.912 43.6288 35.768 43.5968 35.6 43.5968C35.44 43.5968 35.304 43.6368 35.192 43.7168C35.08 43.7968 34.98 43.9128 34.892 44.0648C34.796 44.2088 34.712 44.3928 34.64 44.6168C34.56 44.8328 34.476 45.0808 34.388 45.3608C34.3 45.6328 34.196 45.9008 34.076 46.1648C33.956 46.4208 33.804 46.6528 33.62 46.8608C33.428 47.0608 33.2 47.2248 32.936 47.3528C32.664 47.4728 32.336 47.5328 31.952 47.5328C31.48 47.5328 31.076 47.4368 30.74 47.2448C30.404 47.0528 30.128 46.8008 29.912 46.4888C29.696 46.1768 29.54 45.8248 29.444 45.4328C29.34 45.0408 29.288 44.6448 29.288 44.2448C29.288 43.7648 29.376 43.2768 29.552 42.7808C29.728 42.2768 29.988 41.8368 30.332 41.4608L31.712 42.7688ZM33.716 31.311C34.388 31.311 35.004 31.427 35.564 31.659C36.116 31.891 36.592 32.215 36.992 32.631C37.384 33.039 37.688 33.527 37.904 34.095C38.12 34.663 38.228 35.279 38.228 35.943C38.228 36.607 38.12 37.223 37.904 37.791C37.688 38.351 37.384 38.839 36.992 39.255C36.592 39.663 36.116 39.983 35.564 40.215C35.004 40.447 34.388 40.563 33.716 40.563C33.036 40.563 32.424 40.447 31.88 40.215C31.328 39.983 30.86 39.663 30.476 39.255C30.092 38.839 29.796 38.351 29.588 37.791C29.38 37.223 29.276 36.607 29.276 35.943C29.276 35.279 29.38 34.663 29.588 34.095C29.796 33.527 30.092 33.039 30.476 32.631C30.86 32.215 31.328 31.891 31.88 31.659C32.424 31.427 33.036 31.311 33.716 31.311ZM33.716 33.507C33.348 33.507 33.004 33.567 32.684 33.687C32.364 33.807 32.092 33.975 31.868 34.191C31.636 34.399 31.456 34.655 31.328 34.959C31.192 35.255 31.124 35.583 31.124 35.943C31.124 36.303 31.192 36.631 31.328 36.927C31.456 37.223 31.636 37.479 31.868 37.695C32.092 37.911 32.364 38.079 32.684 38.199C33.004 38.311 33.348 38.367 33.716 38.367C34.1 38.367 34.456 38.307 34.784 38.187C35.104 38.067 35.38 37.903 35.612 37.695C35.844 37.479 36.028 37.223 36.164 36.927C36.292 36.631 36.356 36.303 36.356 35.943C36.356 35.583 36.292 35.255 36.164 34.959C36.028 34.663 35.844 34.407 35.612 34.191C35.38 33.975 35.104 33.807 34.784 33.687C34.456 33.567 34.1 33.507 33.716 33.507ZM33.716 21.1039C34.388 21.1039 35.004 21.2199 35.564 21.4519C36.116 21.6839 36.592 22.0079 36.992 22.4239C37.384 22.8319 37.688 23.3199 37.904 23.8879C38.12 24.4559 38.228 25.0719 38.228 25.7359C38.228 26.3999 38.12 27.0159 37.904 27.5839C37.688 28.1439 37.384 28.6319 36.992 29.0479C36.592 29.4559 36.116 29.7759 35.564 30.0079C35.004 30.2399 34.388 30.3559 33.716 30.3559C33.036 30.3559 32.424 30.2399 31.88 30.0079C31.328 29.7759 30.86 29.4559 30.476 29.0479C30.092 28.6319 29.796 28.1439 29.588 27.5839C29.38 27.0159 29.276 26.3999 29.276 25.7359C29.276 25.0719 29.38 24.4559 29.588 23.8879C29.796 23.3199 30.092 22.8319 30.476 22.4239C30.86 22.0079 31.328 21.6839 31.88 21.4519C32.424 21.2199 33.036 21.1039 33.716 21.1039ZM33.716 23.2999C33.348 23.2999 33.004 23.3599 32.684 23.4799C32.364 23.5999 32.092 23.7679 31.868 23.9839C31.636 24.1919 31.456 24.4479 31.328 24.7519C31.192 25.0479 31.124 25.3759 31.124 25.7359C31.124 26.0959 31.192 26.4239 31.328 26.7199C31.456 27.0159 31.636 27.2719 31.868 27.4879C32.092 27.7039 32.364 27.8719 32.684 27.9919C33.004 28.1039 33.348 28.1599 33.716 28.1599C34.1 28.1599 34.456 28.0999 34.784 27.9799C35.104 27.8599 35.38 27.6959 35.612 27.4879C35.844 27.2719 36.028 27.0159 36.164 26.7199C36.292 26.4239 36.356 26.0959 36.356 25.7359C36.356 25.3759 36.292 25.0479 36.164 24.7519C36.028 24.4559 35.844 24.1999 35.612 23.9839C35.38 23.7679 35.104 23.5999 34.784 23.4799C34.456 23.3599 34.1 23.2999 33.716 23.2999ZM38 14.3529L32.444 17.7729V17.8089L38 17.7609V19.7529H29.504V17.4129L35.048 14.0049V13.9689L29.504 14.0169V12.0249H38V14.3529Z" fill="white"/>
<defs>
<radialGradient id="paint0_radial" cx="0" cy="0" r="1" gradientUnits="userSpaceOnUse" gradientTransform="translate(140 101) rotate(29.4846) scale(178.562)">
<stop stop-color="#FFE714"/>
<stop offset="1" stop-color="#FFB314"/>
</radialGradient>
<radialGradient id="paint1_radial" cx="0" cy="0" r="1" gradientUnits="userSpaceOnUse" gradientTransform="translate(59 165) rotate(-120.42) scale(180.59)">
<stop stop-color="#D9113A"/>
<stop offset="1" stop-color="#A9002F"/>
</radialGradient>
<radialGradient id="paint2_radial" cx="0" cy="0" r="1" gradientUnits="userSpaceOnUse" gradientTransform="translate(238 -24) rotate(-120.42) scale(180.59)">
<stop stop-color="#D9113A"/>
<stop offset="1" stop-color="#A9002F"/>
</radialGradient>
<radialGradient id="paint3_radial" cx="0" cy="0" r="1" gradientUnits="userSpaceOnUse" gradientTransform="translate(228 -34) rotate(-120.42) scale(180.59)">
<stop stop-color="#D9113A"/>
<stop offset="1" stop-color="#A9002F"/>
</radialGradient>
<radialGradient id="paint4_radial" cx="0" cy="0" r="1" gradientUnits="userSpaceOnUse" gradientTransform="translate(218 -44) rotate(-120.42) scale(180.59)">
<stop stop-color="#D9113A"/>
<stop offset="1" stop-color="#A9002F"/>
</radialGradient>
<radialGradient id="paint5_radial" cx="0" cy="0" r="1" gradientUnits="userSpaceOnUse" gradientTransform="translate(208 -54) rotate(-120.42) scale(180.59)">
<stop stop-color="#D9113A"/>
<stop offset="1" stop-color="#A9002F"/>
</radialGradient>
<linearGradient id="paint6_linear" x1="59.6873" y1="79.8841" x2="17.2945" y2="144.541" gradientUnits="userSpaceOnUse">
<stop stop-color="#232450"/>
<stop offset="1" stop-color="#323379" stop-opacity="0.2"/>
</linearGradient>
</defs>
</svg>
