<?xml version="1.0" encoding="UTF-8"?>
<svg width="120px" height="115px" viewBox="0 0 120 115" version="1.1" xmlns="http://www.w3.org/2000/svg" xmlns:xlink="http://www.w3.org/1999/xlink">
    <!-- Generator: Sketch 55 (78076) - https://sketchapp.com -->
    <title>coins</title>
    <desc>Created with Sketch.</desc>
    <g id="Page-1" stroke="none" stroke-width="1" fill="none" fill-rule="evenodd">
        <g id="JB_v2" transform="translate(-1200.000000, -1380.000000)" fill-rule="nonzero">
            <g id="dividents-countdown" transform="translate(790.000000, 1380.000000)">
                <g id="coins" transform="translate(410.000000, 0.000000)">
                    <ellipse id="Oval" fill="#FFCA5D" cx="36.5126866" cy="47.0612612" rx="36.4723881" ry="36.3508134"></ellipse>
                    <ellipse id="Oval" fill="#DF9D07" cx="83.4723881" cy="36.3508134" rx="36.4723881" ry="36.3508134"></ellipse>
                    <path d="M83.4058209,0.324437313 C63.0855224,0.324437313 46.9334328,16.4226866 46.9334328,36.6752507 C46.9334328,56.9278149 63.0855224,73.0260642 83.4058209,73.0260642 C103.726119,73.0260642 119.878209,56.9278149 119.878209,36.6752507 C119.878209,16.4226866 103.726119,0.324437313 83.4058209,0.324437313 Z M83.4058209,62.6400537 C68.8168657,62.6400537 57.3541791,51.2155761 57.3541791,36.6752507 C57.3541791,22.1349254 68.8168657,10.7104478 83.4058209,10.7104478 C97.9947761,10.7104478 109.457463,22.1349254 109.457463,36.6752507 C109.457463,51.2155761 97.9947761,62.6400537 83.4058209,62.6400537 Z" id="Shape" fill="#FFD000"></path>
                    <g id="Group-14" transform="translate(59.000000, 13.000000)">
                        <path d="M22.936406,23.8342843 C22.9695565,23.7622904 23.0202596,23.7011367 23.0826365,23.6555869 C23.1277872,23.6048241 23.1849504,23.5633446 23.2521037,23.535957 C23.2792029,23.5249048 23.3072972,23.5164701 23.3360026,23.5107678 C24.0001496,23.3788373 24.6306677,23.3128721 25.2275568,23.3128721 C25.2665549,23.3128721 25.3056966,23.3131536 25.3449819,23.3137168 C25.3842671,23.3131536 25.4234088,23.3128721 25.4624069,23.3128721 C26.059296,23.3128721 26.6898141,23.3788373 27.3539611,23.5107678 C27.3826665,23.5164701 27.4107608,23.5249048 27.43786,23.535957 C27.5050133,23.5633446 27.5621765,23.6048241 27.6073272,23.6555869 C27.6697041,23.7011367 27.7204072,23.7622904 27.7535577,23.8342843 L32.2003673,33.4915537 L35.0623301,19.768621 C35.0985864,19.5947746 35.2318791,19.4574446 35.4045666,19.4160185 C36.0666341,19.2571946 37.0525739,19.1777826 38.3623859,19.1777826 C39.4887292,19.1777826 40.3157031,19.2365058 40.8433092,19.3539453 C41.090454,19.4089605 41.2463644,19.6537231 41.1917475,19.9009562 L37.1935812,37.9993675 C37.1139219,38.3599602 36.825931,38.6377055 36.4626905,38.7042562 C35.2581273,38.9249489 34.0535641,38.9898563 32.8490009,38.8989783 C31.8843969,38.8262041 30.9197929,38.6535298 29.955189,38.3809556 C29.1389048,38.1502964 28.4744736,37.5563148 28.1541424,36.7708777 L25.3449819,29.8829524 L22.5358213,36.7708777 C22.2154901,37.5563148 21.551059,38.1502964 20.7347747,38.3809556 C19.7701708,38.6535298 18.8055668,38.8262041 17.8409628,38.8989783 C16.6363996,38.9898563 15.4318364,38.9249489 14.2272732,38.7042562 C13.8640327,38.6377055 13.5760418,38.3599602 13.4963825,37.9993675 L9.49821619,19.9009562 C9.44359935,19.6537231 9.59950973,19.4089605 9.84665598,19.3539521 C10.3742606,19.2365058 11.2012345,19.1777826 12.3275778,19.1777826 C13.6373898,19.1777826 14.6233296,19.2571946 15.2853971,19.4160185 C15.4580846,19.4574446 15.5913773,19.5947746 15.6276336,19.768621 L18.4895964,33.4915537 L22.936406,23.8342843 Z M25.7447765,7.07538222 L30.4792324,9.80882164 C30.7159058,9.94546505 30.8617025,10.1979925 30.8617025,10.4712793 L30.8617025,16.0811655 C30.8617025,16.3567019 30.7135163,16.6109469 30.4737694,16.7467473 L25.7374925,19.4295283 C25.425651,19.6061655 25.0439816,19.6061655 24.7321401,19.4295283 L19.9958632,16.7467473 C19.7561163,16.6109469 19.6079301,16.3567019 19.6079301,16.0811655 L19.6079301,10.4712793 C19.6079301,10.1979925 19.7537269,9.94546505 19.9904002,9.80882164 L24.7248561,7.07538222 C25.0404206,6.893191 25.429212,6.893191 25.7447765,7.07538222 Z M25.2348163,9.10144536 C25.7474445,9.10144536 26.1630118,8.89366172 26.1630118,8.6373476 C26.1630118,8.38103349 25.7474445,8.17324985 25.2348163,8.17324985 C24.7221881,8.17324985 24.3066208,8.38103349 24.3066208,8.6373476 C24.3066208,8.89366172 24.7221881,9.10144536 25.2348163,9.10144536 Z M25.2348163,10.4937386 C25.7474445,10.4937386 26.1630118,10.285955 26.1630118,10.0296409 C26.1630118,9.77332675 25.7474445,9.5655431 25.2348163,9.5655431 C24.7221881,9.5655431 24.3066208,9.77332675 24.3066208,10.0296409 C24.3066208,10.285955 24.7221881,10.4937386 25.2348163,10.4937386 Z M25.2348163,11.8860319 C25.7474445,11.8860319 26.1630118,11.6782482 26.1630118,11.4219341 C26.1630118,11.16562 25.7474445,10.9578364 25.2348163,10.9578364 C24.7221881,10.9578364 24.3066208,11.16562 24.3066208,11.4219341 C24.3066208,11.6782482 24.7221881,11.8860319 25.2348163,11.8860319 Z M28.0194028,10.4937386 C28.5320311,10.4937386 28.9475983,10.285955 28.9475983,10.0296409 C28.9475983,9.77332675 28.5320311,9.5655431 28.0194028,9.5655431 C27.5067746,9.5655431 27.0912073,9.77332675 27.0912073,10.0296409 C27.0912073,10.285955 27.5067746,10.4937386 28.0194028,10.4937386 Z M22.4502298,10.4937386 C22.962858,10.4937386 23.3784253,10.285955 23.3784253,10.0296409 C23.3784253,9.77332675 22.962858,9.5655431 22.4502298,9.5655431 C21.9376015,9.5655431 21.5220343,9.77332675 21.5220343,10.0296409 C21.5220343,10.285955 21.9376015,10.4937386 22.4502298,10.4937386 Z M27.9823754,14.7256501 C27.9090182,15.343128 28.0739118,15.8071474 28.3506756,15.7620664 C28.6274394,15.7169855 28.9067064,15.2365404 28.9744361,14.6889623 C29.0421657,14.1413842 28.8772721,13.6773648 28.6061359,13.6525459 C28.3349998,13.6277271 28.0557327,14.1081722 27.9823754,14.7256501 Z M20.4353368,13.6650418 C20.4572214,14.1242756 20.70562,14.471592 20.9903311,14.4408539 C21.2752426,14.4101824 21.4775388,14.0057149 21.4417591,13.5375777 C21.405725,13.0696489 21.1564714,12.7223912 20.8855347,12.76185 C20.6148936,12.8013993 20.4134523,13.205808 20.4353368,13.6650418 Z M21.5383426,14.8095184 C21.5734296,15.2782199 21.8408029,15.6392589 22.1358699,15.61577 C22.4310487,15.5923216 22.6320356,15.1855336 22.5841926,14.7075058 C22.5358073,14.229876 22.2671334,13.8693916 21.9847937,13.902052 C21.7026862,13.9347908 21.5030002,14.3410244 21.5383426,14.8095184 Z M22.7128661,16.0067486 C22.759229,16.4858511 23.0429429,16.8614807 23.3470548,16.8453846 C23.6511666,16.8292885 23.8514944,16.4196269 23.7937083,15.930887 C23.7350516,15.44271 23.4495548,15.0681097 23.1569537,15.0937314 C22.8645011,15.1194076 22.6659569,15.5280407 22.7128661,16.0067486 Z M25.5131998,12.8255097 C25.3804895,12.8865731 25.2279639,12.8877906 25.0942958,12.8288535 L22.416717,11.6482526 C22.3481138,11.618004 22.2677585,11.644882 22.2311612,11.7103191 C22.1919653,11.7804024 22.2170045,11.8689907 22.2870878,11.9081866 L24.7228402,13.2704432 C24.8745109,13.3552689 24.9725452,13.5114918 24.9829608,13.6849591 L25.1557436,16.5625809 C25.160928,16.648924 25.2303621,16.7174751 25.3167645,16.721554 C25.4101673,16.7259634 25.4894597,16.65382 25.4938691,16.5604172 L25.6297107,13.6829163 C25.6378477,13.5105529 25.7325964,13.3539955 25.8815221,13.2668375 L28.2030324,11.9081866 C28.2677732,11.8702974 28.2932187,11.7894805 28.2618632,11.7213351 C28.2281914,11.6481555 28.1415713,11.6161282 28.0683918,11.6498 L25.5131998,12.8255097 Z" id="Combined-Shape" fill="#C88300"></path>
                        <path d="M21.936406,22.8342843 C21.9695565,22.7622904 22.0202596,22.7011367 22.0826365,22.6555869 C22.1277872,22.6048241 22.1849504,22.5633446 22.2521037,22.535957 C22.2792029,22.5249048 22.3072972,22.5164701 22.3360026,22.5107678 C23.0001496,22.3788373 23.6306677,22.3128721 24.2275568,22.3128721 C24.2665549,22.3128721 24.3056966,22.3131536 24.3449819,22.3137168 C24.3842671,22.3131536 24.4234088,22.3128721 24.4624069,22.3128721 C25.059296,22.3128721 25.6898141,22.3788373 26.3539611,22.5107678 C26.3826665,22.5164701 26.4107608,22.5249048 26.43786,22.535957 C26.5050133,22.5633446 26.5621765,22.6048241 26.6073272,22.6555869 C26.6697041,22.7011367 26.7204072,22.7622904 26.7535577,22.8342843 L31.2003673,32.4915537 L34.0623301,18.768621 C34.0985864,18.5947746 34.2318791,18.4574446 34.4045666,18.4160185 C35.0666341,18.2571946 36.0525739,18.1777826 37.3623859,18.1777826 C38.4887292,18.1777826 39.3157031,18.2365058 39.8433092,18.3539453 C40.090454,18.4089605 40.2463644,18.6537231 40.1917475,18.9009562 L36.1935812,36.9993675 C36.1139219,37.3599602 35.825931,37.6377055 35.4626905,37.7042562 C34.2581273,37.9249489 33.0535641,37.9898563 31.8490009,37.8989783 C30.8843969,37.8262041 29.9197929,37.6535298 28.955189,37.3809556 C28.1389048,37.1502964 27.4744736,36.5563148 27.1541424,35.7708777 L24.3449819,28.8829524 L21.5358213,35.7708777 C21.2154901,36.5563148 20.551059,37.1502964 19.7347747,37.3809556 C18.7701708,37.6535298 17.8055668,37.8262041 16.8409628,37.8989783 C15.6363996,37.9898563 14.4318364,37.9249489 13.2272732,37.7042562 C12.8640327,37.6377055 12.5760418,37.3599602 12.4963825,36.9993675 L8.49821619,18.9009562 C8.44359935,18.6537231 8.59950973,18.4089605 8.84665598,18.3539521 C9.37426057,18.2365058 10.2012345,18.1777826 11.3275778,18.1777826 C12.6373898,18.1777826 13.6233296,18.2571946 14.2853971,18.4160185 C14.4580846,18.4574446 14.5913773,18.5947746 14.6276336,18.768621 L17.4895964,32.4915537 L21.936406,22.8342843 Z M24.7447765,6.07538222 L29.4792324,8.80882164 C29.7159058,8.94546505 29.8617025,9.1979925 29.8617025,9.47127931 L29.8617025,15.0811655 C29.8617025,15.3567019 29.7135163,15.6109469 29.4737694,15.7467473 L24.7374925,18.4295283 C24.425651,18.6061655 24.0439816,18.6061655 23.7321401,18.4295283 L18.9958632,15.7467473 C18.7561163,15.6109469 18.6079301,15.3567019 18.6079301,15.0811655 L18.6079301,9.47127931 C18.6079301,9.1979925 18.7537269,8.94546505 18.9904002,8.80882164 L23.7248561,6.07538222 C24.0404206,5.893191 24.429212,5.893191 24.7447765,6.07538222 Z M24.2348163,8.10144536 C24.7474445,8.10144536 25.1630118,7.89366172 25.1630118,7.6373476 C25.1630118,7.38103349 24.7474445,7.17324985 24.2348163,7.17324985 C23.7221881,7.17324985 23.3066208,7.38103349 23.3066208,7.6373476 C23.3066208,7.89366172 23.7221881,8.10144536 24.2348163,8.10144536 Z M24.2348163,9.49373862 C24.7474445,9.49373862 25.1630118,9.28595497 25.1630118,9.02964086 C25.1630118,8.77332675 24.7474445,8.5655431 24.2348163,8.5655431 C23.7221881,8.5655431 23.3066208,8.77332675 23.3066208,9.02964086 C23.3066208,9.28595497 23.7221881,9.49373862 24.2348163,9.49373862 Z M24.2348163,10.8860319 C24.7474445,10.8860319 25.1630118,10.6782482 25.1630118,10.4219341 C25.1630118,10.16562 24.7474445,9.95783638 24.2348163,9.95783638 C23.7221881,9.95783638 23.3066208,10.16562 23.3066208,10.4219341 C23.3066208,10.6782482 23.7221881,10.8860319 24.2348163,10.8860319 Z M27.0194028,9.49373862 C27.5320311,9.49373862 27.9475983,9.28595497 27.9475983,9.02964086 C27.9475983,8.77332675 27.5320311,8.5655431 27.0194028,8.5655431 C26.5067746,8.5655431 26.0912073,8.77332675 26.0912073,9.02964086 C26.0912073,9.28595497 26.5067746,9.49373862 27.0194028,9.49373862 Z M21.4502298,9.49373862 C21.962858,9.49373862 22.3784253,9.28595497 22.3784253,9.02964086 C22.3784253,8.77332675 21.962858,8.5655431 21.4502298,8.5655431 C20.9376015,8.5655431 20.5220343,8.77332675 20.5220343,9.02964086 C20.5220343,9.28595497 20.9376015,9.49373862 21.4502298,9.49373862 Z M26.9823754,13.7256501 C26.9090182,14.343128 27.0739118,14.8071474 27.3506756,14.7620664 C27.6274394,14.7169855 27.9067064,14.2365404 27.9744361,13.6889623 C28.0421657,13.1413842 27.8772721,12.6773648 27.6061359,12.6525459 C27.3349998,12.6277271 27.0557327,13.1081722 26.9823754,13.7256501 Z M19.4353368,12.6650418 C19.4572214,13.1242756 19.70562,13.471592 19.9903311,13.4408539 C20.2752426,13.4101824 20.4775388,13.0057149 20.4417591,12.5375777 C20.405725,12.0696489 20.1564714,11.7223912 19.8855347,11.76185 C19.6148936,11.8013993 19.4134523,12.205808 19.4353368,12.6650418 Z M20.5383426,13.8095184 C20.5734296,14.2782199 20.8408029,14.6392589 21.1358699,14.61577 C21.4310487,14.5923216 21.6320356,14.1855336 21.5841926,13.7075058 C21.5358073,13.229876 21.2671334,12.8693916 20.9847937,12.902052 C20.7026862,12.9347908 20.5030002,13.3410244 20.5383426,13.8095184 Z M21.7128661,15.0067486 C21.759229,15.4858511 22.0429429,15.8614807 22.3470548,15.8453846 C22.6511666,15.8292885 22.8514944,15.4196269 22.7937083,14.930887 C22.7350516,14.44271 22.4495548,14.0681097 22.1569537,14.0937314 C21.8645011,14.1194076 21.6659569,14.5280407 21.7128661,15.0067486 Z M24.5131998,11.8255097 C24.3804895,11.8865731 24.2279639,11.8877906 24.0942958,11.8288535 L21.416717,10.6482526 C21.3481138,10.618004 21.2677585,10.644882 21.2311612,10.7103191 C21.1919653,10.7804024 21.2170045,10.8689907 21.2870878,10.9081866 L23.7228402,12.2704432 C23.8745109,12.3552689 23.9725452,12.5114918 23.9829608,12.6849591 L24.1557436,15.5625809 C24.160928,15.648924 24.2303621,15.7174751 24.3167645,15.721554 C24.4101673,15.7259634 24.4894597,15.65382 24.4938691,15.5604172 L24.6297107,12.6829163 C24.6378477,12.5105529 24.7325964,12.3539955 24.8815221,12.2668375 L27.2030324,10.9081866 C27.2677732,10.8702974 27.2932187,10.7894805 27.2618632,10.7213351 C27.2281914,10.6481555 27.1415713,10.6161282 27.0683918,10.6498 L24.5131998,11.8255097 Z" id="Combined-Shape" fill="#FFD000"></path>
                        <path d="M24,50 C26.1958866,50 28.3576183,49.7273179 30.4488166,49.1935084 C31.5190675,48.920311 32.1652069,47.8312309 31.8920095,46.7609801 C31.6188121,45.6907292 30.529732,45.0445897 29.4594811,45.3177872 C27.6909204,45.7692386 25.8615218,46 24,46 C22.8954305,46 22,46.8954305 22,48 C22,49.1045695 22.8954305,50 24,50 Z M39.2675352,45.0473583 C41.0259907,43.7697558 42.6193799,42.2761879 44.0083238,40.6042009 C44.714138,39.7545538 44.5975384,38.4936033 43.7478913,37.7877892 C42.8982443,37.081975 41.6372938,37.1985746 40.9314796,38.0482217 C39.7551052,39.4643211 38.405472,40.7294037 36.9163825,41.8112988 C36.0227693,42.4605517 35.8246762,43.7112917 36.4739291,44.6049049 C37.123182,45.498518 38.373922,45.6966112 39.2675352,45.0473583 Z M48.7204026,32.0770709 C49.3919134,30.0206428 49.8050799,27.8795128 49.9457575,25.6919642 C50.016644,24.5896716 49.1805243,23.638622 48.0782318,23.5677354 C46.9759392,23.4968488 46.0248896,24.3329686 45.954003,25.4352611 C45.8349268,27.2869065 45.4856054,29.0971757 44.9179939,30.8354236 C44.5751225,31.8854298 45.1483685,33.0145802 46.1983746,33.3574516 C47.2483808,33.7003231 48.3775312,33.1270771 48.7204026,32.0770709 Z M48.7565656,16.0345332 C48.0893578,13.9593637 47.1633062,11.9813835 46.0034036,10.1431343 C45.4139698,9.20898142 44.1788587,8.92953145 43.2447059,9.51896529 C42.310553,10.1083991 42.0311031,11.3435102 42.6205369,12.277663 C43.6016679,13.8325894 44.3846143,15.5049072 44.9485525,17.2588843 C45.2866477,18.3104381 46.4131808,18.8888106 47.4647346,18.5507153 C48.5162884,18.2126201 49.0946609,17.086087 48.7565656,16.0345332 Z M39.3976097,3.04776248 C37.6467023,1.75904098 35.7404263,0.693387807 33.7214789,-0.121023215 C32.6971116,-0.534236606 31.5317221,-0.038798429 31.1185087,0.985568924 C30.7052954,2.00993628 31.2007335,3.17532573 32.2251009,3.58853912 C33.9321902,4.27715162 35.544728,5.17859818 37.0265081,6.26923373 C37.9160928,6.92399537 39.1680329,6.73363365 39.8227945,5.84404893 C40.4775561,4.95446421 40.2871944,3.70252412 39.3976097,3.04776248 Z M24.1272436,-1.99969471 C24.0643797,-1.99994672 24.0643797,-1.99994672 24.0014725,-1.99999996 C21.8479277,-2 19.7283764,-1.73809037 17.6755889,-1.2249358 C16.6039939,-0.957059127 15.9524514,0.128797216 16.2203281,1.20039223 C16.4882048,2.27198724 17.5740611,2.92352969 18.6456561,2.65565302 C20.3817893,2.2216555 22.1755767,2 24.0013614,2.00000004 C24.0546698,2.00004524 24.0546698,2.00004524 24.1080462,2.00025923 C25.212603,2.00556044 26.1123206,1.11443773 26.1176219,0.00988095413 C26.1229231,-1.09467582 25.2318004,-1.99439349 24.1272436,-1.99969471 Z M8.83537888,2.87825191 C7.07056921,4.14738658 5.46983664,5.63335474 4.07269248,7.29875173 C3.36277532,8.14497357 3.4732721,9.40647348 4.31949394,10.1163906 C5.16571578,10.8263078 6.42721569,10.715811 7.13713285,9.86958919 C8.32045926,8.45906313 9.67630279,7.20042671 11.1707453,6.12572226 C12.0675095,5.48082863 12.2716909,4.23106805 11.6267973,3.33430387 C10.9819036,2.4375397 9.73214305,2.23335828 8.83537888,2.87825191 Z M-0.680609406,15.8020769 C-1.36232292,17.8553918 -1.78599219,19.9944787 -1.93727315,22.1809276 C-2.01351632,23.2828626 -1.1820288,24.2379647 -0.0800937943,24.3142079 C1.02184121,24.390451 1.97694333,23.5589635 2.0531865,22.4570285 C2.18122627,20.6064824 2.53940966,18.7980308 3.11563239,17.0624531 C3.46367567,16.0141499 2.89600283,14.8821874 1.84769961,14.5341441 C0.799396381,14.1861008 -0.33256612,14.7537737 -0.680609406,15.8020769 Z M-0.795252231,31.8441159 C-0.138274282,33.9226128 0.777976811,35.9049844 1.92873345,37.7487274 C2.51357558,38.6857618 3.74730026,38.9712701 4.68433466,38.3864279 C5.62136907,37.8015858 5.90687732,36.5678611 5.32203519,35.6308267 C4.34867369,34.0713063 3.57403842,32.3953302 3.01875661,30.6385718 C2.68585481,29.5853623 1.56218961,29.0014376 0.50898015,29.3343394 C-0.54422931,29.6672412 -1.12815404,30.7909064 -0.795252231,31.8441159 Z M8.5003405,44.8767422 C10.2449968,46.173999 12.1460766,47.2489595 14.1608882,48.0732356 C15.1832129,48.4914772 16.3510225,48.001771 16.7692641,46.9794463 C17.1875056,45.9571216 16.6977994,44.7893119 15.6754747,44.3710704 C13.9718295,43.674095 12.3636276,42.7647415 10.8870903,41.6668473 C10.0007023,41.0077645 8.74785068,41.1920319 8.08876793,42.0784199 C7.42968517,42.9648079 7.61395249,44.2176595 8.5003405,44.8767422 Z M23.7967365,49.9992208 C23.8983114,49.99987 23.8983114,49.99987 24,50 C25.1045695,50 26,49.1045695 26,48 C26,46.8954305 25.1045695,46 24,46 C23.9136497,45.9998896 23.9136497,45.9998896 23.8274122,45.9993384 C22.7228751,45.9908676 21.820604,46.8794047 21.8121331,47.9839418 C21.8036623,49.0884788 22.6921994,49.9907499 23.7967365,49.9992208 Z" id="Oval" fill="#C88300"></path>
                    </g>
                    <g id="Group" transform="translate(47.014925, 11.630448)" fill="#C86908" opacity="0.5">
                        <path d="M55.668806,55.6829313 C52.021791,42.7005299 42.9689552,33.0628776 30.9850746,28.3895522 C25.3110448,7.51791045 10.2507143,-0.25172551 9.95386371,0.0898085713 C4.20799263,6.70057722 0.439253731,15.1434901 0.439253731,24.5253463 C0.439253731,44.7779104 16.5913433,60.8761597 36.9116418,60.8761597 C43.6853731,61.3951701 49.9374627,59.3182358 55.668806,55.6829313 Z" id="Path"></path>
                    </g>
                    <g id="Group" transform="translate(77.313433, 39.404478)" fill="#C86908" opacity="0.5">
                        <path d="M0.881791045,0.386620896 L0.881791045,7.65678358 C0.881791045,10.7726313 2.9661194,12.8495657 6.0919403,12.8495657 C9.21776119,12.8495657 11.3020896,10.7721851 11.3020896,7.65678358 L11.3020896,6.61831642 C8.17626866,4.0214791 4.52925373,1.94454478 0.881791045,0.386620896 Z" id="Path"></path>
                    </g>
                    <path d="M102.683731,67.3133791 C101.641791,63.6785209 100.599403,60.5626731 98.5155224,57.4468254 C94.3473134,60.5626731 89.1371642,62.6396075 83.4058209,62.6396075 C68.8168657,62.6396075 57.3541791,51.2151299 57.3541791,36.6748045 C57.3541791,28.8851851 60.4804478,22.1344791 65.690597,17.4607075 C63.0855224,14.8643164 60.4804478,12.7869358 57.3541791,11.2290119 C51.1016418,17.9797179 46.9334328,26.8078045 46.9334328,36.6743582 C46.9334328,56.9269224 63.0855224,73.0251716 83.4058209,73.0251716 C90.7002985,73.0256179 96.9523881,70.9486836 102.683731,67.3133791 Z" id="Path" fill="#D38307" opacity="0.100000001"></path>
                    <ellipse id="Oval" fill="#DF9D07" cx="36.5126866" cy="47.0612612" rx="36.4723881" ry="36.3508134"></ellipse>
                    <g id="Group-14" transform="translate(10.512687, 21.061261)">
                        <path d="M24.936406,25.8342843 C24.9695565,25.7622904 25.0202596,25.7011367 25.0826365,25.6555869 C25.1277872,25.6048241 25.1849504,25.5633446 25.2521037,25.535957 C25.2792029,25.5249048 25.3072972,25.5164701 25.3360026,25.5107678 C26.0001496,25.3788373 26.6306677,25.3128721 27.2275568,25.3128721 C27.2665549,25.3128721 27.3056966,25.3131536 27.3449819,25.3137168 C27.3842671,25.3131536 27.4234088,25.3128721 27.4624069,25.3128721 C28.059296,25.3128721 28.6898141,25.3788373 29.3539611,25.5107678 C29.3826665,25.5164701 29.4107608,25.5249048 29.43786,25.535957 C29.5050133,25.5633446 29.5621765,25.6048241 29.6073272,25.6555869 C29.6697041,25.7011367 29.7204072,25.7622904 29.7535577,25.8342843 L34.2003673,35.4915537 L37.0623301,21.768621 C37.0985864,21.5947746 37.2318791,21.4574446 37.4045666,21.4160185 C38.0666341,21.2571946 39.0525739,21.1777826 40.3623859,21.1777826 C41.4887292,21.1777826 42.3157031,21.2365058 42.8433092,21.3539453 C43.090454,21.4089605 43.2463644,21.6537231 43.1917475,21.9009562 L39.1935812,39.9993675 C39.1139219,40.3599602 38.825931,40.6377055 38.4626905,40.7042562 C37.2581273,40.9249489 36.0535641,40.9898563 34.8490009,40.8989783 C33.8843969,40.8262041 32.9197929,40.6535298 31.955189,40.3809556 C31.1389048,40.1502964 30.4744736,39.5563148 30.1541424,38.7708777 L27.3449819,31.8829524 L24.5358213,38.7708777 C24.2154901,39.5563148 23.551059,40.1502964 22.7347747,40.3809556 C21.7701708,40.6535298 20.8055668,40.8262041 19.8409628,40.8989783 C18.6363996,40.9898563 17.4318364,40.9249489 16.2272732,40.7042562 C15.8640327,40.6377055 15.5760418,40.3599602 15.4963825,39.9993675 L11.4982162,21.9009562 C11.4435994,21.6537231 11.5995097,21.4089605 11.846656,21.3539521 C12.3742606,21.2365058 13.2012345,21.1777826 14.3275778,21.1777826 C15.6373898,21.1777826 16.6233296,21.2571946 17.2853971,21.4160185 C17.4580846,21.4574446 17.5913773,21.5947746 17.6276336,21.768621 L20.4895964,35.4915537 L24.936406,25.8342843 Z M27.7447765,9.07538222 L32.4792324,11.8088216 C32.7159058,11.9454651 32.8617025,12.1979925 32.8617025,12.4712793 L32.8617025,18.0811655 C32.8617025,18.3567019 32.7135163,18.6109469 32.4737694,18.7467473 L27.7374925,21.4295283 C27.425651,21.6061655 27.0439816,21.6061655 26.7321401,21.4295283 L21.9958632,18.7467473 C21.7561163,18.6109469 21.6079301,18.3567019 21.6079301,18.0811655 L21.6079301,12.4712793 C21.6079301,12.1979925 21.7537269,11.9454651 21.9904002,11.8088216 L26.7248561,9.07538222 C27.0404206,8.893191 27.429212,8.893191 27.7447765,9.07538222 Z M27.2348163,11.1014454 C27.7474445,11.1014454 28.1630118,10.8936617 28.1630118,10.6373476 C28.1630118,10.3810335 27.7474445,10.1732498 27.2348163,10.1732498 C26.7221881,10.1732498 26.3066208,10.3810335 26.3066208,10.6373476 C26.3066208,10.8936617 26.7221881,11.1014454 27.2348163,11.1014454 Z M27.2348163,12.4937386 C27.7474445,12.4937386 28.1630118,12.285955 28.1630118,12.0296409 C28.1630118,11.7733268 27.7474445,11.5655431 27.2348163,11.5655431 C26.7221881,11.5655431 26.3066208,11.7733268 26.3066208,12.0296409 C26.3066208,12.285955 26.7221881,12.4937386 27.2348163,12.4937386 Z M27.2348163,13.8860319 C27.7474445,13.8860319 28.1630118,13.6782482 28.1630118,13.4219341 C28.1630118,13.16562 27.7474445,12.9578364 27.2348163,12.9578364 C26.7221881,12.9578364 26.3066208,13.16562 26.3066208,13.4219341 C26.3066208,13.6782482 26.7221881,13.8860319 27.2348163,13.8860319 Z M30.0194028,12.4937386 C30.5320311,12.4937386 30.9475983,12.285955 30.9475983,12.0296409 C30.9475983,11.7733268 30.5320311,11.5655431 30.0194028,11.5655431 C29.5067746,11.5655431 29.0912073,11.7733268 29.0912073,12.0296409 C29.0912073,12.285955 29.5067746,12.4937386 30.0194028,12.4937386 Z M24.4502298,12.4937386 C24.962858,12.4937386 25.3784253,12.285955 25.3784253,12.0296409 C25.3784253,11.7733268 24.962858,11.5655431 24.4502298,11.5655431 C23.9376015,11.5655431 23.5220343,11.7733268 23.5220343,12.0296409 C23.5220343,12.285955 23.9376015,12.4937386 24.4502298,12.4937386 Z M29.9823754,16.7256501 C29.9090182,17.343128 30.0739118,17.8071474 30.3506756,17.7620664 C30.6274394,17.7169855 30.9067064,17.2365404 30.9744361,16.6889623 C31.0421657,16.1413842 30.8772721,15.6773648 30.6061359,15.6525459 C30.3349998,15.6277271 30.0557327,16.1081722 29.9823754,16.7256501 Z M22.4353368,15.6650418 C22.4572214,16.1242756 22.70562,16.471592 22.9903311,16.4408539 C23.2752426,16.4101824 23.4775388,16.0057149 23.4417591,15.5375777 C23.405725,15.0696489 23.1564714,14.7223912 22.8855347,14.76185 C22.6148936,14.8013993 22.4134523,15.205808 22.4353368,15.6650418 Z M23.5383426,16.8095184 C23.5734296,17.2782199 23.8408029,17.6392589 24.1358699,17.61577 C24.4310487,17.5923216 24.6320356,17.1855336 24.5841926,16.7075058 C24.5358073,16.229876 24.2671334,15.8693916 23.9847937,15.902052 C23.7026862,15.9347908 23.5030002,16.3410244 23.5383426,16.8095184 Z M24.7128661,18.0067486 C24.759229,18.4858511 25.0429429,18.8614807 25.3470548,18.8453846 C25.6511666,18.8292885 25.8514944,18.4196269 25.7937083,17.930887 C25.7350516,17.44271 25.4495548,17.0681097 25.1569537,17.0937314 C24.8645011,17.1194076 24.6659569,17.5280407 24.7128661,18.0067486 Z M27.5131998,14.8255097 C27.3804895,14.8865731 27.2279639,14.8877906 27.0942958,14.8288535 L24.416717,13.6482526 C24.3481138,13.618004 24.2677585,13.644882 24.2311612,13.7103191 C24.1919653,13.7804024 24.2170045,13.8689907 24.2870878,13.9081866 L26.7228402,15.2704432 C26.8745109,15.3552689 26.9725452,15.5114918 26.9829608,15.6849591 L27.1557436,18.5625809 C27.160928,18.648924 27.2303621,18.7174751 27.3167645,18.721554 C27.4101673,18.7259634 27.4894597,18.65382 27.4938691,18.5604172 L27.6297107,15.6829163 C27.6378477,15.5105529 27.7325964,15.3539955 27.8815221,15.2668375 L30.2030324,13.9081866 C30.2677732,13.8702974 30.2932187,13.7894805 30.2618632,13.7213351 C30.2281914,13.6481555 30.1415713,13.6161282 30.0683918,13.6498 L27.5131998,14.8255097 Z" id="Combined-Shape" fill="#C88300"></path>
                        <path d="M23.936406,24.8342843 C23.9695565,24.7622904 24.0202596,24.7011367 24.0826365,24.6555869 C24.1277872,24.6048241 24.1849504,24.5633446 24.2521037,24.535957 C24.2792029,24.5249048 24.3072972,24.5164701 24.3360026,24.5107678 C25.0001496,24.3788373 25.6306677,24.3128721 26.2275568,24.3128721 C26.2665549,24.3128721 26.3056966,24.3131536 26.3449819,24.3137168 C26.3842671,24.3131536 26.4234088,24.3128721 26.4624069,24.3128721 C27.059296,24.3128721 27.6898141,24.3788373 28.3539611,24.5107678 C28.3826665,24.5164701 28.4107608,24.5249048 28.43786,24.535957 C28.5050133,24.5633446 28.5621765,24.6048241 28.6073272,24.6555869 C28.6697041,24.7011367 28.7204072,24.7622904 28.7535577,24.8342843 L33.2003673,34.4915537 L36.0623301,20.768621 C36.0985864,20.5947746 36.2318791,20.4574446 36.4045666,20.4160185 C37.0666341,20.2571946 38.0525739,20.1777826 39.3623859,20.1777826 C40.4887292,20.1777826 41.3157031,20.2365058 41.8433092,20.3539453 C42.090454,20.4089605 42.2463644,20.6537231 42.1917475,20.9009562 L38.1935812,38.9993675 C38.1139219,39.3599602 37.825931,39.6377055 37.4626905,39.7042562 C36.2581273,39.9249489 35.0535641,39.9898563 33.8490009,39.8989783 C32.8843969,39.8262041 31.9197929,39.6535298 30.955189,39.3809556 C30.1389048,39.1502964 29.4744736,38.5563148 29.1541424,37.7708777 L26.3449819,30.8829524 L23.5358213,37.7708777 C23.2154901,38.5563148 22.551059,39.1502964 21.7347747,39.3809556 C20.7701708,39.6535298 19.8055668,39.8262041 18.8409628,39.8989783 C17.6363996,39.9898563 16.4318364,39.9249489 15.2272732,39.7042562 C14.8640327,39.6377055 14.5760418,39.3599602 14.4963825,38.9993675 L10.4982162,20.9009562 C10.4435994,20.6537231 10.5995097,20.4089605 10.846656,20.3539521 C11.3742606,20.2365058 12.2012345,20.1777826 13.3275778,20.1777826 C14.6373898,20.1777826 15.6233296,20.2571946 16.2853971,20.4160185 C16.4580846,20.4574446 16.5913773,20.5947746 16.6276336,20.768621 L19.4895964,34.4915537 L23.936406,24.8342843 Z M26.7447765,8.07538222 L31.4792324,10.8088216 C31.7159058,10.9454651 31.8617025,11.1979925 31.8617025,11.4712793 L31.8617025,17.0811655 C31.8617025,17.3567019 31.7135163,17.6109469 31.4737694,17.7467473 L26.7374925,20.4295283 C26.425651,20.6061655 26.0439816,20.6061655 25.7321401,20.4295283 L20.9958632,17.7467473 C20.7561163,17.6109469 20.6079301,17.3567019 20.6079301,17.0811655 L20.6079301,11.4712793 C20.6079301,11.1979925 20.7537269,10.9454651 20.9904002,10.8088216 L25.7248561,8.07538222 C26.0404206,7.893191 26.429212,7.893191 26.7447765,8.07538222 Z M26.2348163,10.1014454 C26.7474445,10.1014454 27.1630118,9.89366172 27.1630118,9.6373476 C27.1630118,9.38103349 26.7474445,9.17324985 26.2348163,9.17324985 C25.7221881,9.17324985 25.3066208,9.38103349 25.3066208,9.6373476 C25.3066208,9.89366172 25.7221881,10.1014454 26.2348163,10.1014454 Z M26.2348163,11.4937386 C26.7474445,11.4937386 27.1630118,11.285955 27.1630118,11.0296409 C27.1630118,10.7733268 26.7474445,10.5655431 26.2348163,10.5655431 C25.7221881,10.5655431 25.3066208,10.7733268 25.3066208,11.0296409 C25.3066208,11.285955 25.7221881,11.4937386 26.2348163,11.4937386 Z M26.2348163,12.8860319 C26.7474445,12.8860319 27.1630118,12.6782482 27.1630118,12.4219341 C27.1630118,12.16562 26.7474445,11.9578364 26.2348163,11.9578364 C25.7221881,11.9578364 25.3066208,12.16562 25.3066208,12.4219341 C25.3066208,12.6782482 25.7221881,12.8860319 26.2348163,12.8860319 Z M29.0194028,11.4937386 C29.5320311,11.4937386 29.9475983,11.285955 29.9475983,11.0296409 C29.9475983,10.7733268 29.5320311,10.5655431 29.0194028,10.5655431 C28.5067746,10.5655431 28.0912073,10.7733268 28.0912073,11.0296409 C28.0912073,11.285955 28.5067746,11.4937386 29.0194028,11.4937386 Z M23.4502298,11.4937386 C23.962858,11.4937386 24.3784253,11.285955 24.3784253,11.0296409 C24.3784253,10.7733268 23.962858,10.5655431 23.4502298,10.5655431 C22.9376015,10.5655431 22.5220343,10.7733268 22.5220343,11.0296409 C22.5220343,11.285955 22.9376015,11.4937386 23.4502298,11.4937386 Z M28.9823754,15.7256501 C28.9090182,16.343128 29.0739118,16.8071474 29.3506756,16.7620664 C29.6274394,16.7169855 29.9067064,16.2365404 29.9744361,15.6889623 C30.0421657,15.1413842 29.8772721,14.6773648 29.6061359,14.6525459 C29.3349998,14.6277271 29.0557327,15.1081722 28.9823754,15.7256501 Z M21.4353368,14.6650418 C21.4572214,15.1242756 21.70562,15.471592 21.9903311,15.4408539 C22.2752426,15.4101824 22.4775388,15.0057149 22.4417591,14.5375777 C22.405725,14.0696489 22.1564714,13.7223912 21.8855347,13.76185 C21.6148936,13.8013993 21.4134523,14.205808 21.4353368,14.6650418 Z M22.5383426,15.8095184 C22.5734296,16.2782199 22.8408029,16.6392589 23.1358699,16.61577 C23.4310487,16.5923216 23.6320356,16.1855336 23.5841926,15.7075058 C23.5358073,15.229876 23.2671334,14.8693916 22.9847937,14.902052 C22.7026862,14.9347908 22.5030002,15.3410244 22.5383426,15.8095184 Z M23.7128661,17.0067486 C23.759229,17.4858511 24.0429429,17.8614807 24.3470548,17.8453846 C24.6511666,17.8292885 24.8514944,17.4196269 24.7937083,16.930887 C24.7350516,16.44271 24.4495548,16.0681097 24.1569537,16.0937314 C23.8645011,16.1194076 23.6659569,16.5280407 23.7128661,17.0067486 Z M26.5131998,13.8255097 C26.3804895,13.8865731 26.2279639,13.8877906 26.0942958,13.8288535 L23.416717,12.6482526 C23.3481138,12.618004 23.2677585,12.644882 23.2311612,12.7103191 C23.1919653,12.7804024 23.2170045,12.8689907 23.2870878,12.9081866 L25.7228402,14.2704432 C25.8745109,14.3552689 25.9725452,14.5114918 25.9829608,14.6849591 L26.1557436,17.5625809 C26.160928,17.648924 26.2303621,17.7174751 26.3167645,17.721554 C26.4101673,17.7259634 26.4894597,17.65382 26.4938691,17.5604172 L26.6297107,14.6829163 C26.6378477,14.5105529 26.7325964,14.3539955 26.8815221,14.2668375 L29.2030324,12.9081866 C29.2677732,12.8702974 29.2932187,12.7894805 29.2618632,12.7213351 C29.2281914,12.6481555 29.1415713,12.6161282 29.0683918,12.6498 L26.5131998,13.8255097 Z" id="Combined-Shape" fill="#FFD000"></path>
                        <path d="M26,52 C28.1958866,52 30.3576183,51.7273179 32.4488166,51.1935084 C33.5190675,50.920311 34.1652069,49.8312309 33.8920095,48.7609801 C33.6188121,47.6907292 32.529732,47.0445897 31.4594811,47.3177872 C29.6909204,47.7692386 27.8615218,48 26,48 C24.8954305,48 24,48.8954305 24,50 C24,51.1045695 24.8954305,52 26,52 Z M41.2675352,47.0473583 C43.0259907,45.7697558 44.6193799,44.2761879 46.0083238,42.6042009 C46.714138,41.7545538 46.5975384,40.4936033 45.7478913,39.7877892 C44.8982443,39.081975 43.6372938,39.1985746 42.9314796,40.0482217 C41.7551052,41.4643211 40.405472,42.7294037 38.9163825,43.8112988 C38.0227693,44.4605517 37.8246762,45.7112917 38.4739291,46.6049049 C39.123182,47.498518 40.373922,47.6966112 41.2675352,47.0473583 Z M50.7204026,34.0770709 C51.3919134,32.0206428 51.8050799,29.8795128 51.9457575,27.6919642 C52.016644,26.5896716 51.1805243,25.638622 50.0782318,25.5677354 C48.9759392,25.4968488 48.0248896,26.3329686 47.954003,27.4352611 C47.8349268,29.2869065 47.4856054,31.0971757 46.9179939,32.8354236 C46.5751225,33.8854298 47.1483685,35.0145802 48.1983746,35.3574516 C49.2483808,35.7003231 50.3775312,35.1270771 50.7204026,34.0770709 Z M50.7565656,18.0345332 C50.0893578,15.9593637 49.1633062,13.9813835 48.0034036,12.1431343 C47.4139698,11.2089814 46.1788587,10.9295315 45.2447059,11.5189653 C44.310553,12.1083991 44.0311031,13.3435102 44.6205369,14.277663 C45.6016679,15.8325894 46.3846143,17.5049072 46.9485525,19.2588843 C47.2866477,20.3104381 48.4131808,20.8888106 49.4647346,20.5507153 C50.5162884,20.2126201 51.0946609,19.086087 50.7565656,18.0345332 Z M41.3976097,5.04776248 C39.6467023,3.75904098 37.7404263,2.69338781 35.7214789,1.87897678 C34.6971116,1.46576339 33.5317221,1.96120157 33.1185087,2.98556892 C32.7052954,4.00993628 33.2007335,5.17532573 34.2251009,5.58853912 C35.9321902,6.27715162 37.544728,7.17859818 39.0265081,8.26923373 C39.9160928,8.92399537 41.1680329,8.73363365 41.8227945,7.84404893 C42.4775561,6.95446421 42.2871944,5.70252412 41.3976097,5.04776248 Z M26.1272436,0.000305293915 C26.0643797,5.3279327e-05 26.0643797,5.3279327e-05 26.0014725,4.08693666e-08 C23.8479277,-2.58820809e-09 21.7283764,0.261909628 19.6755889,0.775064203 C18.6039939,1.04294087 17.9524514,2.12879722 18.2203281,3.20039223 C18.4882048,4.27198724 19.5740611,4.92352969 20.6456561,4.65565302 C22.3817893,4.2216555 24.1755767,4 26.0013614,4.00000004 C26.0546698,4.00004524 26.0546698,4.00004524 26.1080462,4.00025923 C27.212603,4.00556044 28.1123206,3.11443773 28.1176219,2.00988095 C28.1229231,0.905324176 27.2318004,0.00560650627 26.1272436,0.000305293915 Z M10.8353789,4.87825191 C9.07056921,6.14738658 7.46983664,7.63335474 6.07269248,9.29875173 C5.36277532,10.1449736 5.4732721,11.4064735 6.31949394,12.1163906 C7.16571578,12.8263078 8.42721569,12.715811 9.13713285,11.8695892 C10.3204593,10.4590631 11.6763028,9.20042671 13.1707453,8.12572226 C14.0675095,7.48082863 14.2716909,6.23106805 13.6267973,5.33430387 C12.9819036,4.4375397 11.7321431,4.23335828 10.8353789,4.87825191 Z M1.31939059,17.8020769 C0.637677084,19.8553918 0.214007812,21.9944787 0.0627268471,24.1809276 C-0.0135163221,25.2828626 0.817971199,26.2379647 1.91990621,26.3142079 C3.02184121,26.390451 3.97694333,25.5589635 4.0531865,24.4570285 C4.18122627,22.6064824 4.53940966,20.7980308 5.11563239,19.0624531 C5.46367567,18.0141499 4.89600283,16.8821874 3.84769961,16.5341441 C2.79939638,16.1861008 1.66743388,16.7537737 1.31939059,17.8020769 Z M1.20474777,33.8441159 C1.86172572,35.9226128 2.77797681,37.9049844 3.92873345,39.7487274 C4.51357558,40.6857618 5.74730026,40.9712701 6.68433466,40.3864279 C7.62136907,39.8015858 7.90687732,38.5678611 7.32203519,37.6308267 C6.34867369,36.0713063 5.57403842,34.3953302 5.01875661,32.6385718 C4.68585481,31.5853623 3.56218961,31.0014376 2.50898015,31.3343394 C1.45577069,31.6672412 0.871845963,32.7909064 1.20474777,33.8441159 Z M10.5003405,46.8767422 C12.2449968,48.173999 14.1460766,49.2489595 16.1608882,50.0732356 C17.1832129,50.4914772 18.3510225,50.001771 18.7692641,48.9794463 C19.1875056,47.9571216 18.6977994,46.7893119 17.6754747,46.3710704 C15.9718295,45.674095 14.3636276,44.7647415 12.8870903,43.6668473 C12.0007023,43.0077645 10.7478507,43.1920319 10.0887679,44.0784199 C9.42968517,44.9648079 9.61395249,46.2176595 10.5003405,46.8767422 Z M25.7967365,51.9992208 C25.8983114,51.99987 25.8983114,51.99987 26,52 C27.1045695,52 28,51.1045695 28,50 C28,48.8954305 27.1045695,48 26,48 C25.9136497,47.9998896 25.9136497,47.9998896 25.8274122,47.9993384 C24.7228751,47.9908676 23.820604,48.8794047 23.8121331,49.9839418 C23.8036623,51.0884788 24.6921994,51.9907499 25.7967365,51.9992208 Z" id="Oval" fill="#C88300"></path>
                    </g>
                    <path d="M36.4723881,11 C16.1520896,11 0,27.0982493 0,47.3508134 C0,67.6033776 16.1520896,83.7016269 36.4723881,83.7016269 C56.7926866,83.7016269 72.9447761,67.6029313 72.9447761,47.3508134 C72.9447761,27.0986955 56.7926866,11 36.4723881,11 Z M36.4723881,73.3151701 C21.8834328,73.3151701 10.4207463,61.8906925 10.4207463,47.3503672 C10.4207463,32.8100418 21.8834328,21.3855642 36.4723881,21.3855642 C51.0613433,21.3855642 62.5240299,32.8100418 62.5240299,47.3503672 C62.5240299,61.8906925 51.0613433,73.3151701 36.4723881,73.3151701 Z" id="Shape" fill="#FFD000"></path>
                    <path d="M31.3025373,73.0256179 C31.3025373,76.6604761 31.8237313,79.7763239 32.8656716,83.4116284 C33.9076119,83.4116284 35.4707463,83.4116284 36.5126866,83.4116284 C56.8329851,83.4116284 72.9850746,67.3133791 72.9850746,47.0608149 C72.9850746,43.4259567 72.4638806,40.310109 71.4219403,36.6748045 C70.38,36.6748045 68.8168657,36.6748045 67.7749254,36.6748045 C47.4546269,36.6752507 31.3025373,52.7735 31.3025373,73.0256179 Z" id="Path" fill="#C86908" opacity="0.5"></path>
                    <path d="M36.5126866,82.8921716 L36.5126866,82.8921716 C56.8329851,83.4116284 72.9850746,66.7943687 72.9850746,47.0612612 L72.4638806,47.0612612 C69.858806,47.0612612 67.7744776,49.1386418 67.2537313,51.7350328 C66.211791,59.0051955 62.5643284,65.7559015 57.3541791,70.4296731 C53.1859701,74.5839881 47.4546269,77.1803791 41.2020896,78.2192925 C38.5970149,78.2188463 36.5126866,80.2957806 36.5126866,82.8921716 Z" id="Path" fill="#F6B545"></path>
                    <path d="M52.1440299,63.1590642 C51.6228358,63.1590642 51.1020896,63.1590642 50.5808955,62.6396075 C49.5389552,61.6011403 49.5389552,60.0432164 50.5808955,59.0047493 C53.7071642,55.8889015 55.2702985,51.2151299 55.2702985,47.0608149 C55.2702985,45.502891 56.3122388,44.4644239 57.8753731,44.4644239 C59.4385075,44.4644239 60.4804478,45.502891 60.4804478,47.0608149 C60.4804478,52.7730537 58.3961194,58.4852925 54.7491045,62.6396075 C53.7067164,63.1590642 52.6647761,63.1590642 52.1440299,63.1590642 Z" id="Path" fill="#FFCB5B"></path>
                    <g id="Group" transform="translate(25.970149, 41.594030)" fill="#DF9D07">
                        <ellipse id="Oval" cx="36.4723881" cy="36.3508134" rx="36.4723881" ry="36.3508134"></ellipse>
                    </g>
                    <path d="M62.5643284,41.8680328 C42.2440299,41.8680328 26.0919403,57.9662821 26.0919403,78.2188463 C26.0919403,98.4714104 42.2440299,114.56966 62.5643284,114.56966 C82.8846269,114.56966 99.0367164,98.4714104 99.0367164,78.2188463 C99.0367164,57.9662821 82.8846269,41.8680328 62.5643284,41.8680328 Z M62.5643284,104.183649 C47.9753731,104.183649 36.5126866,92.7591716 36.5126866,78.2188463 C36.5126866,63.6785209 47.9753731,52.2540433 62.5643284,52.2540433 C77.1532836,52.2540433 88.6159701,63.6785209 88.6159701,78.2188463 C88.6159701,92.7591716 77.1532836,104.183649 62.5643284,104.183649 Z" id="Shape" fill="#FFD000"></path>
                    <g id="Group-14" transform="translate(39.000000, 54.000000)">
                        <path d="M21.936406,23.8342843 C21.9695565,23.7622904 22.0202596,23.7011367 22.0826365,23.6555869 C22.1277872,23.6048241 22.1849504,23.5633446 22.2521037,23.535957 C22.2792029,23.5249048 22.3072972,23.5164701 22.3360026,23.5107678 C23.0001496,23.3788373 23.6306677,23.3128721 24.2275568,23.3128721 C24.2665549,23.3128721 24.3056966,23.3131536 24.3449819,23.3137168 C24.3842671,23.3131536 24.4234088,23.3128721 24.4624069,23.3128721 C25.059296,23.3128721 25.6898141,23.3788373 26.3539611,23.5107678 C26.3826665,23.5164701 26.4107608,23.5249048 26.43786,23.535957 C26.5050133,23.5633446 26.5621765,23.6048241 26.6073272,23.6555869 C26.6697041,23.7011367 26.7204072,23.7622904 26.7535577,23.8342843 L31.2003673,33.4915537 L34.0623301,19.768621 C34.0985864,19.5947746 34.2318791,19.4574446 34.4045666,19.4160185 C35.0666341,19.2571946 36.0525739,19.1777826 37.3623859,19.1777826 C38.4887292,19.1777826 39.3157031,19.2365058 39.8433092,19.3539453 C40.090454,19.4089605 40.2463644,19.6537231 40.1917475,19.9009562 L36.1935812,37.9993675 C36.1139219,38.3599602 35.825931,38.6377055 35.4626905,38.7042562 C34.2581273,38.9249489 33.0535641,38.9898563 31.8490009,38.8989783 C30.8843969,38.8262041 29.9197929,38.6535298 28.955189,38.3809556 C28.1389048,38.1502964 27.4744736,37.5563148 27.1541424,36.7708777 L24.3449819,29.8829524 L21.5358213,36.7708777 C21.2154901,37.5563148 20.551059,38.1502964 19.7347747,38.3809556 C18.7701708,38.6535298 17.8055668,38.8262041 16.8409628,38.8989783 C15.6363996,38.9898563 14.4318364,38.9249489 13.2272732,38.7042562 C12.8640327,38.6377055 12.5760418,38.3599602 12.4963825,37.9993675 L8.49821619,19.9009562 C8.44359935,19.6537231 8.59950973,19.4089605 8.84665598,19.3539521 C9.37426057,19.2365058 10.2012345,19.1777826 11.3275778,19.1777826 C12.6373898,19.1777826 13.6233296,19.2571946 14.2853971,19.4160185 C14.4580846,19.4574446 14.5913773,19.5947746 14.6276336,19.768621 L17.4895964,33.4915537 L21.936406,23.8342843 Z M24.7447765,7.07538222 L29.4792324,9.80882164 C29.7159058,9.94546505 29.8617025,10.1979925 29.8617025,10.4712793 L29.8617025,16.0811655 C29.8617025,16.3567019 29.7135163,16.6109469 29.4737694,16.7467473 L24.7374925,19.4295283 C24.425651,19.6061655 24.0439816,19.6061655 23.7321401,19.4295283 L18.9958632,16.7467473 C18.7561163,16.6109469 18.6079301,16.3567019 18.6079301,16.0811655 L18.6079301,10.4712793 C18.6079301,10.1979925 18.7537269,9.94546505 18.9904002,9.80882164 L23.7248561,7.07538222 C24.0404206,6.893191 24.429212,6.893191 24.7447765,7.07538222 Z M24.2348163,9.10144536 C24.7474445,9.10144536 25.1630118,8.89366172 25.1630118,8.6373476 C25.1630118,8.38103349 24.7474445,8.17324985 24.2348163,8.17324985 C23.7221881,8.17324985 23.3066208,8.38103349 23.3066208,8.6373476 C23.3066208,8.89366172 23.7221881,9.10144536 24.2348163,9.10144536 Z M24.2348163,10.4937386 C24.7474445,10.4937386 25.1630118,10.285955 25.1630118,10.0296409 C25.1630118,9.77332675 24.7474445,9.5655431 24.2348163,9.5655431 C23.7221881,9.5655431 23.3066208,9.77332675 23.3066208,10.0296409 C23.3066208,10.285955 23.7221881,10.4937386 24.2348163,10.4937386 Z M24.2348163,11.8860319 C24.7474445,11.8860319 25.1630118,11.6782482 25.1630118,11.4219341 C25.1630118,11.16562 24.7474445,10.9578364 24.2348163,10.9578364 C23.7221881,10.9578364 23.3066208,11.16562 23.3066208,11.4219341 C23.3066208,11.6782482 23.7221881,11.8860319 24.2348163,11.8860319 Z M27.0194028,10.4937386 C27.5320311,10.4937386 27.9475983,10.285955 27.9475983,10.0296409 C27.9475983,9.77332675 27.5320311,9.5655431 27.0194028,9.5655431 C26.5067746,9.5655431 26.0912073,9.77332675 26.0912073,10.0296409 C26.0912073,10.285955 26.5067746,10.4937386 27.0194028,10.4937386 Z M21.4502298,10.4937386 C21.962858,10.4937386 22.3784253,10.285955 22.3784253,10.0296409 C22.3784253,9.77332675 21.962858,9.5655431 21.4502298,9.5655431 C20.9376015,9.5655431 20.5220343,9.77332675 20.5220343,10.0296409 C20.5220343,10.285955 20.9376015,10.4937386 21.4502298,10.4937386 Z M26.9823754,14.7256501 C26.9090182,15.343128 27.0739118,15.8071474 27.3506756,15.7620664 C27.6274394,15.7169855 27.9067064,15.2365404 27.9744361,14.6889623 C28.0421657,14.1413842 27.8772721,13.6773648 27.6061359,13.6525459 C27.3349998,13.6277271 27.0557327,14.1081722 26.9823754,14.7256501 Z M19.4353368,13.6650418 C19.4572214,14.1242756 19.70562,14.471592 19.9903311,14.4408539 C20.2752426,14.4101824 20.4775388,14.0057149 20.4417591,13.5375777 C20.405725,13.0696489 20.1564714,12.7223912 19.8855347,12.76185 C19.6148936,12.8013993 19.4134523,13.205808 19.4353368,13.6650418 Z M20.5383426,14.8095184 C20.5734296,15.2782199 20.8408029,15.6392589 21.1358699,15.61577 C21.4310487,15.5923216 21.6320356,15.1855336 21.5841926,14.7075058 C21.5358073,14.229876 21.2671334,13.8693916 20.9847937,13.902052 C20.7026862,13.9347908 20.5030002,14.3410244 20.5383426,14.8095184 Z M21.7128661,16.0067486 C21.759229,16.4858511 22.0429429,16.8614807 22.3470548,16.8453846 C22.6511666,16.8292885 22.8514944,16.4196269 22.7937083,15.930887 C22.7350516,15.44271 22.4495548,15.0681097 22.1569537,15.0937314 C21.8645011,15.1194076 21.6659569,15.5280407 21.7128661,16.0067486 Z M24.5131998,12.8255097 C24.3804895,12.8865731 24.2279639,12.8877906 24.0942958,12.8288535 L21.416717,11.6482526 C21.3481138,11.618004 21.2677585,11.644882 21.2311612,11.7103191 C21.1919653,11.7804024 21.2170045,11.8689907 21.2870878,11.9081866 L23.7228402,13.2704432 C23.8745109,13.3552689 23.9725452,13.5114918 23.9829608,13.6849591 L24.1557436,16.5625809 C24.160928,16.648924 24.2303621,16.7174751 24.3167645,16.721554 C24.4101673,16.7259634 24.4894597,16.65382 24.4938691,16.5604172 L24.6297107,13.6829163 C24.6378477,13.5105529 24.7325964,13.3539955 24.8815221,13.2668375 L27.2030324,11.9081866 C27.2677732,11.8702974 27.2932187,11.7894805 27.2618632,11.7213351 C27.2281914,11.6481555 27.1415713,11.6161282 27.0683918,11.6498 L24.5131998,12.8255097 Z" id="Combined-Shape" fill="#C88300"></path>
                        <path d="M20.936406,22.8342843 C20.9695565,22.7622904 21.0202596,22.7011367 21.0826365,22.6555869 C21.1277872,22.6048241 21.1849504,22.5633446 21.2521037,22.535957 C21.2792029,22.5249048 21.3072972,22.5164701 21.3360026,22.5107678 C22.0001496,22.3788373 22.6306677,22.3128721 23.2275568,22.3128721 C23.2665549,22.3128721 23.3056966,22.3131536 23.3449819,22.3137168 C23.3842671,22.3131536 23.4234088,22.3128721 23.4624069,22.3128721 C24.059296,22.3128721 24.6898141,22.3788373 25.3539611,22.5107678 C25.3826665,22.5164701 25.4107608,22.5249048 25.43786,22.535957 C25.5050133,22.5633446 25.5621765,22.6048241 25.6073272,22.6555869 C25.6697041,22.7011367 25.7204072,22.7622904 25.7535577,22.8342843 L30.2003673,32.4915537 L33.0623301,18.768621 C33.0985864,18.5947746 33.2318791,18.4574446 33.4045666,18.4160185 C34.0666341,18.2571946 35.0525739,18.1777826 36.3623859,18.1777826 C37.4887292,18.1777826 38.3157031,18.2365058 38.8433092,18.3539453 C39.090454,18.4089605 39.2463644,18.6537231 39.1917475,18.9009562 L35.1935812,36.9993675 C35.1139219,37.3599602 34.825931,37.6377055 34.4626905,37.7042562 C33.2581273,37.9249489 32.0535641,37.9898563 30.8490009,37.8989783 C29.8843969,37.8262041 28.9197929,37.6535298 27.955189,37.3809556 C27.1389048,37.1502964 26.4744736,36.5563148 26.1541424,35.7708777 L23.3449819,28.8829524 L20.5358213,35.7708777 C20.2154901,36.5563148 19.551059,37.1502964 18.7347747,37.3809556 C17.7701708,37.6535298 16.8055668,37.8262041 15.8409628,37.8989783 C14.6363996,37.9898563 13.4318364,37.9249489 12.2272732,37.7042562 C11.8640327,37.6377055 11.5760418,37.3599602 11.4963825,36.9993675 L7.49821619,18.9009562 C7.44359935,18.6537231 7.59950973,18.4089605 7.84665598,18.3539521 C8.37426057,18.2365058 9.2012345,18.1777826 10.3275778,18.1777826 C11.6373898,18.1777826 12.6233296,18.2571946 13.2853971,18.4160185 C13.4580846,18.4574446 13.5913773,18.5947746 13.6276336,18.768621 L16.4895964,32.4915537 L20.936406,22.8342843 Z M23.7447765,6.07538222 L28.4792324,8.80882164 C28.7159058,8.94546505 28.8617025,9.1979925 28.8617025,9.47127931 L28.8617025,15.0811655 C28.8617025,15.3567019 28.7135163,15.6109469 28.4737694,15.7467473 L23.7374925,18.4295283 C23.425651,18.6061655 23.0439816,18.6061655 22.7321401,18.4295283 L17.9958632,15.7467473 C17.7561163,15.6109469 17.6079301,15.3567019 17.6079301,15.0811655 L17.6079301,9.47127931 C17.6079301,9.1979925 17.7537269,8.94546505 17.9904002,8.80882164 L22.7248561,6.07538222 C23.0404206,5.893191 23.429212,5.893191 23.7447765,6.07538222 Z M23.2348163,8.10144536 C23.7474445,8.10144536 24.1630118,7.89366172 24.1630118,7.6373476 C24.1630118,7.38103349 23.7474445,7.17324985 23.2348163,7.17324985 C22.7221881,7.17324985 22.3066208,7.38103349 22.3066208,7.6373476 C22.3066208,7.89366172 22.7221881,8.10144536 23.2348163,8.10144536 Z M23.2348163,9.49373862 C23.7474445,9.49373862 24.1630118,9.28595497 24.1630118,9.02964086 C24.1630118,8.77332675 23.7474445,8.5655431 23.2348163,8.5655431 C22.7221881,8.5655431 22.3066208,8.77332675 22.3066208,9.02964086 C22.3066208,9.28595497 22.7221881,9.49373862 23.2348163,9.49373862 Z M23.2348163,10.8860319 C23.7474445,10.8860319 24.1630118,10.6782482 24.1630118,10.4219341 C24.1630118,10.16562 23.7474445,9.95783638 23.2348163,9.95783638 C22.7221881,9.95783638 22.3066208,10.16562 22.3066208,10.4219341 C22.3066208,10.6782482 22.7221881,10.8860319 23.2348163,10.8860319 Z M26.0194028,9.49373862 C26.5320311,9.49373862 26.9475983,9.28595497 26.9475983,9.02964086 C26.9475983,8.77332675 26.5320311,8.5655431 26.0194028,8.5655431 C25.5067746,8.5655431 25.0912073,8.77332675 25.0912073,9.02964086 C25.0912073,9.28595497 25.5067746,9.49373862 26.0194028,9.49373862 Z M20.4502298,9.49373862 C20.962858,9.49373862 21.3784253,9.28595497 21.3784253,9.02964086 C21.3784253,8.77332675 20.962858,8.5655431 20.4502298,8.5655431 C19.9376015,8.5655431 19.5220343,8.77332675 19.5220343,9.02964086 C19.5220343,9.28595497 19.9376015,9.49373862 20.4502298,9.49373862 Z M25.9823754,13.7256501 C25.9090182,14.343128 26.0739118,14.8071474 26.3506756,14.7620664 C26.6274394,14.7169855 26.9067064,14.2365404 26.9744361,13.6889623 C27.0421657,13.1413842 26.8772721,12.6773648 26.6061359,12.6525459 C26.3349998,12.6277271 26.0557327,13.1081722 25.9823754,13.7256501 Z M18.4353368,12.6650418 C18.4572214,13.1242756 18.70562,13.471592 18.9903311,13.4408539 C19.2752426,13.4101824 19.4775388,13.0057149 19.4417591,12.5375777 C19.405725,12.0696489 19.1564714,11.7223912 18.8855347,11.76185 C18.6148936,11.8013993 18.4134523,12.205808 18.4353368,12.6650418 Z M19.5383426,13.8095184 C19.5734296,14.2782199 19.8408029,14.6392589 20.1358699,14.61577 C20.4310487,14.5923216 20.6320356,14.1855336 20.5841926,13.7075058 C20.5358073,13.229876 20.2671334,12.8693916 19.9847937,12.902052 C19.7026862,12.9347908 19.5030002,13.3410244 19.5383426,13.8095184 Z M20.7128661,15.0067486 C20.759229,15.4858511 21.0429429,15.8614807 21.3470548,15.8453846 C21.6511666,15.8292885 21.8514944,15.4196269 21.7937083,14.930887 C21.7350516,14.44271 21.4495548,14.0681097 21.1569537,14.0937314 C20.8645011,14.1194076 20.6659569,14.5280407 20.7128661,15.0067486 Z M23.5131998,11.8255097 C23.3804895,11.8865731 23.2279639,11.8877906 23.0942958,11.8288535 L20.416717,10.6482526 C20.3481138,10.618004 20.2677585,10.644882 20.2311612,10.7103191 C20.1919653,10.7804024 20.2170045,10.8689907 20.2870878,10.9081866 L22.7228402,12.2704432 C22.8745109,12.3552689 22.9725452,12.5114918 22.9829608,12.6849591 L23.1557436,15.5625809 C23.160928,15.648924 23.2303621,15.7174751 23.3167645,15.721554 C23.4101673,15.7259634 23.4894597,15.65382 23.4938691,15.5604172 L23.6297107,12.6829163 C23.6378477,12.5105529 23.7325964,12.3539955 23.8815221,12.2668375 L26.2030324,10.9081866 C26.2677732,10.8702974 26.2932187,10.7894805 26.2618632,10.7213351 C26.2281914,10.6481555 26.1415713,10.6161282 26.0683918,10.6498 L23.5131998,11.8255097 Z" id="Combined-Shape" fill="#FFD000"></path>
                        <path d="M24,50 C26.1958866,50 28.3576183,49.7273179 30.4488166,49.1935084 C31.5190675,48.920311 32.1652069,47.8312309 31.8920095,46.7609801 C31.6188121,45.6907292 30.529732,45.0445897 29.4594811,45.3177872 C27.6909204,45.7692386 25.8615218,46 24,46 C22.8954305,46 22,46.8954305 22,48 C22,49.1045695 22.8954305,50 24,50 Z M39.2675352,45.0473583 C41.0259907,43.7697558 42.6193799,42.2761879 44.0083238,40.6042009 C44.714138,39.7545538 44.5975384,38.4936033 43.7478913,37.7877892 C42.8982443,37.081975 41.6372938,37.1985746 40.9314796,38.0482217 C39.7551052,39.4643211 38.405472,40.7294037 36.9163825,41.8112988 C36.0227693,42.4605517 35.8246762,43.7112917 36.4739291,44.6049049 C37.123182,45.498518 38.373922,45.6966112 39.2675352,45.0473583 Z M48.7204026,32.0770709 C49.3919134,30.0206428 49.8050799,27.8795128 49.9457575,25.6919642 C50.016644,24.5896716 49.1805243,23.638622 48.0782318,23.5677354 C46.9759392,23.4968488 46.0248896,24.3329686 45.954003,25.4352611 C45.8349268,27.2869065 45.4856054,29.0971757 44.9179939,30.8354236 C44.5751225,31.8854298 45.1483685,33.0145802 46.1983746,33.3574516 C47.2483808,33.7003231 48.3775312,33.1270771 48.7204026,32.0770709 Z M48.7565656,16.0345332 C48.0893578,13.9593637 47.1633062,11.9813835 46.0034036,10.1431343 C45.4139698,9.20898142 44.1788587,8.92953145 43.2447059,9.51896529 C42.310553,10.1083991 42.0311031,11.3435102 42.6205369,12.277663 C43.6016679,13.8325894 44.3846143,15.5049072 44.9485525,17.2588843 C45.2866477,18.3104381 46.4131808,18.8888106 47.4647346,18.5507153 C48.5162884,18.2126201 49.0946609,17.086087 48.7565656,16.0345332 Z M39.3976097,3.04776248 C37.6467023,1.75904098 35.7404263,0.693387807 33.7214789,-0.121023215 C32.6971116,-0.534236606 31.5317221,-0.038798429 31.1185087,0.985568924 C30.7052954,2.00993628 31.2007335,3.17532573 32.2251009,3.58853912 C33.9321902,4.27715162 35.544728,5.17859818 37.0265081,6.26923373 C37.9160928,6.92399537 39.1680329,6.73363365 39.8227945,5.84404893 C40.4775561,4.95446421 40.2871944,3.70252412 39.3976097,3.04776248 Z M24.1272436,-1.99969471 C24.0643797,-1.99994672 24.0643797,-1.99994672 24.0014725,-1.99999996 C21.8479277,-2 19.7283764,-1.73809037 17.6755889,-1.2249358 C16.6039939,-0.957059127 15.9524514,0.128797216 16.2203281,1.20039223 C16.4882048,2.27198724 17.5740611,2.92352969 18.6456561,2.65565302 C20.3817893,2.2216555 22.1755767,2 24.0013614,2.00000004 C24.0546698,2.00004524 24.0546698,2.00004524 24.1080462,2.00025923 C25.212603,2.00556044 26.1123206,1.11443773 26.1176219,0.00988095413 C26.1229231,-1.09467582 25.2318004,-1.99439349 24.1272436,-1.99969471 Z M8.83537888,2.87825191 C7.07056921,4.14738658 5.46983664,5.63335474 4.07269248,7.29875173 C3.36277532,8.14497357 3.4732721,9.40647348 4.31949394,10.1163906 C5.16571578,10.8263078 6.42721569,10.715811 7.13713285,9.86958919 C8.32045926,8.45906313 9.67630279,7.20042671 11.1707453,6.12572226 C12.0675095,5.48082863 12.2716909,4.23106805 11.6267973,3.33430387 C10.9819036,2.4375397 9.73214305,2.23335828 8.83537888,2.87825191 Z M-0.680609406,15.8020769 C-1.36232292,17.8553918 -1.78599219,19.9944787 -1.93727315,22.1809276 C-2.01351632,23.2828626 -1.1820288,24.2379647 -0.0800937943,24.3142079 C1.02184121,24.390451 1.97694333,23.5589635 2.0531865,22.4570285 C2.18122627,20.6064824 2.53940966,18.7980308 3.11563239,17.0624531 C3.46367567,16.0141499 2.89600283,14.8821874 1.84769961,14.5341441 C0.799396381,14.1861008 -0.33256612,14.7537737 -0.680609406,15.8020769 Z M-0.795252231,31.8441159 C-0.138274282,33.9226128 0.777976811,35.9049844 1.92873345,37.7487274 C2.51357558,38.6857618 3.74730026,38.9712701 4.68433466,38.3864279 C5.62136907,37.8015858 5.90687732,36.5678611 5.32203519,35.6308267 C4.34867369,34.0713063 3.57403842,32.3953302 3.01875661,30.6385718 C2.68585481,29.5853623 1.56218961,29.0014376 0.50898015,29.3343394 C-0.54422931,29.6672412 -1.12815404,30.7909064 -0.795252231,31.8441159 Z M8.5003405,44.8767422 C10.2449968,46.173999 12.1460766,47.2489595 14.1608882,48.0732356 C15.1832129,48.4914772 16.3510225,48.001771 16.7692641,46.9794463 C17.1875056,45.9571216 16.6977994,44.7893119 15.6754747,44.3710704 C13.9718295,43.674095 12.3636276,42.7647415 10.8870903,41.6668473 C10.0007023,41.0077645 8.74785068,41.1920319 8.08876793,42.0784199 C7.42968517,42.9648079 7.61395249,44.2176595 8.5003405,44.8767422 Z M23.7967365,49.9992208 C23.8983114,49.99987 23.8983114,49.99987 24,50 C25.1045695,50 26,49.1045695 26,48 C26,46.8954305 25.1045695,46 24,46 C23.9136497,45.9998896 23.9136497,45.9998896 23.8274122,45.9993384 C22.7228751,45.9908676 21.820604,46.8794047 21.8121331,47.9839418 C21.8036623,49.0884788 22.6921994,49.9907499 23.7967365,49.9992208 Z" id="Oval" fill="#C88300"></path>
                    </g>
                </g>
            </g>
        </g>
    </g>
</svg>