<?xml version="1.0" encoding="UTF-8"?>
<svg width="558px" height="238px" viewBox="0 0 558 238" version="1.1" xmlns="http://www.w3.org/2000/svg" xmlns:xlink="http://www.w3.org/1999/xlink">
    <!-- Generator: Sketch 55 (78076) - https://sketchapp.com -->
    <title>counter_red</title>
    <desc>Created with Sketch.</desc>
    <defs>
        <path d="M10,0 L430,0 C435.522847,-1.01453063e-15 440,4.4771525 440,10 L440,110 C440,115.522847 435.522847,120 430,120 L10,120 C4.4771525,120 6.76353751e-16,115.522847 0,110 L0,10 C-6.76353751e-16,4.4771525 4.4771525,1.01453063e-15 10,0 Z" id="path-1"></path>
        <filter x="-22.7%" y="-66.7%" width="145.5%" height="266.7%" filterUnits="objectBoundingBox" id="filter-2">
            <feOffset dx="0" dy="20" in="SourceAlpha" result="shadowOffsetOuter1"></feOffset>
            <feGaussianBlur stdDeviation="30" in="shadowOffsetOuter1" result="shadowBlurOuter1"></feGaussianBlur>
            <feColorMatrix values="0 0 0 0 0.387058424   0 0 0 0 0   0 0 0 0 0.0793469769  0 0 0 0.6 0" type="matrix" in="shadowBlurOuter1"></feColorMatrix>
        </filter>
    </defs>
    <g id="Page-1" stroke="none" stroke-width="1" fill="none" fill-rule="evenodd">
        <g id="JB_v2" transform="translate(-191.000000, -1491.000000)">
            <g id="lottery-draw" transform="translate(190.000000, 1375.000000)">
                <g id="Group-2-Copy-3" transform="translate(60.000000, 155.000000)">
                    <g id="counter_red">
                        <g id="Rectangle-Copy-14">
                            <use fill="black" fill-opacity="1" filter="url(#filter-2)" xlink:href="#path-1"></use>
                            <use fill="#93001F" fill-rule="evenodd" xlink:href="#path-1"></use>
                        </g>
                        <path d="M10,0 L430,0 C435.522847,-1.01453063e-15 440,4.4771525 440,10 L440,100 C440,105.522847 435.522847,110 430,110 L10,110 C4.4771525,110 6.76353751e-16,105.522847 0,100 L0,10 C-6.76353751e-16,4.4771525 4.4771525,1.01453063e-15 10,0 Z" id="Rectangle" fill="#D9113A"></path>
                    </g>
                </g>
            </g>
        </g>
    </g>
</svg>