<?xml version="1.0" encoding="UTF-8"?>
<svg width="12px" height="14px" viewBox="0 0 12 14" version="1.1" xmlns="http://www.w3.org/2000/svg" xmlns:xlink="http://www.w3.org/1999/xlink">
    <!-- Generator: Sketch 55 (78076) - https://sketchapp.com -->
    <title>dice</title>
    <desc>Created with Sketch.</desc>
    <g id="Page-1" stroke="none" stroke-width="1" fill="none" fill-rule="evenodd">
        <g id="JB_v2" transform="translate(-720.000000, -332.000000)" fill="#FFFFFF" fill-rule="nonzero">
            <g id="01" transform="translate(160.000000, 185.000000)">
                <g id="text" transform="translate(560.000000, 85.000000)">
                    <g id="Group-30" transform="translate(0.000000, 60.000000)">
                        <path d="M6.54377517,2.14570411 L11.5921686,5.06039544 C11.8445356,5.20609956 12,5.47537188 12,5.76678009 L12,11.7486528 C12,12.0424598 11.8419877,12.3135635 11.5863434,12.4583687 L6.53600821,15.3190425 C6.20348875,15.5073923 5.79651125,15.5073923 5.46399179,15.3190425 L0.413656588,12.4583687 C0.158012306,12.3135635 0,12.0424598 0,11.7486528 L0,5.76678009 C0,5.47537188 0.155464448,5.20609956 0.407831369,5.06039544 L5.45622485,2.14570411 C5.79271409,1.95143196 6.20728594,1.95143196 6.54377517,2.14570411 Z M6.00000001,4.30611368 C6.54662015,4.30611368 6.98974332,4.08455209 6.98974332,3.81124202 C6.98974332,3.53793195 6.54662015,3.31637036 6.00000001,3.31637036 C5.45337985,3.31637036 5.01025668,3.53793195 5.01025668,3.81124202 C5.01025668,4.08455209 5.45337985,4.30611368 6.00000001,4.30611368 Z M6.00000001,5.79072865 C6.54662015,5.79072865 6.98974332,5.56916706 6.98974332,5.29585699 C6.98974332,5.02254692 6.54662015,4.80098533 6.00000001,4.80098533 C5.45337985,4.80098533 5.01025668,5.02254692 5.01025668,5.29585699 C5.01025668,5.56916706 5.45337985,5.79072865 6.00000001,5.79072865 Z M6.00000001,7.27534365 C6.54662015,7.27534365 6.98974332,7.05378205 6.98974332,6.78047198 C6.98974332,6.50716192 6.54662015,6.28560032 6.00000001,6.28560032 C5.45337985,6.28560032 5.01025668,6.50716192 5.01025668,6.78047198 C5.01025668,7.05378205 5.45337985,7.27534365 6.00000001,7.27534365 Z M8.96922997,5.79072865 C9.51585011,5.79072865 9.95897327,5.56916706 9.95897327,5.29585699 C9.95897327,5.02254692 9.51585011,4.80098533 8.96922997,4.80098533 C8.42260981,4.80098533 7.97948664,5.02254692 7.97948664,5.29585699 C7.97948664,5.56916706 8.42260981,5.79072865 8.96922997,5.79072865 Z M3.03077005,5.79072865 C3.57739019,5.79072865 4.02051336,5.56916706 4.02051336,5.29585699 C4.02051336,5.02254692 3.57739019,4.80098533 3.03077005,4.80098533 C2.48414989,4.80098533 2.04102673,5.02254692 2.04102673,5.29585699 C2.04102673,5.56916706 2.48414989,5.79072865 3.03077005,5.79072865 Z M8.92974733,10.3032543 C8.85152587,10.9616766 9.02735339,11.4564647 9.32246912,11.4083945 C9.61758484,11.3603243 9.91536985,10.8480214 9.98759058,10.2641339 C10.0598113,9.6802463 9.88398377,9.18545819 9.5948688,9.15899363 C9.30575385,9.13252907 9.00796881,9.64483205 8.92974733,10.3032543 Z M0.882271362,9.17231811 C0.905607038,9.66200327 1.17047682,10.0323499 1.47406684,9.99957359 C1.77787057,9.96686826 1.99358079,9.5355809 1.95542855,9.03640197 C1.9170051,8.53744525 1.65122368,8.16716115 1.36232146,8.20923651 C1.0737344,8.2514082 0.858935659,8.68263292 0.882271362,9.17231811 Z M2.05841646,10.3926839 C2.09583002,10.8924646 2.38093264,11.2774437 2.69556521,11.2523973 C3.01031715,11.2273941 3.22463131,10.7936323 3.17361582,10.2839069 C3.12202219,9.77460589 2.83553275,9.39021814 2.53447131,9.42504422 C2.23365758,9.45995388 2.02073059,9.89312449 2.05841646,10.3926839 Z M3.31082155,11.6693014 C3.36025873,12.1801727 3.66278548,12.5807099 3.9870627,12.5635465 C4.31133994,12.5463832 4.52495128,12.1095573 4.46333342,11.5884094 C4.40078726,11.0678619 4.09635941,10.6684221 3.78435624,10.6957429 C3.4725113,10.7231216 3.26080187,11.1588508 3.31082155,11.6693014 Z M6.29684282,8.27711738 C6.15533265,8.34222983 5.99269328,8.34352807 5.85016171,8.28068291 L2.99503508,7.02179741 C2.92188289,6.98954306 2.83619928,7.01820333 2.7971752,7.08797947 C2.75538029,7.16270995 2.78207981,7.25717245 2.85681029,7.29896736 L5.45407523,8.75155402 C5.61580307,8.84200444 5.72033797,9.00858629 5.73144423,9.19355612 L5.91568411,12.2619904 C5.92121221,12.3540588 5.99525046,12.4271555 6.08738207,12.4315049 C6.18697835,12.4362066 6.27152859,12.3592794 6.27623034,12.2596832 L6.42107949,9.19137786 C6.42975602,9.00758518 6.53078748,8.84064655 6.68958829,8.74770926 L9.16503588,7.29896736 C9.23406957,7.25856579 9.2612023,7.17238999 9.22776771,7.09972594 C9.19186316,7.02169391 9.09949931,6.98754284 9.0214673,7.02344739 L6.29684282,8.27711738 Z" id="dice"></path>
                    </g>
                </g>
            </g>
        </g>
    </g>
</svg>