<?xml version="1.0" encoding="UTF-8"?>
<svg width="20px" height="23px" viewBox="0 0 20 23" version="1.1" xmlns="http://www.w3.org/2000/svg" xmlns:xlink="http://www.w3.org/1999/xlink">
    <!-- Generator: Sketch 55 (78076) - https://sketchapp.com -->
    <title>dice copy</title>
    <desc>Created with Sketch.</desc>
    <g id="Page-1" stroke="none" stroke-width="1" fill="none" fill-rule="evenodd">
        <g id="JB_v2" transform="translate(-220.000000, -2210.000000)" fill="#FFFFFF" fill-rule="nonzero">
            <g id="high-winnings-stats" transform="translate(190.000000, 2030.000000)">
                <g id="Group-3" transform="translate(0.000000, 160.000000)">
                    <path d="M40.906292,20.2428402 L49.3202811,25.1006591 C49.7408926,25.3434993 50,25.7922865 50,26.2779668 L50,36.2477546 C50,36.737433 49.7366462,37.1892726 49.3105724,37.4306146 L40.893347,42.1984042 C40.3391479,42.5123206 39.6608521,42.5123206 39.106653,42.1984042 L30.6894276,37.4306146 C30.2633538,37.1892726 30,36.737433 30,36.2477546 L30,26.2779668 C30,25.7922865 30.2591074,25.3434993 30.6797189,25.1006591 L39.0937081,20.2428402 C39.6545235,19.9190533 40.3454766,19.9190533 40.906292,20.2428402 Z M40,23.8435228 C40.9110336,23.8435228 41.6495722,23.4742535 41.6495722,23.0187367 C41.6495722,22.5632199 40.9110336,22.1939506 40,22.1939506 C39.0889664,22.1939506 38.3504278,22.5632199 38.3504278,23.0187367 C38.3504278,23.4742535 39.0889664,23.8435228 40,23.8435228 Z M40,26.3178811 C40.9110336,26.3178811 41.6495722,25.9486118 41.6495722,25.493095 C41.6495722,25.0375782 40.9110336,24.6683089 40,24.6683089 C39.0889664,24.6683089 38.3504278,25.0375782 38.3504278,25.493095 C38.3504278,25.9486118 39.0889664,26.3178811 40,26.3178811 Z M40,28.7922394 C40.9110336,28.7922394 41.6495722,28.4229701 41.6495722,27.9674533 C41.6495722,27.5119365 40.9110336,27.1426672 40,27.1426672 C39.0889664,27.1426672 38.3504278,27.5119365 38.3504278,27.9674533 C38.3504278,28.4229701 39.0889664,28.7922394 40,28.7922394 Z M44.9487166,26.3178811 C45.8597502,26.3178811 46.5982888,25.9486118 46.5982888,25.493095 C46.5982888,25.0375782 45.8597502,24.6683089 44.9487166,24.6683089 C44.037683,24.6683089 43.2991444,25.0375782 43.2991444,25.493095 C43.2991444,25.9486118 44.037683,26.3178811 44.9487166,26.3178811 Z M35.0512834,26.3178811 C35.962317,26.3178811 36.7008556,25.9486118 36.7008556,25.493095 C36.7008556,25.0375782 35.962317,24.6683089 35.0512834,24.6683089 C34.1402498,24.6683089 33.4017112,25.0375782 33.4017112,25.493095 C33.4017112,25.9486118 34.1402498,26.3178811 35.0512834,26.3178811 Z M44.8829122,33.8387572 C44.7525431,34.9361277 45.045589,35.7607746 45.5374485,35.6806576 C46.0293081,35.6005406 46.5256164,34.7467023 46.6459843,33.7735564 C46.7663522,32.8004105 46.4733063,31.9757636 45.991448,31.9316561 C45.5095897,31.8875485 45.0132814,32.7413867 44.8829122,33.8387572 Z M31.4704523,31.9538635 C31.5093451,32.7700055 31.9507947,33.3872498 32.4567781,33.3326226 C32.9631176,33.2781138 33.3226347,32.5593015 33.2590476,31.7273366 C33.1950085,30.8957421 32.7520395,30.2786019 32.2705358,30.3487275 C31.7895573,30.4190137 31.4315594,31.1377215 31.4704523,31.9538635 Z M33.4306941,33.9878065 C33.49305,34.8207743 33.9682211,35.4624062 34.4926087,35.4206622 C35.0171952,35.3789901 35.3743855,34.6560539 35.2893597,33.8065115 C35.2033703,32.9576765 34.7258879,32.3170302 34.2241188,32.3750737 C33.7227626,32.4332565 33.3678843,33.1552075 33.4306941,33.9878065 Z M35.5180359,36.1155023 C35.6004312,36.9669545 36.1046425,37.6345166 36.6451045,37.6059109 C37.1855666,37.5773053 37.5415855,36.8492621 37.438889,35.9806824 C37.3346454,35.1131032 36.8272657,34.4473702 36.3072604,34.4929048 C35.7875188,34.538536 35.4346698,35.2647513 35.5180359,36.1155023 Z M40.494738,30.4618623 C40.2588878,30.570383 39.9878221,30.5725468 39.7502695,30.4678049 L34.9917251,28.3696624 C34.8698048,28.3159051 34.7269988,28.3636722 34.6619587,28.4799658 C34.5923005,28.6045166 34.6367997,28.7619541 34.7613505,28.8316123 L39.0901254,31.25259 C39.3596718,31.4033407 39.5338966,31.6809772 39.552407,31.9892602 L39.8594735,37.1033174 C39.868687,37.2567647 39.9920841,37.3785925 40.1456368,37.3858415 C40.3116306,37.3936777 40.4525477,37.2654657 40.4603839,37.099472 L40.7017991,31.9856298 C40.71626,31.6793086 40.8846458,31.4010776 41.1493138,31.2461821 L45.2750598,28.8316123 C45.390116,28.7642763 45.4353372,28.62065 45.3796128,28.4995432 C45.3197719,28.3694898 45.1658322,28.3125714 45.0357788,28.3724123 L40.494738,30.4618623 Z" id="dice-copy"></path>
                </g>
            </g>
        </g>
    </g>
</svg>