<?xml version="1.0" encoding="UTF-8"?>
<svg width="14px" height="16px" viewBox="0 0 14 16" version="1.1" xmlns="http://www.w3.org/2000/svg" xmlns:xlink="http://www.w3.org/1999/xlink">
    <title>C0E6F704-786C-4253-8BF1-6F184EA8EB33</title>
    <g id="new-small-edits" stroke="none" stroke-width="1" fill="none" fill-rule="evenodd">
        <g id="Lottery-Info-popup" transform="translate(-500.000000, -212.000000)" fill="#FFD000" fill-rule="nonzero">
            <g id="Group-23" transform="translate(440.000000, 93.000000)">
                <g id="Group-28" transform="translate(60.000000, 115.000000)">
                    <path d="M7.63440437,4.17319562 L13.5241967,7.63783194 C13.8186248,7.81102756 14,8.13110628 14,8.4774975 L14,15.5880321 C14,15.9372747 13.8156523,16.2595304 13.5174006,16.4316575 L7.62534292,19.8320842 C7.23740355,20.0559719 6.76259645,20.0559719 6.37465708,19.8320842 L0.482599352,16.4316575 C0.184347691,16.2595304 0,15.9372747 0,15.5880321 L0,8.4774975 C0,8.13110628 0.181375189,7.81102756 0.475803264,7.63783194 L6.36559566,4.17319562 C6.75816644,3.94226813 7.24183359,3.94226813 7.63440437,4.17319562 Z M7.00000002,6.74123203 C7.63772351,6.74123203 8.15470053,6.47786612 8.15470053,6.15298781 C8.15470053,5.82810949 7.63772351,5.56474359 7.00000002,5.56474359 C6.36227649,5.56474359 5.84529947,5.82810949 5.84529947,6.15298781 C5.84529947,6.47786612 6.36227649,6.74123203 7.00000002,6.74123203 Z M7.00000002,8.50596468 C7.63772351,8.50596468 8.15470053,8.24259877 8.15470053,7.91772046 C8.15470053,7.59284215 7.63772351,7.32947623 7.00000002,7.32947623 C6.36227649,7.32947623 5.84529947,7.59284215 5.84529947,7.91772046 C5.84529947,8.24259877 6.36227649,8.50596468 7.00000002,8.50596468 Z M7.00000002,10.2706974 C7.63772351,10.2706974 8.15470053,10.0073314 8.15470053,9.68245314 C8.15470053,9.35757483 7.63772351,9.09420891 7.00000002,9.09420891 C6.36227649,9.09420891 5.84529947,9.35757483 5.84529947,9.68245314 C5.84529947,10.0073314 6.36227649,10.2706974 7.00000002,10.2706974 Z M10.4641016,8.50596468 C11.1018251,8.50596468 11.6188022,8.24259877 11.6188022,7.91772046 C11.6188022,7.59284215 11.1018251,7.32947623 10.4641016,7.32947623 C9.82637811,7.32947623 9.30940108,7.59284215 9.30940108,7.91772046 C9.30940108,8.24259877 9.82637811,8.50596468 10.4641016,8.50596468 Z M3.5358984,8.50596468 C4.17362189,8.50596468 4.69059892,8.24259877 4.69059892,7.91772046 C4.69059892,7.59284215 4.17362189,7.32947623 3.5358984,7.32947623 C2.89817487,7.32947623 2.38119785,7.59284215 2.38119785,7.91772046 C2.38119785,8.24259877 2.89817487,8.50596468 3.5358984,8.50596468 Z M10.4180386,13.8699153 C10.3267802,14.652569 10.5319123,15.2407139 10.876214,15.1835738 C11.2205156,15.1264337 11.5679315,14.5174692 11.652189,13.8234136 C11.7364465,13.1293579 11.5313144,12.541213 11.1940136,12.5097551 C10.8567128,12.4782972 10.5092969,13.0872617 10.4180386,13.8699153 Z M1.02931659,12.5255936 C1.05654154,13.1076728 1.36555629,13.5478965 1.71974465,13.508936 C2.07418233,13.4700598 2.32584426,12.957397 2.28133331,12.3640328 C2.23650595,11.7709327 1.92642762,11.3307833 1.58937503,11.3807975 C1.25269014,11.4309261 1.0020916,11.9435145 1.02931659,12.5255936 Z M2.40148588,13.9762185 C2.44513502,14.570298 2.77775474,15.0279151 3.14482608,14.9981429 C3.51203667,14.968422 3.76206986,14.452818 3.70255179,13.8469174 C3.64235922,13.2415213 3.30812154,12.7846071 2.95688319,12.8260042 C2.60593384,12.8675006 2.35751902,13.382402 2.40148588,13.9762185 Z M3.86262514,15.4937086 C3.92030185,16.1009713 4.27324973,16.577082 4.65157315,16.5566803 C5.0298966,16.5362785 5.27910982,16.0170321 5.20722232,15.3975539 C5.1342518,14.7787893 4.77908598,14.3039831 4.41508228,14.3364587 C4.05126318,14.3690033 3.80426885,14.886946 3.86262514,15.4937086 Z M7.34631663,11.4614861 C7.18122143,11.538884 6.99147549,11.5404272 6.82518866,11.4657244 L3.49420759,9.96931193 C3.40886337,9.93097182 3.30889916,9.96503972 3.26337107,10.0479812 C3.21461034,10.1368119 3.24575978,10.2490976 3.33294534,10.2987784 L6.36308777,12.0254396 C6.55177025,12.1329563 6.67372763,12.3309688 6.68668493,12.5508388 L6.90163147,16.1982264 C6.90808092,16.3076663 6.99445887,16.3945549 7.10194575,16.3997249 C7.21814141,16.4053138 7.31678336,16.313872 7.32226874,16.1954839 L7.4912594,12.5482496 C7.50138202,12.3297788 7.61925206,12.1313422 7.80451967,12.0208694 L10.6925419,10.2987784 C10.7730812,10.2507539 10.804736,10.1483184 10.765729,10.061944 C10.7238404,9.9691889 10.6160825,9.9285942 10.5250452,9.97127323 L7.34631663,11.4614861 Z" id="dice_bullet-copy"></path>
                </g>
            </g>
        </g>
    </g>
</svg>