<?xml version="1.0" encoding="UTF-8"?>
<svg width="133px" height="30px" viewBox="0 0 133 30" version="1.1" xmlns="http://www.w3.org/2000/svg" xmlns:xlink="http://www.w3.org/1999/xlink">
    <!-- Generator: Sketch 55 (78076) - https://sketchapp.com -->
    <title>logo</title>
    <desc>Created with Sketch.</desc>
    <g id="Page-1" stroke="none" stroke-width="1" fill="none" fill-rule="evenodd">
        <g id="JB_v2" transform="translate(-190.000000, -125.000000)">
            <g id="logo" transform="translate(190.000000, 125.000000)">
                <path d="M108.568553,29.7882353 C102.626929,29.7882353 98.2352941,25.6189332 98.2352941,19.4941176 C98.2352941,13.8489564 102.478193,9.2 108.235294,9.2 C114.841199,9.2 117.647059,14.3286106 117.647059,19.9368754 C117.647059,20.3796331 117.610154,20.8961838 117.57325,21.4127346 L103.807873,21.4127346 C104.36144,23.9585916 106.132856,25.2868649 108.642362,25.2868649 C110.524491,25.2868649 111.889958,24.6965212 113.439946,23.2575585 C114.268512,23.547176 114.881206,23.890353 115.278028,24.2870893 C115.744197,24.7531564 116.201733,25.3569891 116.650637,26.0985874 C114.805413,28.3861691 112.148289,29.7882353 108.568553,29.7882353 Z M103.764706,18.0235294 L112.588235,18.0235294 C112.241459,15.5673891 110.701259,13.9058824 108.235294,13.9058824 C105.80786,13.9058824 104.227074,15.5312693 103.764706,18.0235294 Z" id="Be-Copy-5" fill="#FFFFFF" fill-rule="nonzero"></path>
                <path d="M78.2352941,4.02572966 C79.115817,3.87524247 79.9718682,3.8 80.8034732,3.8 C81.6595371,3.8 82.5278175,3.87524247 83.4083405,4.02572966 L83.4083405,11.6616014 C83.775225,10.984409 84.3866901,10.4263607 85.2427541,9.98743973 C86.098818,9.54851875 87.0771622,9.32906155 88.1778158,9.32906155 C89.2784695,9.32906155 90.2996162,9.52970813 91.2412865,9.93100732 C92.1829569,10.3323065 92.9962055,10.9405165 93.6810566,11.7556554 C94.3659078,12.5707944 94.9039971,13.5928379 95.2953406,14.8218167 C95.6866841,16.0507955 95.8823529,17.5054832 95.8823529,19.1859236 C95.8823529,20.8162015 95.6377669,22.2771594 95.1485875,23.5688412 C94.6594081,24.860523 93.9501086,25.957809 93.0206677,26.8607321 C92.0912269,27.7636553 90.9539018,28.4596481 89.6086584,28.9487315 C88.2634151,29.4378149 86.7469817,29.6823529 85.0593127,29.6823529 C84.5212154,29.6823529 83.9525528,29.6572721 83.3533081,29.6071097 C82.7540633,29.5569473 82.1487129,29.4879751 81.5372386,29.4001909 C80.9257643,29.3124067 80.3387579,29.199543 79.7762015,29.0615964 C79.2136452,28.9236498 78.7000146,28.7668946 78.2352941,28.5913262 L78.2352941,4.02572966 Z M83.5186346,24.7442724 C83.8127537,24.8474721 84.2463219,24.911971 84.5772059,24.9377709 C84.9080899,24.9635708 85.2450963,24.9764706 85.5882353,24.9764706 C87.1813805,24.9764706 88.431368,24.4862794 89.3382353,23.5058824 C90.2451026,22.5254853 90.5882353,21.5786482 90.5882353,19.4888545 C90.5882353,17.6312601 90.3063754,16.2187355 89.7426471,15.2512384 C89.1789187,14.2837413 88.223046,13.8 86.875,13.8 C85.8946029,13.8 85.0919149,14.1418438 84.4669118,14.8255418 C83.8419086,15.5092397 83.4083405,16.5863704 83.4083405,18.0569659 L83.5186346,24.7442724 Z" id="b" fill="#FFFFFF" fill-rule="nonzero"></path>
                <path d="M68.4789492,20.5291147 L68.4789492,20.5291147 L68.4789492,20.5291147 C68.6126114,18.8740839 68.5055299,17.2084165 68.1610484,15.5841244 L68.063004,15.1218275 L68.5253009,15.2198719 C70.149593,15.5643534 71.8152604,15.6714349 73.4702911,15.5377727 L73.4702911,15.5377727 L73.4702911,15.5377727 C73.3366289,17.1928034 73.4437104,18.8584709 73.7881919,20.4827629 L73.8862363,20.9450598 L73.4239394,20.8470154 C71.7996473,20.5025339 70.1339799,20.3954524 68.4789492,20.5291147 Z" id="Star-Copy-5" fill="#D9113A" transform="translate(70.974620, 18.033444) rotate(-315.000000) translate(-70.974620, -18.033444) "></path>
                <path d="M121.455243,14.1491049 L119.011509,14.1491049 L118.823529,13.3971867 C120.552245,12.1781046 122.002472,10.8197783 123.174211,9.32220801 C124.345951,7.82463768 125.239201,6.18782325 125.853964,4.41176471 L126.71867,4.41176471 L126.71867,10.0887468 L131.267775,10.0887468 L131.180754,10.5116668 C130.745011,12.62938 128.880748,14.1491049 126.71867,14.1491049 L126.71867,14.1491049 L126.71867,21.7810742 C126.71867,22.5580602 126.781329,23.1846524 126.90665,23.6608696 C127.03197,24.1370868 127.213682,24.5130421 127.45179,24.7887468 C127.689899,25.0644515 127.984397,25.2524292 128.335294,25.3526854 C128.686191,25.4529417 129.099742,25.5030691 129.575959,25.5030691 C129.95192,25.5030691 130.321609,25.4717394 130.685038,25.4090793 C131.048467,25.3464191 131.368029,25.2900258 131.643734,25.2398977 C132.057289,25.8823529 132.352941,28.2352941 132.057289,29.1764706 C130.882353,29.7058824 129.713817,29.7514066 128.485678,29.7514066 C126.204848,29.7514066 124.462922,29.2188033 123.259847,28.1535806 C122.056771,27.0883578 121.455243,25.3526975 121.455243,22.9465473 L121.455243,14.1491049 Z" id="Path-Copy-4" fill="#FFFFFF" fill-rule="nonzero"></path>
                <path d="M16.6066049,9.72745098 C17.5089113,9.5770666 18.3986722,9.50187553 19.2759144,9.50187553 C20.1531566,9.50187553 21.0429176,9.5770666 21.9452239,9.72745098 L21.9452239,20.0287298 C21.9452239,21.0563564 22.0266809,21.9022558 22.1895973,22.5664535 C22.3525137,23.2306512 22.6031506,23.7569887 22.9415154,24.1454817 C23.2798803,24.5339747 23.6996971,24.8096752 24.2009784,24.9725916 C24.7022596,25.1355081 25.2912563,25.216965 25.967986,25.216965 C26.8953564,25.216965 27.6723307,25.1292421 28.2989323,24.9537937 L28.2989323,9.72745098 C29.2012386,9.5770666 30.0784677,9.50187553 30.9306459,9.50187553 C31.8078881,9.50187553 32.697649,9.5770666 33.5999553,9.72745098 L33.5999553,28.4126172 C32.7979053,28.6883219 31.7389645,28.9577566 30.4231011,29.2209292 C29.1072378,29.4841019 27.7350008,29.6156863 26.3063492,29.6156863 C25.0280819,29.6156863 23.7999612,29.5154315 22.6219502,29.314919 C21.4439392,29.1144065 20.4100621,28.6883238 19.5202878,28.0366581 C18.6305135,27.3849925 17.9224644,26.4325723 17.396119,25.1793691 C16.8697737,23.9261659 16.6066049,22.2594307 16.6066049,20.1791134 L16.6066049,9.72745098 Z M42.2094182,20.7054561 C40.8058307,20.3044311 39.7092943,19.7091685 38.9197763,18.9196505 C38.1302583,18.1301325 37.7355052,16.9458732 37.7355052,15.3668372 C37.7355052,13.4619683 38.4184907,11.9706789 39.7844822,10.8929241 C41.1504737,9.81516938 43.0114525,9.27630009 45.3674745,9.27630009 C46.344973,9.27630009 47.309925,9.36402299 48.2623594,9.53947144 C49.2147939,9.71491989 50.1797458,9.97808861 51.1572443,10.3289855 C51.1071162,10.9806512 50.9817978,11.6573707 50.7812853,12.3591645 C50.5807727,13.0609583 50.3426677,13.6750187 50.066963,14.201364 C49.4654255,13.9507234 48.8012377,13.7314161 48.0743799,13.5434356 C47.347522,13.3554552 46.5830795,13.2614663 45.7810295,13.2614663 C44.9288513,13.2614663 44.2646636,13.3930507 43.7884464,13.6562234 C43.3122292,13.919396 43.0741241,14.3392128 43.0741241,14.9156863 C43.0741241,15.4670957 43.243304,15.8555828 43.5816689,16.0811594 C43.9200338,16.306736 44.4025097,16.5197773 45.0291113,16.7202899 L47.1720781,17.3594203 C47.8738719,17.5599328 48.50673,17.8043038 49.0706714,18.0925405 C49.6346129,18.3807772 50.1170889,18.7379348 50.5181139,19.1640239 C50.9191389,19.590113 51.232435,20.1164504 51.4580116,20.743052 C51.6835882,21.3696536 51.7963748,22.1340961 51.7963748,23.0364024 C51.7963748,23.9637728 51.6021312,24.82847 51.2136382,25.63052 C50.8251452,26.4325701 50.2612122,27.1280874 49.5218223,27.7170929 C48.7824325,28.3060984 47.8864056,28.7697767 46.8337149,29.1081415 C45.7810242,29.4465064 44.5904991,29.6156863 43.2621037,29.6156863 C42.6605661,29.6156863 42.109165,29.5968885 41.6078837,29.5592924 C41.1066024,29.5216963 40.6241264,29.4590371 40.1604413,29.3713129 C39.6967561,29.2835886 39.2393438,29.177068 38.7881906,29.0517477 C38.3370375,28.9264273 37.8482956,28.7635134 37.3219502,28.5630009 C37.3720783,27.8862711 37.4911309,27.2032856 37.6791113,26.5140239 C37.8670918,25.8247621 38.1114628,25.1543085 38.4122315,24.5026428 C39.2393457,24.8284756 40.0225859,25.0728466 40.7619758,25.235763 C41.5013657,25.3986794 42.2720741,25.4801364 43.0741241,25.4801364 C43.425021,25.4801364 43.8072423,25.4488068 44.2207993,25.3861466 C44.6343564,25.3234865 45.0165776,25.2106999 45.3674745,25.0477835 C45.7183714,24.884867 46.0128697,24.6718257 46.2509784,24.408653 C46.489087,24.1454804 46.6081395,23.8008546 46.6081395,23.3747656 C46.6081395,22.773228 46.4264277,22.3408794 46.0629988,22.0777067 C45.6995699,21.8145341 45.1920302,21.5826949 44.5403645,21.3821824 L42.2094182,20.7054561 Z M56.297142,13.7961637 L53.853408,13.7961637 L53.6654285,13.0442455 C55.394144,11.8251634 56.8443714,10.4668372 58.0161105,8.96926684 C59.1878496,7.4716965 60.0811005,5.83488207 60.6958633,4.05882353 L61.5605691,4.05882353 L61.5605691,9.73580563 L66.109674,9.73580563 L66.0226534,10.1587257 C65.58691,12.2764388 63.7226471,13.7961637 61.5605691,13.7961637 L61.5605691,13.7961637 L61.5605691,21.428133 C61.5605691,22.205119 61.6232284,22.8317112 61.7485487,23.3079284 C61.873869,23.7841456 62.0555807,24.1601009 62.2936893,24.4358056 C62.531798,24.7115103 62.8262963,24.899488 63.1771932,24.9997442 C63.5280901,25.1000005 63.9416409,25.1501279 64.4178581,25.1501279 C64.7938191,25.1501279 65.1635085,25.1187983 65.5269374,25.0561381 C65.8903664,24.9934779 66.2099284,24.9370846 66.4856331,24.8869565 C66.6610815,25.3631737 66.7864,25.8581816 66.8615922,26.3719949 C66.9367844,26.8858082 66.9743799,27.3432205 66.9743799,27.7442455 C66.9743799,28.0199502 66.968114,28.2517893 66.9555819,28.4397698 C66.9430499,28.6277503 66.9242521,28.809462 66.8991881,28.9849105 C65.7462411,29.2606152 64.5557159,29.3984655 63.3275768,29.3984655 C61.046747,29.3984655 59.3048207,28.8658621 58.1017456,27.8006394 C56.8986705,26.7354167 56.297142,24.9997563 56.297142,22.5936061 L56.297142,13.7961637 Z" id="Combined-Shape-Copy-18" fill="#D9113A"></path>
                <path d="M5.63835771,7.55169843 C4.90547641,7.4499332 4.54247175,7.30181874 4.4955695,7.10144928 C4.49496466,7.09886537 4.49442666,7.09628289 4.49395547,7.09370192 L3.45123873,2.08866155 C4.85583919,2.31514374 6.03941407,2.31514374 7.00196336,2.08866155 C8.40656382,1.75816733 9.39406027,1.06194681 9.96445271,-1.2922996e-13 C10.5348451,1.06194681 11.5223416,1.75816733 12.9269421,2.08866155 C13.8894913,2.31514374 15.0730662,2.31514374 16.4776667,2.08866155 L15.2244698,7.10144928 C15.1780655,7.29287771 14.8616679,7.43661061 14.2125068,7.53779791 C14.5772916,7.41080061 14.7472272,7.26137233 14.7472272,7.10144928 C14.7472272,6.64003491 13.332592,6.26598465 9.90494243,6.26598465 C6.47729283,6.26598465 5.06265769,6.64003491 5.06265769,7.10144928 C5.06265769,7.26724548 5.2453042,7.42176192 5.63835771,7.55169843 Z M6.96965361,9.83389349 C7.08139676,9.5524743 8.07966313,9.41176471 9.96445271,9.41176471 C11.8492423,9.41176471 12.8808541,9.5524743 13.0592881,9.83389349 L13.0592881,20.6320677 C13.0592881,25.6026305 9.02985085,29.6320677 4.05928811,29.6320677 C3.60568739,29.6320677 3.15273572,29.5977755 2.70430521,29.5294843 L5.22457894e-16,29.1176471 L5.22457894e-16,26.7647059 C2.99608284,27.5233096 6.03985767,25.7094744 6.79846137,22.7133915 C6.91214974,22.2643827 6.96965361,21.8029962 6.96965361,21.339818 L6.96965361,9.83389349 Z" id="Combined-Shape" fill="#D9113A"></path>
            </g>
        </g>
    </g>
</svg>