<?xml version="1.0" encoding="UTF-8"?>
<svg width="24px" height="20px" viewBox="0 0 24 20" version="1.1" xmlns="http://www.w3.org/2000/svg" xmlns:xlink="http://www.w3.org/1999/xlink">
    <!-- Generator: Sketch 55 (78076) - https://sketchapp.com -->
    <title>lottery_tickets</title>
    <desc>Created with Sketch.</desc>
    <g id="Page-1" stroke="none" stroke-width="1" fill="none" fill-rule="evenodd">
        <g id="JB_v2" transform="translate(-761.000000, -130.000000)" fill="#FFFFFF" fill-rule="nonzero">
            <g id="buttons" transform="translate(741.000000, 120.000000)">
                <g id="Group-4-Copy-2">
                    <path d="M20.7582521,21.0781727 L20.7582521,12.7860299 C20.7582521,12.2337452 21.2059674,11.7860299 21.7582521,11.7860299 C22.187807,11.7860299 22.5360299,11.437807 22.5360299,11.0082521 C22.5360299,10.4559674 22.9837452,10.0082521 23.5360299,10.0082521 L25.3138077,10.0082521 C25.8660925,10.0082521 26.3138077,10.4559674 26.3138077,11.0082521 C26.3138077,11.437807 26.6620307,11.7860299 27.0915855,11.7860299 C27.5211403,11.7860299 27.8693633,11.437807 27.8693633,11.0082521 C27.8693633,10.4559674 28.3170785,10.0082521 28.8693633,10.0082521 L30.647141,10.0082521 C31.1994258,10.0082521 31.647141,10.4559674 31.647141,11.0082521 C31.647141,11.437807 31.995364,11.7860299 32.4249188,11.7860299 C32.7801215,11.7860299 33.0920697,11.9712245 33.2694744,12.2503248 L34.2319695,11.2878297 C34.6224938,10.8973054 35.2556587,10.8973054 35.646183,11.2878297 C35.9499242,11.5915708 36.4423858,11.5915708 36.7461269,11.2878297 C37.1366512,10.8973054 37.7698162,10.8973054 38.1603405,11.2878297 L39.4174192,12.5449084 C39.8079435,12.9354327 39.8079435,13.5685977 39.4174192,13.959122 C39.1136781,14.2628631 39.1136781,14.7553247 39.4174192,15.0590659 C39.7211603,15.362807 40.213622,15.362807 40.5173631,15.0590659 C40.9078874,14.6685416 41.5410524,14.6685416 41.9315766,15.0590659 L43.1886554,16.3161446 C43.5791797,16.7066689 43.5791797,17.3398339 43.1886554,17.7303581 C42.8849143,18.0340993 42.8849143,18.5265609 43.1886554,18.830302 C43.5791797,19.2208263 43.5791797,19.8539913 43.1886554,20.2445156 L34.3891043,29.0440666 C33.99858,29.4345909 33.365415,29.4345909 32.9748908,29.0440666 C32.6711496,28.7403255 32.178688,28.7403255 31.8749469,29.0440666 C31.4844226,29.4345909 30.8512576,29.4345909 30.4607333,29.0440666 L29.9409984,28.5243318 C28.8868021,29.4433786 27.508404,30 26,30 C22.6862915,30 20,27.3137085 20,24 C20,22.9392555 20.2752619,21.9428019 20.7582521,21.0781727 Z M22.7582521,18.9502622 C23.6931096,18.3488746 24.8058128,18 26,18 C26.4692159,18 26.925852,18.0538605 27.3640631,18.1557361 L31.4249188,14.0948804 L31.4249188,13.600588 C30.6951905,13.3189066 30.1142644,12.7379804 29.8325829,12.0082521 L29.6839214,12.0082521 C29.2824672,13.0482655 28.2731834,13.7860299 27.0915855,13.7860299 C25.9099876,13.7860299 24.9007038,13.0482655 24.4992496,12.0082521 L24.350588,12.0082521 C24.0689066,12.7379804 23.4879804,13.3189066 22.7582521,13.600588 L22.7582521,18.9502622 Z M31.2761107,26.859444 L31.2989673,26.8823007 C32.014142,26.5654837 32.8356956,26.5654837 33.5508703,26.8823007 L41.1984623,19.2347087 C40.8816453,18.519534 40.8816453,17.6979804 41.1984623,16.9828057 L41.0933426,16.8776861 C40.0740712,17.3292156 38.8387215,17.1372224 38.0032056,16.3017065 C37.1676898,15.4661907 36.9756966,14.230841 37.4272261,13.2115695 L37.3221065,13.1064499 C36.6069318,13.4232669 35.7853782,13.4232669 35.0702035,13.1064499 L29.2323954,18.944258 C30.8968629,20.0106494 32,21.8764989 32,24 C32,25.0353259 31.7377722,26.0094052 31.2761107,26.859444 Z M25.4316495,23.5864124 L24.4350877,25.7506755 L23.7937014,22.6752683 C23.7855761,22.636308 23.7557043,22.6055314 23.7170038,22.5962475 C23.5686297,22.5606539 23.3476736,22.5428571 23.0541353,22.5428571 C22.8017138,22.5428571 22.616383,22.5560174 22.498143,22.582338 C22.4427558,22.5946658 22.4078152,22.6495188 22.4200552,22.7049255 L23.3160728,26.7609088 C23.3339251,26.8417201 23.3984659,26.9039649 23.4798707,26.9188793 C23.7498219,26.9683381 24.0197731,26.9828844 24.2897243,26.962518 C24.5058989,26.9462087 24.7220736,26.9075112 24.9382482,26.8464254 C25.1211833,26.794733 25.2700871,26.6616175 25.3418756,26.4855954 L25.9714286,24.9419621 L26.6009815,26.4855954 C26.67277,26.6616175 26.8216738,26.794733 27.0046089,26.8464254 C27.2207836,26.9075112 27.4369582,26.9462087 27.6531328,26.962518 C27.923084,26.9828844 28.1930353,26.9683381 28.4629865,26.9188793 C28.5443913,26.9039649 28.6089321,26.8417201 28.6267843,26.7609088 L29.5228019,22.7049255 C29.535042,22.6495188 29.5001013,22.5946658 29.4447144,22.5823365 C29.3264741,22.5560174 29.1411434,22.5428571 28.8887218,22.5428571 C28.5951836,22.5428571 28.3742274,22.5606539 28.2258534,22.5962475 C28.1871529,22.6055314 28.157281,22.636308 28.1491557,22.6752683 L27.5077694,25.7506755 L26.5112076,23.5864124 C26.5037784,23.5702781 26.4924154,23.5565731 26.4784363,23.5463651 C26.4683177,23.5349888 26.4555071,23.5256929 26.4404575,23.5195551 C26.4343844,23.5170783 26.4280883,23.515188 26.4216552,23.5139101 C26.2728151,23.4843435 26.1315115,23.4695602 25.9977444,23.4695602 C25.9890046,23.4695602 25.9802327,23.4696233 25.9714286,23.4697495 C25.9626245,23.4696233 25.9538525,23.4695602 25.9451128,23.4695602 C25.8113457,23.4695602 25.6700421,23.4843435 25.521202,23.5139101 C25.5147689,23.515188 25.5084728,23.5170783 25.5023996,23.5195551 C25.4873501,23.5256929 25.4745394,23.5349888 25.4644208,23.5463651 C25.4504417,23.5565731 25.4390788,23.5702781 25.4316495,23.5864124 Z M26.0610254,19.8306228 C25.9903052,19.7897924 25.9031742,19.7897924 25.832454,19.8306228 L24.7714286,20.4432061 C24.7183884,20.4738288 24.6857143,20.530422 24.6857143,20.5916676 L24.6857143,21.8488831 C24.6857143,21.9106328 24.7189239,21.9676109 24.7726529,21.9980448 L25.8340864,22.5992751 C25.9039723,22.6388608 25.9895071,22.6388608 26.059393,22.5992751 L27.1208265,21.9980448 C27.1745555,21.9676109 27.2077651,21.9106328 27.2077651,21.8488831 L27.2077651,20.5916676 C27.2077651,20.530422 27.175091,20.4738288 27.1220508,20.4432061 L26.0610254,19.8306228 Z M25.9467397,20.284678 C25.831856,20.284678 25.7387244,20.2381122 25.7387244,20.1806704 C25.7387244,20.1232285 25.831856,20.0766627 25.9467397,20.0766627 C26.0616233,20.0766627 26.1547549,20.1232285 26.1547549,20.1806704 C26.1547549,20.2381122 26.0616233,20.284678 25.9467397,20.284678 Z M25.9467397,20.5967009 C25.831856,20.5967009 25.7387244,20.5501351 25.7387244,20.4926932 C25.7387244,20.4352514 25.831856,20.3886856 25.9467397,20.3886856 C26.0616233,20.3886856 26.1547549,20.4352514 26.1547549,20.4926932 C26.1547549,20.5501351 26.0616233,20.5967009 25.9467397,20.5967009 Z M25.9467397,20.9087237 C25.831856,20.9087237 25.7387244,20.8621579 25.7387244,20.8047161 C25.7387244,20.7472743 25.831856,20.7007085 25.9467397,20.7007085 C26.0616233,20.7007085 26.1547549,20.7472743 26.1547549,20.8047161 C26.1547549,20.8621579 26.0616233,20.9087237 25.9467397,20.9087237 Z M26.5707854,20.5967009 C26.4559018,20.5967009 26.3627702,20.5501351 26.3627702,20.4926932 C26.3627702,20.4352514 26.4559018,20.3886856 26.5707854,20.3886856 C26.6856691,20.3886856 26.7788007,20.4352514 26.7788007,20.4926932 C26.7788007,20.5501351 26.6856691,20.5967009 26.5707854,20.5967009 Z M25.322694,20.5967009 C25.2078103,20.5967009 25.1146787,20.5501351 25.1146787,20.4926932 C25.1146787,20.4352514 25.2078103,20.3886856 25.322694,20.3886856 C25.4375776,20.3886856 25.5307092,20.4352514 25.5307092,20.4926932 C25.5307092,20.5501351 25.4375776,20.5967009 25.322694,20.5967009 Z M26.5624873,21.5451024 C26.5789272,21.4067212 26.6415129,21.2990501 26.7022765,21.3046121 C26.76304,21.3101742 26.7999939,21.4141643 26.7848152,21.5368804 C26.7696365,21.6595966 26.7070507,21.7672678 26.645026,21.7773707 C26.5830013,21.7874737 26.5460474,21.6834836 26.5624873,21.5451024 Z M24.8711421,21.3074125 C24.8662376,21.204495 24.911382,21.1138641 24.9720346,21.1050008 C25.0327535,21.0961578 25.088613,21.1739807 25.0966885,21.2788469 C25.104707,21.3837598 25.0593709,21.4744039 24.9955202,21.4812776 C24.9317145,21.4881662 24.8760465,21.4103301 24.8711421,21.3074125 Z M25.1183335,21.5638979 C25.1104131,21.4589051 25.1551641,21.3678652 25.2183864,21.3605282 C25.2816608,21.3532088 25.3418725,21.4339959 25.352716,21.5410362 C25.3634379,21.6481656 25.3183953,21.7393297 25.2522437,21.7445847 C25.186117,21.7498487 25.1261968,21.6689373 25.1183335,21.5638979 Z M25.3815526,21.8322058 C25.3710399,21.7249239 25.4155351,21.6333463 25.4810758,21.6275921 C25.5466498,21.6218501 25.6106317,21.7058007 25.6237771,21.8152046 C25.6367274,21.9247347 25.5918325,22.0165428 25.5236788,22.0201501 C25.4555252,22.0237573 25.3919429,21.9395761 25.3815526,21.8322058 Z M26.0091274,21.1192674 L26.5817642,20.8557825 C26.5981642,20.8482364 26.6175764,20.8554139 26.6251225,20.871814 C26.6321495,20.8870859 26.626447,20.9051975 26.6119381,20.9136887 L26.0916711,21.2181721 C26.0582958,21.2377048 26.0370619,21.2727905 26.0352383,21.3114184 L26.0047953,21.9562868 C26.0038071,21.9772191 25.9860371,21.9933869 25.9651049,21.9923988 C25.9457415,21.9914847 25.9301808,21.9761219 25.9290189,21.9567718 L25.8902971,21.3118762 C25.8879629,21.2730009 25.8659927,21.2379902 25.8320022,21.2189802 L25.2861327,20.9136887 C25.2704265,20.9049047 25.264815,20.8850514 25.2735991,20.8693452 C25.2818008,20.8546803 25.299809,20.8486568 25.3151835,20.8554357 L25.915248,21.1200168 C25.945204,21.133225 25.9793861,21.1329521 26.0091274,21.1192674 Z" id="lottery_tickets"></path>
                </g>
            </g>
        </g>
    </g>
</svg>