<?xml version="1.0" encoding="UTF-8"?>
<svg width="125px" height="124px" viewBox="0 0 125 124" version="1.1" xmlns="http://www.w3.org/2000/svg" xmlns:xlink="http://www.w3.org/1999/xlink">
    <!-- Generator: Sketch 55 (78076) - https://sketchapp.com -->
    <title>lottery_tickets2</title>
    <desc>Created with Sketch.</desc>
    <g id="Page-1" stroke="none" stroke-width="1" fill="none" fill-rule="evenodd">
        <g id="JB_v2" transform="translate(-600.000000, -1377.000000)">
            <g id="lottery-draw" transform="translate(190.000000, 1375.000000)">
                <g id="lottery_tickets2" transform="translate(406.000000, 0.000000)">
                    <g id="Group-13" transform="translate(76.200010, 71.004407) rotate(40.000000) translate(-76.200010, -71.004407) translate(46.700010, 14.004407)">
                        <path d="M11,-4.54747351e-13 L20,-4.54747351e-13 C20,4.97056275 24.0294373,9 29,9 C33.9705627,9 38,4.97056275 38,-3.92056158e-13 L48,-4.54747351e-13 C48,4.97056275 52.0294373,9 57,9 L57,104 C52.0294373,104 48,108.029437 48,113 L38,113 C38,108.029437 33.9705627,104 29,104 C24.0294373,104 20,108.029437 20,113 L11,113 C11,108.029437 6.97056275,104 2,104 L2,9 C6.97056275,9 11,4.97056275 11,-3.92056158e-13 Z" id="Combined-Shape-Copy" fill="#FFD000"></path>
                        <path d="M15,27 L44,27 C46.209139,27 48,28.790861 48,31 L48,93 C48,95.209139 46.209139,97 44,97 L15,97 C12.790861,97 11,95.209139 11,93 L11,31 C11,28.790861 12.790861,27 15,27 Z" id="Rectangle" fill="#D9113A"></path>
                        <path d="M20,26 C20.5522847,26 21,26.4477153 21,27 C21,27.5522847 20.5522847,28 20,28 L15,28 C14.4477153,28 14,27.5522847 14,27 C14,26.4477153 14.4477153,26 15,26 L20,26 Z M30,26 C30.5522847,26 31,26.4477153 31,27 C31,27.5522847 30.5522847,28 30,28 L25,28 C24.4477153,28 24,27.5522847 24,27 C24,26.4477153 24.4477153,26 25,26 L30,26 Z M40,26 C40.5522847,26 41,26.4477153 41,27 C41,27.5522847 40.5522847,28 40,28 L35,28 C34.4477153,28 34,27.5522847 34,27 C34,26.4477153 34.4477153,26 35,26 L40,26 Z M48.9941264,30.7559402 C49.0207285,31.3075839 48.5950981,31.7763446 48.0434544,31.8029467 C47.4918107,31.8295487 47.0230499,31.4039183 46.9964479,30.8522746 C46.932893,29.5343442 46.0104281,28.4160021 44.7450243,28.092989 C44.2098988,27.9563903 43.8868291,27.4118503 44.0234278,26.8767248 C44.1600266,26.3415994 44.7045666,26.0185297 45.239692,26.1551284 C47.352057,26.694341 48.8880625,28.5565034 48.9941264,30.7559402 Z M49,40.8770651 C49,41.4293498 48.5522847,41.8770651 48,41.8770651 C47.4477153,41.8770651 47,41.4293498 47,40.8770651 L47,35.8770651 C47,35.3247803 47.4477153,34.8770651 48,34.8770651 C48.5522847,34.8770651 49,35.3247803 49,35.8770651 L49,40.8770651 Z M49,50.8770651 C49,51.4293498 48.5522847,51.8770651 48,51.8770651 C47.4477153,51.8770651 47,51.4293498 47,50.8770651 L47,45.8770651 C47,45.3247803 47.4477153,44.8770651 48,44.8770651 C48.5522847,44.8770651 49,45.3247803 49,45.8770651 L49,50.8770651 Z M49,60.8770651 C49,61.4293498 48.5522847,61.8770651 48,61.8770651 C47.4477153,61.8770651 47,61.4293498 47,60.8770651 L47,55.8770651 C47,55.3247803 47.4477153,54.8770651 48,54.8770651 C48.5522847,54.8770651 49,55.3247803 49,55.8770651 L49,60.8770651 Z M49,70.8770651 C49,71.4293498 48.5522847,71.8770651 48,71.8770651 C47.4477153,71.8770651 47,71.4293498 47,70.8770651 L47,65.8770651 C47,65.3247803 47.4477153,64.8770651 48,64.8770651 C48.5522847,64.8770651 49,65.3247803 49,65.8770651 L49,70.8770651 Z M49,80.8770651 C49,81.4293498 48.5522847,81.8770651 48,81.8770651 C47.4477153,81.8770651 47,81.4293498 47,80.8770651 L47,75.8770651 C47,75.3247803 47.4477153,74.8770651 48,74.8770651 C48.5522847,74.8770651 49,75.3247803 49,75.8770651 L49,80.8770651 Z M49,90.8770651 C49,91.4293498 48.5522847,91.8770651 48,91.8770651 C47.4477153,91.8770651 47,91.4293498 47,90.8770651 L47,85.8770651 C47,85.3247803 47.4477153,84.8770651 48,84.8770651 C48.5522847,84.8770651 49,85.3247803 49,85.8770651 L49,90.8770651 Z M42.2458698,98 C41.6935851,98 41.2458698,97.5522847 41.2458698,97 C41.2458698,96.4477153 41.6935851,96 42.2458698,96 L44,96 C44.8593871,96 45.6581749,95.638046 46.2241716,95.013267 C46.5949663,94.603963 47.2273612,94.572745 47.6366652,94.9435397 C48.0459692,95.3143344 48.0771871,95.9467293 47.7063925,96.3560333 C46.7651364,97.3950446 45.4300746,98 44,98 L42.2458698,98 Z M32.2458698,98 C31.6935851,98 31.2458698,97.5522847 31.2458698,97 C31.2458698,96.4477153 31.6935851,96 32.2458698,96 L37.2458698,96 C37.7981546,96 38.2458698,96.4477153 38.2458698,97 C38.2458698,97.5522847 37.7981546,98 37.2458698,98 L32.2458698,98 Z M22.2458698,98 C21.6935851,98 21.2458698,97.5522847 21.2458698,97 C21.2458698,96.4477153 21.6935851,96 22.2458698,96 L27.2458698,96 C27.7981546,96 28.2458698,96.4477153 28.2458698,97 C28.2458698,97.5522847 27.7981546,98 27.2458698,98 L22.2458698,98 Z M11.7672031,96.8144268 C11.3460203,96.4571825 11.294188,95.8261426 11.6514323,95.4049598 C12.0086767,94.9837771 12.6397165,94.9319447 13.0608993,95.2891891 C13.5993092,95.7458647 14.2787144,96 15,96 L17.2458698,96 C17.7981546,96 18.2458698,96.4477153 18.2458698,97 C18.2458698,97.5522847 17.7981546,98 17.2458698,98 L15,98 C13.800374,98 12.6636819,97.574814 11.7672031,96.8144268 Z M10,86.3688048 C10,85.81652 10.4477153,85.3688048 11,85.3688048 C11.5522847,85.3688048 12,85.81652 12,86.3688048 L12,91.3688048 C12,91.9210895 11.5522847,92.3688048 11,92.3688048 C10.4477153,92.3688048 10,91.9210895 10,91.3688048 L10,86.3688048 Z M10,76.3688048 C10,75.81652 10.4477153,75.3688048 11,75.3688048 C11.5522847,75.3688048 12,75.81652 12,76.3688048 L12,81.3688048 C12,81.9210895 11.5522847,82.3688048 11,82.3688048 C10.4477153,82.3688048 10,81.9210895 10,81.3688048 L10,76.3688048 Z M10,66.3688048 C10,65.81652 10.4477153,65.3688048 11,65.3688048 C11.5522847,65.3688048 12,65.81652 12,66.3688048 L12,71.3688048 C12,71.9210895 11.5522847,72.3688048 11,72.3688048 C10.4477153,72.3688048 10,71.9210895 10,71.3688048 L10,66.3688048 Z M10,56.3688048 C10,55.81652 10.4477153,55.3688048 11,55.3688048 C11.5522847,55.3688048 12,55.81652 12,56.3688048 L12,61.3688048 C12,61.9210895 11.5522847,62.3688048 11,62.3688048 C10.4477153,62.3688048 10,61.9210895 10,61.3688048 L10,56.3688048 Z M10,46.3688048 C10,45.81652 10.4477153,45.3688048 11,45.3688048 C11.5522847,45.3688048 12,45.81652 12,46.3688048 L12,51.3688048 C12,51.9210895 11.5522847,52.3688048 11,52.3688048 C10.4477153,52.3688048 10,51.9210895 10,51.3688048 L10,46.3688048 Z M10,36.3688048 C10,35.81652 10.4477153,35.3688048 11,35.3688048 C11.5522847,35.3688048 12,35.81652 12,36.3688048 L12,41.3688048 C12,41.9210895 11.5522847,42.3688048 11,42.3688048 C10.4477153,42.3688048 10,41.9210895 10,41.3688048 L10,36.3688048 Z M13.0690539,26.3867741 C13.578439,26.1733607 14.164383,26.4132931 14.3777963,26.9226782 C14.5912097,27.4320633 14.3512773,28.0180073 13.8418922,28.2314206 C12.7353047,28.6950396 12,29.7795346 12,31 L12,31.3688048 C12,31.9210895 11.5522847,32.3688048 11,32.3688048 C10.4477153,32.3688048 10,31.9210895 10,31.3688048 L10,31 C10,28.9665287 11.2253996,27.1591966 13.0690539,26.3867741 Z" id="Rectangle-Copy-6" fill="#BA1235" fill-rule="nonzero"></path>
                        <path d="M33.0011883,69.5436296 L30.7659283,68.1487296 L27.1409948,70.1308385 C26.266839,70.6088257 25.1856399,70.2592703 24.726069,69.3500845 C24.5430655,68.988042 24.4799155,68.5733511 24.5463954,68.1702108 L25.2386961,63.9720367 L22.3060633,60.9988733 C21.5988564,60.2818924 21.5843856,59.1043861 22.273742,58.3688394 C22.5482473,58.0759408 22.9079318,57.8853284 23.297112,57.826511 L25.0785033,57.5572868 L27.349911,57.2140056 L29.1623777,53.3943807 C29.5994556,52.4732749 30.6717113,52.0950915 31.5573279,52.5496843 C31.909985,52.7307056 32.1954322,53.0275915 32.3694789,53.3943807 L34.1819457,57.2140056 L38.2347446,57.826511 C39.2120805,57.9742172 39.8892417,58.9179932 39.7472265,59.9344938 C39.6906753,60.3392697 39.5074069,60.7133677 39.2257934,60.9988733 L36.2931606,63.9720367 L36.9854613,68.1702108 C37.1524102,69.182604 36.4986631,70.1440731 35.5252763,70.3177121 C34.5518896,70.4913512 33.8398656,70.0670009 33.0011883,69.5436296 Z" id="Star" fill="#93001F"></path>
                        <path d="M32.3584007,68.7775851 L30.1231407,67.3826851 L26.4982072,69.364794 C25.6240514,69.8427813 24.5428523,69.4932258 24.0832814,68.5840401 C23.9002779,68.2219975 23.8371279,67.8073066 23.9036078,67.4041663 L24.5959085,63.2059922 L21.6632757,60.2328288 C20.9560688,59.515848 20.941598,58.3383417 21.6309544,57.602795 C21.9054597,57.3098964 22.2651441,57.1192839 22.6543244,57.0604665 L24.4357157,56.7912423 L26.7071234,56.4479612 L28.5195901,52.6283362 C28.956668,51.7072304 30.0289237,51.329047 30.9145403,51.7836399 C31.2671974,51.9646612 31.5526446,52.2615471 31.7266913,52.6283362 L33.5391581,56.4479612 L37.591957,57.0604665 C38.5692929,57.2081727 39.2464541,58.1519488 39.1044389,59.1684494 C39.0478877,59.5732252 38.8646193,59.9473233 38.5830058,60.2328288 L35.6503729,63.2059922 L36.3426737,67.4041663 C36.5096226,68.4165596 35.8558755,69.3780287 34.8824887,69.5516677 C33.909102,69.7253067 33.197078,69.3009565 32.3584007,68.7775851 Z" id="Star" fill="#FFFFFF"></path>
                        <path d="M2,21 L10,21 C11.1045695,21 12,20.1045695 12,19 C12,17.8954305 11.1045695,17 10,17 L2,17 C0.8954305,17 5.68434189e-14,17.8954305 5.68434189e-14,19 C5.68434189e-14,20.1045695 0.8954305,21 2,21 Z M18,21 L26,21 C27.1045695,21 28,20.1045695 28,19 C28,17.8954305 27.1045695,17 26,17 L18,17 C16.8954305,17 16,17.8954305 16,19 C16,20.1045695 16.8954305,21 18,21 Z M34,21 L42,21 C43.1045695,21 44,20.1045695 44,19 C44,17.8954305 43.1045695,17 42,17 L34,17 C32.8954305,17 32,17.8954305 32,19 C32,20.1045695 32.8954305,21 34,21 Z M50,21 L57,21 C58.1045695,21 59,20.1045695 59,19 C59,17.8954305 58.1045695,17 57,17 L50,17 C48.8954305,17 48,17.8954305 48,19 C48,20.1045695 48.8954305,21 50,21 Z" id="Path-6" fill="#C88300" fill-rule="nonzero"></path>
                        <path d="M1.90673326,24.7070601 L56.9705669,86.1599968 L56.8386885,103.893654 C54.1942013,104.372099 52.0853705,105.488915 50.512196,107.244101 C48.9390215,108.999287 48.1925424,110.923044 48.2727587,113.015372 L37.97853,113.185245 C37.9545978,107.81046 35.2329099,104.763025 29.8134665,104.04294 C29.5009654,104.001418 26.6201972,107.011781 21.1711617,113.074029 L10.876933,113.243902 L2.04551733,46.9474411 L1.90673326,24.7070601 Z" id="Path-7" fill="#000000" fill-rule="nonzero" opacity="0.1"></path>
                    </g>
                    <g id="Group-13" transform="translate(39.500000, 61.500000) rotate(10.000000) translate(-39.500000, -61.500000) translate(10.000000, 5.000000)">
                        <path d="M11,-5.68434189e-14 L20,-5.68434189e-14 C20,4.97056275 24.0294373,9 29,9 C33.9705627,9 38,4.97056275 38,5.84777422e-15 L48,-5.68434189e-14 C48,4.97056275 52.0294373,9 57,9 L57,104 C52.0294373,104 48,108.029437 48,113 L38,113 C38,108.029437 33.9705627,104 29,104 C24.0294373,104 20,108.029437 20,113 L11,113 C11,108.029437 6.97056275,104 2,104 L2,9 C6.97056275,9 11,4.97056275 11,5.84777422e-15 Z" id="Combined-Shape-Copy" fill="#FFD000"></path>
                        <path d="M20,26 C20.5522847,26 21,26.4477153 21,27 C21,27.5522847 20.5522847,28 20,28 L15,28 C14.4477153,28 14,27.5522847 14,27 C14,26.4477153 14.4477153,26 15,26 L20,26 Z M30,26 C30.5522847,26 31,26.4477153 31,27 C31,27.5522847 30.5522847,28 30,28 L25,28 C24.4477153,28 24,27.5522847 24,27 C24,26.4477153 24.4477153,26 25,26 L30,26 Z M40,26 C40.5522847,26 41,26.4477153 41,27 C41,27.5522847 40.5522847,28 40,28 L35,28 C34.4477153,28 34,27.5522847 34,27 C34,26.4477153 34.4477153,26 35,26 L40,26 Z M48.9941264,30.7559402 C49.0207285,31.3075839 48.5950981,31.7763446 48.0434544,31.8029467 C47.4918107,31.8295487 47.0230499,31.4039183 46.9964479,30.8522746 C46.932893,29.5343442 46.0104281,28.4160021 44.7450243,28.092989 C44.2098988,27.9563903 43.8868291,27.4118503 44.0234278,26.8767248 C44.1600266,26.3415994 44.7045666,26.0185297 45.239692,26.1551284 C47.352057,26.694341 48.8880625,28.5565034 48.9941264,30.7559402 Z M49,40.8770651 C49,41.4293498 48.5522847,41.8770651 48,41.8770651 C47.4477153,41.8770651 47,41.4293498 47,40.8770651 L47,35.8770651 C47,35.3247803 47.4477153,34.8770651 48,34.8770651 C48.5522847,34.8770651 49,35.3247803 49,35.8770651 L49,40.8770651 Z M49,50.8770651 C49,51.4293498 48.5522847,51.8770651 48,51.8770651 C47.4477153,51.8770651 47,51.4293498 47,50.8770651 L47,45.8770651 C47,45.3247803 47.4477153,44.8770651 48,44.8770651 C48.5522847,44.8770651 49,45.3247803 49,45.8770651 L49,50.8770651 Z M49,60.8770651 C49,61.4293498 48.5522847,61.8770651 48,61.8770651 C47.4477153,61.8770651 47,61.4293498 47,60.8770651 L47,55.8770651 C47,55.3247803 47.4477153,54.8770651 48,54.8770651 C48.5522847,54.8770651 49,55.3247803 49,55.8770651 L49,60.8770651 Z M49,70.8770651 C49,71.4293498 48.5522847,71.8770651 48,71.8770651 C47.4477153,71.8770651 47,71.4293498 47,70.8770651 L47,65.8770651 C47,65.3247803 47.4477153,64.8770651 48,64.8770651 C48.5522847,64.8770651 49,65.3247803 49,65.8770651 L49,70.8770651 Z M49,80.8770651 C49,81.4293498 48.5522847,81.8770651 48,81.8770651 C47.4477153,81.8770651 47,81.4293498 47,80.8770651 L47,75.8770651 C47,75.3247803 47.4477153,74.8770651 48,74.8770651 C48.5522847,74.8770651 49,75.3247803 49,75.8770651 L49,80.8770651 Z M49,90.8770651 C49,91.4293498 48.5522847,91.8770651 48,91.8770651 C47.4477153,91.8770651 47,91.4293498 47,90.8770651 L47,85.8770651 C47,85.3247803 47.4477153,84.8770651 48,84.8770651 C48.5522847,84.8770651 49,85.3247803 49,85.8770651 L49,90.8770651 Z M42.2458698,98 C41.6935851,98 41.2458698,97.5522847 41.2458698,97 C41.2458698,96.4477153 41.6935851,96 42.2458698,96 L44,96 C44.8593871,96 45.6581749,95.638046 46.2241716,95.013267 C46.5949663,94.603963 47.2273612,94.572745 47.6366652,94.9435397 C48.0459692,95.3143344 48.0771871,95.9467293 47.7063925,96.3560333 C46.7651364,97.3950446 45.4300746,98 44,98 L42.2458698,98 Z M32.2458698,98 C31.6935851,98 31.2458698,97.5522847 31.2458698,97 C31.2458698,96.4477153 31.6935851,96 32.2458698,96 L37.2458698,96 C37.7981546,96 38.2458698,96.4477153 38.2458698,97 C38.2458698,97.5522847 37.7981546,98 37.2458698,98 L32.2458698,98 Z M22.2458698,98 C21.6935851,98 21.2458698,97.5522847 21.2458698,97 C21.2458698,96.4477153 21.6935851,96 22.2458698,96 L27.2458698,96 C27.7981546,96 28.2458698,96.4477153 28.2458698,97 C28.2458698,97.5522847 27.7981546,98 27.2458698,98 L22.2458698,98 Z M11.7672031,96.8144268 C11.3460203,96.4571825 11.294188,95.8261426 11.6514323,95.4049598 C12.0086767,94.9837771 12.6397165,94.9319447 13.0608993,95.2891891 C13.5993092,95.7458647 14.2787144,96 15,96 L17.2458698,96 C17.7981546,96 18.2458698,96.4477153 18.2458698,97 C18.2458698,97.5522847 17.7981546,98 17.2458698,98 L15,98 C13.800374,98 12.6636819,97.574814 11.7672031,96.8144268 Z M10,86.3688048 C10,85.81652 10.4477153,85.3688048 11,85.3688048 C11.5522847,85.3688048 12,85.81652 12,86.3688048 L12,91.3688048 C12,91.9210895 11.5522847,92.3688048 11,92.3688048 C10.4477153,92.3688048 10,91.9210895 10,91.3688048 L10,86.3688048 Z M10,76.3688048 C10,75.81652 10.4477153,75.3688048 11,75.3688048 C11.5522847,75.3688048 12,75.81652 12,76.3688048 L12,81.3688048 C12,81.9210895 11.5522847,82.3688048 11,82.3688048 C10.4477153,82.3688048 10,81.9210895 10,81.3688048 L10,76.3688048 Z M10,66.3688048 C10,65.81652 10.4477153,65.3688048 11,65.3688048 C11.5522847,65.3688048 12,65.81652 12,66.3688048 L12,71.3688048 C12,71.9210895 11.5522847,72.3688048 11,72.3688048 C10.4477153,72.3688048 10,71.9210895 10,71.3688048 L10,66.3688048 Z M10,56.3688048 C10,55.81652 10.4477153,55.3688048 11,55.3688048 C11.5522847,55.3688048 12,55.81652 12,56.3688048 L12,61.3688048 C12,61.9210895 11.5522847,62.3688048 11,62.3688048 C10.4477153,62.3688048 10,61.9210895 10,61.3688048 L10,56.3688048 Z M10,46.3688048 C10,45.81652 10.4477153,45.3688048 11,45.3688048 C11.5522847,45.3688048 12,45.81652 12,46.3688048 L12,51.3688048 C12,51.9210895 11.5522847,52.3688048 11,52.3688048 C10.4477153,52.3688048 10,51.9210895 10,51.3688048 L10,46.3688048 Z M10,36.3688048 C10,35.81652 10.4477153,35.3688048 11,35.3688048 C11.5522847,35.3688048 12,35.81652 12,36.3688048 L12,41.3688048 C12,41.9210895 11.5522847,42.3688048 11,42.3688048 C10.4477153,42.3688048 10,41.9210895 10,41.3688048 L10,36.3688048 Z M13.0690539,26.3867741 C13.578439,26.1733607 14.164383,26.4132931 14.3777963,26.9226782 C14.5912097,27.4320633 14.3512773,28.0180073 13.8418922,28.2314206 C12.7353047,28.6950396 12,29.7795346 12,31 L12,31.3688048 C12,31.9210895 11.5522847,32.3688048 11,32.3688048 C10.4477153,32.3688048 10,31.9210895 10,31.3688048 L10,31 C10,28.9665287 11.2253996,27.1591966 13.0690539,26.3867741 Z" id="Rectangle" fill="#BA1235" fill-rule="nonzero"></path>
                        <path d="M15,27 L44,27 C46.209139,27 48,28.790861 48,31 L48,93 C48,95.209139 46.209139,97 44,97 L15,97 C12.790861,97 11,95.209139 11,93 L11,31 C11,28.790861 12.790861,27 15,27 Z" id="Rectangle-Copy-30" fill="#D9113A"></path>
                        <path d="M33.0463034,69.0279612 L30.8110435,67.6330612 L27.1861099,69.6151702 C26.3119541,70.0931574 25.230755,69.7436019 24.7711841,68.8344162 C24.5881806,68.4723736 24.5250306,68.0576827 24.5915105,67.6545425 L25.2838112,63.4563684 L22.3511784,60.4832049 C21.6439715,59.7662241 21.6295008,58.5887178 22.3188571,57.8531711 C22.5933624,57.5602725 22.9530469,57.36966 23.3422272,57.3108427 L25.1236184,57.0416184 L27.3950261,56.6983373 L29.2074929,52.8787123 C29.6445708,51.9576066 30.7168265,51.5794231 31.602443,52.034016 C31.9551001,52.2150373 32.2405474,52.5119232 32.4145941,52.8787123 L34.2270608,56.6983373 L38.2798598,57.3108427 C39.2571957,57.4585488 39.9343568,58.4023249 39.7923416,59.4188255 C39.7357904,59.8236013 39.552522,60.1976994 39.2709085,60.4832049 L36.3382757,63.4563684 L37.0305764,67.6545425 C37.1975253,68.6669357 36.5437782,69.6284048 35.5703915,69.8020438 C34.5970047,69.9756828 33.8849808,69.5513326 33.0463034,69.0279612 Z" id="Star" fill="#93001F"></path>
                        <path d="M31.8878475,68.2168017 L29.6525875,66.8219017 L26.027654,68.8040106 C25.1534982,69.2819978 24.0722991,68.9324424 23.6127282,68.0232566 C23.4297247,67.6612141 23.3665747,67.2465232 23.4330546,66.8433829 L24.1253553,62.6452088 L21.1927225,59.6720454 C20.4855156,58.9550645 20.4710449,57.7775582 21.1604012,57.0420115 C21.4349065,56.749113 21.794591,56.5585005 22.1837712,56.4996831 L23.9651625,56.2304589 L26.2365702,55.8871777 L28.0490369,52.0675528 C28.4861148,51.146447 29.5583705,50.7682636 30.4439871,51.2228564 C30.7966442,51.4038777 31.0820914,51.7007636 31.2561381,52.0675528 L33.0686049,55.8871777 L37.1214038,56.4996831 C38.0987397,56.6473893 38.7759009,57.5911653 38.6338857,58.6076659 C38.5773345,59.0124418 38.3940661,59.3865398 38.1124526,59.6720454 L35.1798198,62.6452088 L35.8721205,66.8433829 C36.0390694,67.8557761 35.3853223,68.8172452 34.4119355,68.9908842 C33.4385488,69.1645233 32.7265248,68.740173 31.8878475,68.2168017 Z" id="Star" fill="#FFFFFF"></path>
                        <path d="M2,21 L10,21 C11.1045695,21 12,20.1045695 12,19 C12,17.8954305 11.1045695,17 10,17 L2,17 C0.8954305,17 0,17.8954305 0,19 C0,20.1045695 0.8954305,21 2,21 Z M18,21 L26,21 C27.1045695,21 28,20.1045695 28,19 C28,17.8954305 27.1045695,17 26,17 L18,17 C16.8954305,17 16,17.8954305 16,19 C16,20.1045695 16.8954305,21 18,21 Z M34,21 L42,21 C43.1045695,21 44,20.1045695 44,19 C44,17.8954305 43.1045695,17 42,17 L34,17 C32.8954305,17 32,17.8954305 32,19 C32,20.1045695 32.8954305,21 34,21 Z M50,21 L57,21 C58.1045695,21 59,20.1045695 59,19 C59,17.8954305 58.1045695,17 57,17 L50,17 C48.8954305,17 48,17.8954305 48,19 C48,20.1045695 48.8954305,21 50,21 Z" id="Path-6" fill="#C88300" fill-rule="nonzero"></path>
                    </g>
                </g>
            </g>
        </g>
    </g>
</svg>