<?xml version="1.0" encoding="UTF-8"?>
<svg width="18px" height="20px" viewBox="0 0 18 20" version="1.1" xmlns="http://www.w3.org/2000/svg" xmlns:xlink="http://www.w3.org/1999/xlink">
    <!-- Generator: Sketch 55 (78076) - https://sketchapp.com -->
    <title>moon</title>
    <desc>Created with Sketch.</desc>
    <g id="Page-1" stroke="none" stroke-width="1" fill="none" fill-rule="evenodd">
        <g id="JB_v2" transform="translate(-220.000000, -2270.000000)" fill="#FFFFFF">
            <g id="high-winnings-stats" transform="translate(190.000000, 2030.000000)">
                <g id="Group-3-Copy" transform="translate(30.000000, 240.000000)">
                    <path d="M11.5399041,0.117835445 C7.26371741,0.815442846 4,4.5265804 4,9 C4,13.9705627 8.02943725,18 13,18 C14.4992449,18 15.9128686,17.6334118 17.1561244,16.9849821 C15.3401707,18.8451485 12.8049504,20 10,20 C4.4771525,20 0,15.5228475 0,10 C0,4.4771525 4.4771525,0 10,0 C10.5236782,0 11.0379547,0.0402536101 11.5399041,0.117835445 Z M14,4 C13.4477153,4 13,3.55228475 13,3 C13,2.44771525 13.4477153,2 14,2 C14.5522847,2 15,2.44771525 15,3 C15,3.55228475 14.5522847,4 14,4 Z M9.5,9 C9.22385763,9 9,8.77614237 9,8.5 C9,8.22385763 9.22385763,8 9.5,8 C9.77614237,8 10,8.22385763 10,8.5 C10,8.77614237 9.77614237,9 9.5,9 Z M13.5808115,9.72906874 L13,9.5 L13.5808115,9.27093126 C14.3539796,8.96599822 14.9659982,8.35397961 15.2709313,7.58081155 L15.5,7 L15.7290687,7.58081155 C16.0340018,8.35397961 16.6460204,8.96599822 17.4191885,9.27093126 L18,9.5 L17.4191885,9.72906874 C16.6460204,10.0340018 16.0340018,10.6460204 15.7290687,11.4191885 L15.5,12 L15.2709313,11.4191885 C14.9659982,10.6460204 14.3539796,10.0340018 13.5808115,9.72906874 Z" id="moon"></path>
                </g>
            </g>
        </g>
    </g>
</svg>