<?xml version="1.0" encoding="UTF-8"?>
<svg width="18px" height="16px" viewBox="0 0 18 16" version="1.1" xmlns="http://www.w3.org/2000/svg" xmlns:xlink="http://www.w3.org/1999/xlink">
    <!-- Generator: Sketch 55 (78076) - https://sketchapp.com -->
    <title>share_casino_profits</title>
    <desc>Created with Sketch.</desc>
    <g id="Page-1" stroke="none" stroke-width="1" fill="none" fill-rule="evenodd">
        <g id="JB_v2" transform="translate(-1155.000000, -130.000000)" fill="#FFFFFF" fill-rule="nonzero">
            <g id="buttons" transform="translate(741.000000, 120.000000)">
                <g id="Group-4" transform="translate(396.000000, 0.000000)">
                    <g id="share_casino_profits" transform="translate(27.000000, 18.000000) rotate(-270.000000) translate(-27.000000, -18.000000) translate(19.000000, 9.000000)">
                        <path d="M14,2 L7,2 C6.44771525,2 6,1.55228475 6,1 C6,0.44771525 6.44771525,0 7,0 L15,0 C15.5522847,0 16,0.44771525 16,1 L16,17 C16,17.5522847 15.5522847,18 15,18 L7,18 C6.44771525,18 6,17.5522847 6,17 C6,16.4477153 6.44771525,16 7,16 L14,16 L14,2 Z M3.41421356,8 L9,8 C9.55228475,8 10,8.44771525 10,9 C10,9.55228475 9.55228475,10 9,10 L3.41421356,10 L4.70710678,11.2928932 C5.09763107,11.6834175 5.09763107,12.3165825 4.70710678,12.7071068 C4.31658249,13.0976311 3.68341751,13.0976311 3.29289322,12.7071068 L0.292893219,9.70710678 C-0.0976310729,9.31658249 -0.0976310729,8.68341751 0.292893219,8.29289322 L3.29289322,5.29289322 C3.68341751,4.90236893 4.31658249,4.90236893 4.70710678,5.29289322 C5.09763107,5.68341751 5.09763107,6.31658249 4.70710678,6.70710678 L3.41421356,8 Z" id="Combined-Shape"></path>
                    </g>
                </g>
            </g>
        </g>
    </g>
</svg>