<?xml version="1.0" encoding="UTF-8"?>
<svg width="30px" height="15px" viewBox="0 0 30 15" version="1.1" xmlns="http://www.w3.org/2000/svg" xmlns:xlink="http://www.w3.org/1999/xlink">
    <!-- Generator: Sketch 55 (78076) - https://sketchapp.com -->
    <title>stake_winr</title>
    <desc>Created with Sketch.</desc>
    <g id="Page-1" stroke="none" stroke-width="1" fill="none" fill-rule="evenodd">
        <g id="JB_v2" transform="translate(-988.000000, -130.000000)" fill="#C37001" fill-rule="nonzero">
            <g id="buttons" transform="translate(741.000000, 120.000000)">
                <g id="Group-4-Copy" transform="translate(229.000000, 0.000000)">
                    <path d="M36.0829584,17 C36.0283988,16.6747915 36,16.3407122 36,16 C36,12.6862915 38.6862915,10 42,10 C45.3137085,10 48,12.6862915 48,16 C48,18.6606902 46.2681385,20.9168825 43.8702013,21.7027911 C43.9543808,21.9531667 44,22.2212559 44,22.5 C44,23.8807119 42.8807119,25 41.5,25 L36.5,25 C35.937197,25 35.4178303,24.8140276 35,24.5001831 C34.5821697,24.8140276 34.062803,25 33.5,25 L28.5,25 C27.937197,25 27.4178303,24.8140276 27,24.5001831 C26.5821697,24.8140276 26.062803,25 25.5,25 L20.5,25 C19.1192881,25 18,23.8807119 18,22.5 C18,21.1192881 19.1192881,20 20.5,20 L21.0500091,20 C21.0172151,19.838445 21,19.6712329 21,19.5 C21,18.1192881 22.1192881,17 23.5,17 L25.0500091,17 C25.0172151,16.838445 25,16.6712329 25,16.5 C25,15.1192881 26.1192881,14 27.5,14 L32.5,14 C33.8807119,14 35,15.1192881 35,16.5 C35,16.6712329 34.9827849,16.838445 34.9499909,17 L36.0829584,17 Z M33.5,22 L31.5,22 L28.5,22 C28.2238576,22 28,22.2238576 28,22.5 C28,22.7761424 28.2238576,23 28.5,23 L33.5,23 C33.7761424,23 34,22.7761424 34,22.5 C34,22.2238576 33.7761424,22 33.5,22 Z M31.5,20 L33.5,20 L36.5,20 C36.7761424,20 37,19.7761424 37,19.5 C37,19.2238576 36.7761424,19 36.5,19 L32.5,19 L31.5,19 C31.2238576,19 31,19.2238576 31,19.5 C31,19.7761424 31.2238576,20 31.5,20 Z M31.5,17 L32.5,17 C32.7761424,17 33,16.7761424 33,16.5 C33,16.2238576 32.7761424,16 32.5,16 L27.5,16 C27.2238576,16 27,16.2238576 27,16.5 C27,16.7761424 27.2238576,17 27.5,17 L28.5,17 L31.5,17 Z M23.5,22 L20.5,22 C20.2238576,22 20,22.2238576 20,22.5 C20,22.7761424 20.2238576,23 20.5,23 L25.5,23 C25.7761424,23 26,22.7761424 26,22.5 C26,22.2238576 25.7761424,22 25.5,22 L23.5,22 Z M23.5,20 L25.5,20 L28.5,20 C28.7761424,20 29,19.7761424 29,19.5 C29,19.2238576 28.7761424,19 28.5,19 L27.5,19 L23.5,19 C23.2238576,19 23,19.2238576 23,19.5 C23,19.7761424 23.2238576,20 23.5,20 Z M36.5,22 C36.2238576,22 36,22.2238576 36,22.5 C36,22.7761424 36.2238576,23 36.5,23 L41.5,23 C41.7761424,23 42,22.7761424 42,22.5 C42,22.2238576 41.7761424,22 41.5,22 L36.5,22 Z M41.4316495,15.5864124 L40.4350877,17.7506755 L39.7937014,14.6752683 C39.7855761,14.636308 39.7557043,14.6055314 39.7170038,14.5962475 C39.5686297,14.5606539 39.3476736,14.5428571 39.0541353,14.5428571 C38.8017138,14.5428571 38.616383,14.5560174 38.498143,14.582338 C38.4427558,14.5946658 38.4078152,14.6495188 38.4200552,14.7049255 L39.3160728,18.7609088 C39.3339251,18.8417201 39.3984659,18.9039649 39.4798707,18.9188793 C39.7498219,18.9683381 40.0197731,18.9828844 40.2897243,18.962518 C40.5058989,18.9462087 40.7220736,18.9075112 40.9382482,18.8464254 C41.1211833,18.794733 41.2700871,18.6616175 41.3418756,18.4855954 L41.9714286,16.9419621 L42.6009815,18.4855954 C42.67277,18.6616175 42.8216738,18.794733 43.0046089,18.8464254 C43.2207836,18.9075112 43.4369582,18.9462087 43.6531328,18.962518 C43.923084,18.9828844 44.1930353,18.9683381 44.4629865,18.9188793 C44.5443913,18.9039649 44.6089321,18.8417201 44.6267843,18.7609088 L45.5228019,14.7049255 C45.535042,14.6495188 45.5001013,14.5946658 45.4447144,14.5823365 C45.3264741,14.5560174 45.1411434,14.5428571 44.8887218,14.5428571 C44.5951836,14.5428571 44.3742274,14.5606539 44.2258534,14.5962475 C44.1871529,14.6055314 44.157281,14.636308 44.1491557,14.6752683 L43.5077694,17.7506755 L42.5112076,15.5864124 C42.5037784,15.5702781 42.4924154,15.5565731 42.4784363,15.5463651 C42.4683177,15.5349888 42.4555071,15.5256929 42.4404575,15.5195551 C42.4343844,15.5170783 42.4280883,15.515188 42.4216552,15.5139101 C42.2728151,15.4843435 42.1315115,15.4695602 41.9977444,15.4695602 C41.9890046,15.4695602 41.9802327,15.4696233 41.9714286,15.4697495 C41.9626245,15.4696233 41.9538525,15.4695602 41.9451128,15.4695602 C41.8113457,15.4695602 41.6700421,15.4843435 41.521202,15.5139101 C41.5147689,15.515188 41.5084728,15.5170783 41.5023996,15.5195551 C41.4873501,15.5256929 41.4745394,15.5349888 41.4644208,15.5463651 C41.4504417,15.5565731 41.4390788,15.5702781 41.4316495,15.5864124 Z M42.0610254,11.8306228 C41.9903052,11.7897924 41.9031742,11.7897924 41.832454,11.8306228 L40.7714286,12.4432061 C40.7183884,12.4738288 40.6857143,12.530422 40.6857143,12.5916676 L40.6857143,13.8488831 C40.6857143,13.9106328 40.7189239,13.9676109 40.7726529,13.9980448 L41.8340864,14.5992751 C41.9039723,14.6388608 41.9895071,14.6388608 42.059393,14.5992751 L43.1208265,13.9980448 C43.1745555,13.9676109 43.2077651,13.9106328 43.2077651,13.8488831 L43.2077651,12.5916676 C43.2077651,12.530422 43.175091,12.4738288 43.1220508,12.4432061 L42.0610254,11.8306228 Z M41.9467397,12.284678 C41.831856,12.284678 41.7387244,12.2381122 41.7387244,12.1806704 C41.7387244,12.1232285 41.831856,12.0766627 41.9467397,12.0766627 C42.0616233,12.0766627 42.1547549,12.1232285 42.1547549,12.1806704 C42.1547549,12.2381122 42.0616233,12.284678 41.9467397,12.284678 Z M41.9467397,12.5967009 C41.831856,12.5967009 41.7387244,12.5501351 41.7387244,12.4926932 C41.7387244,12.4352514 41.831856,12.3886856 41.9467397,12.3886856 C42.0616233,12.3886856 42.1547549,12.4352514 42.1547549,12.4926932 C42.1547549,12.5501351 42.0616233,12.5967009 41.9467397,12.5967009 Z M41.9467397,12.9087237 C41.831856,12.9087237 41.7387244,12.8621579 41.7387244,12.8047161 C41.7387244,12.7472743 41.831856,12.7007085 41.9467397,12.7007085 C42.0616233,12.7007085 42.1547549,12.7472743 42.1547549,12.8047161 C42.1547549,12.8621579 42.0616233,12.9087237 41.9467397,12.9087237 Z M42.5707854,12.5967009 C42.4559018,12.5967009 42.3627702,12.5501351 42.3627702,12.4926932 C42.3627702,12.4352514 42.4559018,12.3886856 42.5707854,12.3886856 C42.6856691,12.3886856 42.7788007,12.4352514 42.7788007,12.4926932 C42.7788007,12.5501351 42.6856691,12.5967009 42.5707854,12.5967009 Z M41.322694,12.5967009 C41.2078103,12.5967009 41.1146787,12.5501351 41.1146787,12.4926932 C41.1146787,12.4352514 41.2078103,12.3886856 41.322694,12.3886856 C41.4375776,12.3886856 41.5307092,12.4352514 41.5307092,12.4926932 C41.5307092,12.5501351 41.4375776,12.5967009 41.322694,12.5967009 Z M42.5624873,13.5451024 C42.5789272,13.4067212 42.6415129,13.2990501 42.7022765,13.3046121 C42.76304,13.3101742 42.7999939,13.4141643 42.7848152,13.5368804 C42.7696365,13.6595966 42.7070507,13.7672678 42.645026,13.7773707 C42.5830013,13.7874737 42.5460474,13.6834836 42.5624873,13.5451024 Z M40.8711421,13.3074125 C40.8662376,13.204495 40.911382,13.1138641 40.9720346,13.1050008 C41.0327535,13.0961578 41.088613,13.1739807 41.0966885,13.2788469 C41.104707,13.3837598 41.0593709,13.4744039 40.9955202,13.4812776 C40.9317145,13.4881662 40.8760465,13.4103301 40.8711421,13.3074125 Z M41.1183335,13.5638979 C41.1104131,13.4589051 41.1551641,13.3678652 41.2183864,13.3605282 C41.2816608,13.3532088 41.3418725,13.4339959 41.352716,13.5410362 C41.3634379,13.6481656 41.3183953,13.7393297 41.2522437,13.7445847 C41.186117,13.7498487 41.1261968,13.6689373 41.1183335,13.5638979 Z M41.3815526,13.8322058 C41.3710399,13.7249239 41.4155351,13.6333463 41.4810758,13.6275921 C41.5466498,13.6218501 41.6106317,13.7058007 41.6237771,13.8152046 C41.6367274,13.9247347 41.5918325,14.0165428 41.5236788,14.0201501 C41.4555252,14.0237573 41.3919429,13.9395761 41.3815526,13.8322058 Z M42.0091274,13.1192674 L42.5817642,12.8557825 C42.5981642,12.8482364 42.6175764,12.8554139 42.6251225,12.871814 C42.6321495,12.8870859 42.626447,12.9051975 42.6119381,12.9136887 L42.0916711,13.2181721 C42.0582958,13.2377048 42.0370619,13.2727905 42.0352383,13.3114184 L42.0047953,13.9562868 C42.0038071,13.9772191 41.9860371,13.9933869 41.9651049,13.9923988 C41.9457415,13.9914847 41.9301808,13.9761219 41.9290189,13.9567718 L41.8902971,13.3118762 C41.8879629,13.2730009 41.8659927,13.2379902 41.8320022,13.2189802 L41.2861327,12.9136887 C41.2704265,12.9049047 41.264815,12.8850514 41.2735991,12.8693452 C41.2818008,12.8546803 41.299809,12.8486568 41.3151835,12.8554357 L41.915248,13.1200168 C41.945204,13.133225 41.9793861,13.1329521 42.0091274,13.1192674 Z" id="stake_winr"></path>
                </g>
            </g>
        </g>
    </g>
</svg>